BacasimeAntique-Regular.ufo
<glyph name="exclam" format="2">
  <advance width="525"/>
  <unicode hex="0021"/>
  <anchor x="335" y="0" name="_Ldot"/>
  <outline>
    <contour>
      <point x="277" y="386" type="line"/>
      <point x="275" y="713"/>
      <point x="360" y="1074"/>
      <point x="360" y="1173" type="curve" smooth="yes"/>
      <point x="360" y="1249"/>
      <point x="327" y="1292"/>
      <point x="263" y="1292" type="curve" smooth="yes"/>
      <point x="200" y="1292"/>
      <point x="167" y="1249"/>
      <point x="167" y="1172" type="curve" smooth="yes"/>
      <point x="167" y="1073"/>
      <point x="249" y="713"/>
      <point x="247" y="386" type="curve"/>
    </contour>
    <contour>
      <point x="263" y="-23" type="curve" smooth="yes"/>
      <point x="316" y="-23"/>
      <point x="364" y="28"/>
      <point x="364" y="86" type="curve" smooth="yes"/>
      <point x="364" y="144"/>
      <point x="316" y="196"/>
      <point x="263" y="196" type="curve" smooth="yes"/>
      <point x="210" y="196"/>
      <point x="162" y="144"/>
      <point x="162" y="86" type="curve" smooth="yes"/>
      <point x="162" y="28"/>
      <point x="210" y="-23"/>
    </contour>
  </outline>
  <guideline angle="0" x="0" y="386"/>
  <guideline angle="90" x="279" y="0"/>
</glyph>
<glyph name="quotedbl" format="2">
  <advance width="499"/>
  <unicode hex="0022"/>
  <outline>
    <contour>
      <point x="133" y="714" type="line"/>
      <point x="164" y="951"/>
      <point x="210" y="1008"/>
      <point x="210" y="1106" type="curve" smooth="yes"/>
      <point x="210" y="1176"/>
      <point x="177" y="1218"/>
      <point x="122" y="1218" type="curve" smooth="yes"/>
      <point x="69" y="1218"/>
      <point x="35" y="1175"/>
      <point x="35" y="1102" type="curve" smooth="yes"/>
      <point x="35" y="1007"/>
      <point x="79" y="951"/>
      <point x="110" y="714" type="curve"/>
    </contour>
    <contour>
      <point x="388" y="714" type="line"/>
      <point x="419" y="951"/>
      <point x="465" y="1008"/>
      <point x="465" y="1106" type="curve" smooth="yes"/>
      <point x="465" y="1176"/>
      <point x="432" y="1218"/>
      <point x="377" y="1218" type="curve" smooth="yes"/>
      <point x="324" y="1218"/>
      <point x="290" y="1175"/>
      <point x="290" y="1102" type="curve" smooth="yes"/>
      <point x="290" y="1007"/>
      <point x="334" y="951"/>
      <point x="365" y="714" type="curve"/>
    </contour>
  </outline>
</glyph>
<glyph name="numbersign" format="2">
  <advance width="1007"/>
  <unicode hex="0023"/>
  <outline>
    <contour>
      <point x="602" y="29" type="line"/>
      <point x="806" y="1086" type="line"/>
      <point x="663" y="1047" type="line"/>
      <point x="458" y="-13" type="line"/>
    </contour>
    <contour>
      <point x="826" y="304" type="line"/>
      <point x="832" y="335" type="line"/>
      <point x="78" y="125" type="line"/>
      <point x="72" y="94" type="line"/>
    </contour>
    <contour>
      <point x="354" y="-41" type="line"/>
      <point x="558" y="1018" type="line"/>
      <point x="415" y="979" type="line"/>
      <point x="210" y="-81" type="line"/>
    </contour>
    <contour>
      <point x="930" y="848" type="line"/>
      <point x="935" y="880" type="line"/>
      <point x="184" y="670" type="line"/>
      <point x="178" y="638" type="line"/>
    </contour>
  </outline>
</glyph>
<glyph name="dollar" format="2">
  <advance width="1007"/>
  <unicode hex="0024"/>
  <anchor x="656" y="0" name="bottom"/>
  <anchor x="631" y="1169" name="top"/>
  <outline>
    <contour>
      <point x="513" y="-23" type="curve" smooth="yes"/>
      <point x="706" y="-23"/>
      <point x="827" y="98"/>
      <point x="827" y="291" type="curve" smooth="yes"/>
      <point x="827" y="448"/>
      <point x="760" y="548"/>
      <point x="568" y="657" type="curve" smooth="yes"/>
      <point x="401" y="753"/>
      <point x="326" y="843"/>
      <point x="326" y="959" type="curve" smooth="yes"/>
      <point x="326" y="1073"/>
      <point x="389" y="1160"/>
      <point x="507" y="1160" type="curve" smooth="yes"/>
      <point x="640" y="1160"/>
      <point x="739" y="1027"/>
      <point x="741" y="845" type="curve"/>
      <point x="773" y="845" type="line"/>
      <point x="773" y="1041"/>
      <point x="773" y="1121"/>
      <point x="780" y="1188" type="curve"/>
      <point x="747" y="1188" type="line"/>
      <point x="748" y="1154"/>
      <point x="732" y="1125"/>
      <point x="711" y="1125" type="curve" smooth="yes"/>
      <point x="681" y="1125"/>
      <point x="619" y="1192"/>
      <point x="479" y="1192" type="curve" smooth="yes"/>
      <point x="309" y="1192"/>
      <point x="204" y="1083"/>
      <point x="204" y="906" type="curve" smooth="yes"/>
      <point x="204" y="750"/>
      <point x="295" y="624"/>
      <point x="462" y="537" type="curve" smooth="yes"/>
      <point x="610" y="460"/>
      <point x="689" y="361"/>
      <point x="689" y="244" type="curve" smooth="yes"/>
      <point x="689" y="108"/>
      <point x="591" y="11"/>
      <point x="480" y="11" type="curve" smooth="yes"/>
      <point x="326" y="11"/>
      <point x="222" y="162"/>
      <point x="219" y="392" type="curve"/>
      <point x="188" y="392" type="line"/>
      <point x="188" y="143"/>
      <point x="186" y="54"/>
      <point x="180" y="-19" type="curve"/>
      <point x="212" y="-19" type="line"/>
      <point x="213" y="9"/>
      <point x="227" y="33"/>
      <point x="249" y="33" type="curve" smooth="yes"/>
      <point x="291" y="33"/>
      <point x="366" y="-23"/>
    </contour>
    <contour>
      <point x="521" y="-301" type="line"/>
      <point x="521" y="1470" type="line"/>
      <point x="491" y="1470" type="line"/>
      <point x="491" y="-301" type="line"/>
    </contour>
  </outline>
</glyph>
<glyph name="percent" format="2">
  <advance width="1515"/>
  <unicode hex="0025"/>
  <outline>
    <contour>
      <point x="1072" y="861" type="line"/>
      <point x="1054" y="874" type="line"/>
      <point x="448" y="-11" type="line"/>
      <point x="465" y="-23" type="line"/>
    </contour>
    <contour>
      <point x="993" y="-23" type="curve" smooth="yes"/>
      <point x="1143" y="-23"/>
      <point x="1244" y="63"/>
      <point x="1244" y="187" type="curve" smooth="yes"/>
      <point x="1244" y="311"/>
      <point x="1150" y="391"/>
      <point x="1003" y="391" type="curve" smooth="yes"/>
      <point x="856" y="391"/>
      <point x="752" y="306"/>
      <point x="752" y="178" type="curve" smooth="yes"/>
      <point x="752" y="56"/>
      <point x="849" y="-23"/>
    </contour>
    <contour>
      <point x="1003" y="-2" type="curve" smooth="yes"/>
      <point x="917" y="-2"/>
      <point x="869" y="65"/>
      <point x="869" y="188" type="curve" smooth="yes"/>
      <point x="869" y="306"/>
      <point x="912" y="370"/>
      <point x="996" y="370" type="curve" smooth="yes"/>
      <point x="1082" y="370"/>
      <point x="1130" y="305"/>
      <point x="1130" y="185" type="curve" smooth="yes"/>
      <point x="1130" y="63"/>
      <point x="1084" y="-2"/>
    </contour>
    <contour>
      <point x="513" y="459" type="curve" smooth="yes"/>
      <point x="662" y="459"/>
      <point x="766" y="545"/>
      <point x="766" y="671" type="curve" smooth="yes"/>
      <point x="766" y="793"/>
      <point x="669" y="874"/>
      <point x="523" y="874" type="curve" smooth="yes"/>
      <point x="375" y="874"/>
      <point x="272" y="788"/>
      <point x="272" y="661" type="curve" smooth="yes"/>
      <point x="272" y="538"/>
      <point x="368" y="459"/>
    </contour>
    <contour>
      <point x="522" y="480" type="curve" smooth="yes"/>
      <point x="436" y="480"/>
      <point x="388" y="547"/>
      <point x="388" y="670" type="curve" smooth="yes"/>
      <point x="388" y="788"/>
      <point x="434" y="852"/>
      <point x="515" y="852" type="curve" smooth="yes"/>
      <point x="601" y="852"/>
      <point x="649" y="786"/>
      <point x="649" y="667" type="curve" smooth="yes"/>
      <point x="649" y="545"/>
      <point x="605" y="480"/>
    </contour>
    <contour>
      <point x="872" y="765" type="curve" smooth="yes"/>
      <point x="946" y="765"/>
      <point x="1006" y="796"/>
      <point x="1050" y="862" type="curve"/>
      <point x="1054" y="874" type="line"/>
      <point x="1013" y="818"/>
      <point x="951" y="786"/>
      <point x="875" y="786" type="curve" smooth="yes"/>
      <point x="808" y="786"/>
      <point x="716" y="810"/>
      <point x="659" y="843" type="curve"/>
      <point x="667" y="834" type="line"/>
      <point x="726" y="791"/>
      <point x="804" y="765"/>
    </contour>
  </outline>
</glyph>
<glyph name="ampersand" format="2">
  <advance width="1379"/>
  <unicode hex="0026"/>
  <outline>
    <contour>
      <point x="394" y="-23" type="curve" smooth="yes"/>
      <point x="671" y="-23"/>
      <point x="869" y="171"/>
      <point x="985" y="551" type="curve"/>
      <point x="957" y="556" type="line"/>
      <point x="839" y="226"/>
      <point x="672" y="57"/>
      <point x="458" y="57" type="curve" smooth="yes"/>
      <point x="257" y="57"/>
      <point x="115" y="214"/>
      <point x="115" y="443" type="curve" smooth="yes"/>
      <point x="115" y="636"/>
      <point x="222" y="843"/>
      <point x="321" y="843" type="curve" smooth="yes"/>
      <point x="362" y="843"/>
      <point x="381" y="810"/>
      <point x="381" y="736" type="curve" smooth="yes"/>
      <point x="381" y="611"/>
      <point x="295" y="480"/>
      <point x="206" y="431" type="curve"/>
      <point x="218" y="402" type="line"/>
      <point x="569" y="585"/>
      <point x="820" y="855"/>
      <point x="820" y="1051" type="curve" smooth="yes"/>
      <point x="820" y="1125"/>
      <point x="783" y="1176"/>
      <point x="727" y="1176" type="curve" smooth="yes"/>
      <point x="681" y="1176"/>
      <point x="646" y="1143"/>
      <point x="646" y="1097" type="curve" smooth="yes"/>
      <point x="646" y="1022"/>
      <point x="734" y="983"/>
      <point x="734" y="927" type="curve" smooth="yes"/>
      <point x="734" y="806"/>
      <point x="515" y="605"/>
      <point x="249" y="452" type="curve"/>
      <point x="263" y="451" type="line"/>
      <point x="419" y="577"/>
      <point x="483" y="660"/>
      <point x="483" y="742" type="curve" smooth="yes"/>
      <point x="483" y="822"/>
      <point x="425" y="872"/>
      <point x="330" y="872" type="curve" smooth="yes"/>
      <point x="135" y="872"/>
      <point x="-26" y="659"/>
      <point x="-26" y="405" type="curve" smooth="yes"/>
      <point x="-26" y="146"/>
      <point x="140" y="-23"/>
    </contour>
    <contour>
      <point x="651" y="265" type="curve" smooth="yes"/>
      <point x="699" y="265"/>
      <point x="732" y="299"/>
      <point x="732" y="344" type="curve" smooth="yes"/>
      <point x="732" y="410"/>
      <point x="652" y="477"/>
      <point x="652" y="509" type="curve" smooth="yes"/>
      <point x="652" y="545"/>
      <point x="699" y="567"/>
      <point x="781" y="567" type="curve" smooth="yes"/>
      <point x="980" y="567"/>
      <point x="1062" y="503"/>
      <point x="1190" y="503" type="curve" smooth="yes"/>
      <point x="1316" y="503"/>
      <point x="1404" y="568"/>
      <point x="1404" y="661" type="curve" smooth="yes"/>
      <point x="1404" y="714"/>
      <point x="1379" y="749"/>
      <point x="1335" y="749" type="curve" smooth="yes"/>
      <point x="1232" y="749"/>
      <point x="1270" y="533"/>
      <point x="1175" y="533" type="curve" smooth="yes"/>
      <point x="1097" y="533"/>
      <point x="977" y="671"/>
      <point x="838" y="671" type="curve" smooth="yes"/>
      <point x="702" y="671"/>
      <point x="573" y="533"/>
      <point x="573" y="381" type="curve" smooth="yes"/>
      <point x="573" y="309"/>
      <point x="603" y="265"/>
    </contour>
  </outline>
</glyph>
<glyph name="quotesingle" format="2">
  <advance width="284"/>
  <unicode hex="0027"/>
  <outline>
    <contour>
      <point x="153" y="714" type="line"/>
      <point x="184" y="951"/>
      <point x="230" y="1008"/>
      <point x="230" y="1106" type="curve" smooth="yes"/>
      <point x="230" y="1176"/>
      <point x="197" y="1218"/>
      <point x="142" y="1218" type="curve" smooth="yes"/>
      <point x="89" y="1218"/>
      <point x="55" y="1175"/>
      <point x="55" y="1102" type="curve" smooth="yes"/>
      <point x="55" y="1007"/>
      <point x="99" y="951"/>
      <point x="130" y="714" type="curve"/>
    </contour>
  </outline>
</glyph>
<glyph name="parenleft" format="2">
  <advance width="601"/>
  <unicode hex="0028"/>
  <outline>
    <contour>
      <point x="596" y="-296" type="line"/>
      <point x="423" y="-60"/>
      <point x="306" y="177"/>
      <point x="306" y="502" type="curve" smooth="yes"/>
      <point x="306" y="812"/>
      <point x="424" y="1045"/>
      <point x="596" y="1275" type="curve"/>
      <point x="581" y="1293" type="line"/>
      <point x="316" y="1112"/>
      <point x="172" y="843"/>
      <point x="172" y="499" type="curve" smooth="yes"/>
      <point x="172" y="153"/>
      <point x="309" y="-116"/>
      <point x="581" y="-315" type="curve"/>
    </contour>
  </outline>
</glyph>
<glyph name="parenright" format="2">
  <advance width="601"/>
  <unicode hex="0029"/>
  <outline>
    <contour>
      <point x="37" y="-315" type="line"/>
      <point x="309" y="-116"/>
      <point x="446" y="153"/>
      <point x="446" y="499" type="curve" smooth="yes"/>
      <point x="446" y="843"/>
      <point x="302" y="1112"/>
      <point x="37" y="1293" type="curve"/>
      <point x="22" y="1275" type="line"/>
      <point x="194" y="1045"/>
      <point x="312" y="812"/>
      <point x="312" y="502" type="curve" smooth="yes"/>
      <point x="312" y="177"/>
      <point x="195" y="-60"/>
      <point x="22" y="-296" type="curve"/>
    </contour>
  </outline>
  <guideline angle="0" x="0" y="-315"/>
  <guideline angle="0" x="0" y="1292"/>
  <guideline angle="90" x="35" y="0"/>
</glyph>
<glyph name="asterisk" format="2">
  <advance width="1007"/>
  <unicode hex="002A"/>
  <outline>
    <contour>
      <point x="805" y="1029" type="curve" smooth="yes"/>
      <point x="785" y="1063"/>
      <point x="752" y="1072"/>
      <point x="720" y="1053" type="curve" smooth="yes"/>
      <point x="664" y="1019"/>
      <point x="616" y="936"/>
      <point x="501" y="860" type="curve"/>
      <point x="507" y="848" type="line"/>
      <point x="636" y="910"/>
      <point x="731" y="910"/>
      <point x="786" y="942" type="curve" smooth="yes"/>
      <point x="819" y="961"/>
      <point x="825" y="996"/>
    </contour>
    <contour>
      <point x="809" y="680" type="curve"/>
      <point x="828" y="712"/>
      <point x="819" y="750"/>
      <point x="785" y="768" type="curve" smooth="yes"/>
      <point x="728" y="798"/>
      <point x="630" y="798"/>
      <point x="507" y="860" type="curve"/>
      <point x="501" y="851" type="line"/>
      <point x="619" y="769"/>
      <point x="667" y="687"/>
      <point x="721" y="655" type="curve" smooth="yes"/>
      <point x="756" y="635"/>
      <point x="786" y="647"/>
    </contour>
    <contour>
      <point x="504" y="507" type="curve" smooth="yes"/>
      <point x="543" y="507"/>
      <point x="570" y="530"/>
      <point x="568" y="570" type="curve" smooth="yes"/>
      <point x="566" y="634"/>
      <point x="518" y="719"/>
      <point x="510" y="856" type="curve"/>
      <point x="498" y="856" type="line"/>
      <point x="486" y="714"/>
      <point x="439" y="632"/>
      <point x="439" y="569" type="curve" smooth="yes"/>
      <point x="439" y="529"/>
      <point x="464" y="508"/>
    </contour>
    <contour>
      <point x="201" y="679" type="curve" smooth="yes"/>
      <point x="222" y="645"/>
      <point x="255" y="635"/>
      <point x="288" y="656" type="curve" smooth="yes"/>
      <point x="341" y="690"/>
      <point x="391" y="774"/>
      <point x="506" y="849" type="curve"/>
      <point x="501" y="861" type="line"/>
      <point x="370" y="799"/>
      <point x="275" y="798"/>
      <point x="220" y="766" type="curve" smooth="yes"/>
      <point x="187" y="747"/>
      <point x="181" y="713"/>
    </contour>
    <contour>
      <point x="202" y="1028" type="curve" smooth="yes"/>
      <point x="185" y="995"/>
      <point x="189" y="961"/>
      <point x="227" y="940" type="curve" smooth="yes"/>
      <point x="279" y="911"/>
      <point x="381" y="913"/>
      <point x="502" y="849" type="curve"/>
      <point x="509" y="861" type="line"/>
      <point x="390" y="942"/>
      <point x="341" y="1024"/>
      <point x="287" y="1056" type="curve" smooth="yes"/>
      <point x="253" y="1076"/>
      <point x="221" y="1065"/>
    </contour>
    <contour>
      <point x="505" y="1204" type="curve" smooth="yes"/>
      <point x="465" y="1204"/>
      <point x="440" y="1181"/>
      <point x="440" y="1142" type="curve" smooth="yes"/>
      <point x="440" y="1081"/>
      <point x="490" y="992"/>
      <point x="499" y="856" type="curve"/>
      <point x="511" y="856" type="line"/>
      <point x="522" y="997"/>
      <point x="569" y="1081"/>
      <point x="569" y="1142" type="curve" smooth="yes"/>
      <point x="569" y="1184"/>
      <point x="544" y="1204"/>
    </contour>
  </outline>
</glyph>
<glyph name="comma" format="2">
  <advance width="488"/>
  <unicode hex="002C"/>
  <outline>
    <contour>
      <point x="185" y="-231" type="line"/>
      <point x="275" y="-203"/>
      <point x="352" y="-114"/>
      <point x="352" y="26" type="curve" smooth="yes"/>
      <point x="352" y="133"/>
      <point x="307" y="196"/>
      <point x="238" y="196" type="curve" smooth="yes"/>
      <point x="179" y="196"/>
      <point x="136" y="153"/>
      <point x="136" y="93" type="curve" smooth="yes"/>
      <point x="136" y="36"/>
      <point x="176" y="-4"/>
      <point x="220" y="-4" type="curve" smooth="yes"/>
      <point x="248" y="-4"/>
      <point x="269" y="11"/>
      <point x="285" y="11" type="curve" smooth="yes"/>
      <point x="305" y="11"/>
      <point x="316" y="-5"/>
      <point x="316" y="-35" type="curve" smooth="yes"/>
      <point x="316" y="-105"/>
      <point x="254" y="-184"/>
      <point x="174" y="-208" type="curve"/>
    </contour>
  </outline>
  <guideline angle="0" x="0" y="175"/>
</glyph>
<glyph name="hyphen" format="2">
  <advance width="514"/>
  <unicode hex="002D"/>
  <outline>
    <contour>
      <point x="592" y="434" type="line"/>
      <point x="592" y="488" type="line"/>
      <point x="93" y="488" type="line"/>
      <point x="93" y="434" type="line"/>
    </contour>
  </outline>
</glyph>
<glyph name="period" format="2">
  <advance width="500"/>
  <unicode hex="002E"/>
  <anchor x="309" y="0" name="_Ldot"/>
  <outline>
    <contour>
      <point x="250" y="-23" type="curve" smooth="yes"/>
      <point x="303" y="-23"/>
      <point x="351" y="28"/>
      <point x="351" y="86" type="curve" smooth="yes"/>
      <point x="351" y="144"/>
      <point x="303" y="196"/>
      <point x="250" y="196" type="curve" smooth="yes"/>
      <point x="197" y="196"/>
      <point x="149" y="144"/>
      <point x="149" y="86" type="curve" smooth="yes"/>
      <point x="149" y="28"/>
      <point x="197" y="-23"/>
    </contour>
  </outline>
</glyph>
<glyph name="slash" format="2">
  <advance width="601"/>
  <unicode hex="002F"/>
  <outline>
    <contour>
      <point x="89" y="-23" type="line"/>
      <point x="550" y="1192" type="line"/>
      <point x="513" y="1192" type="line"/>
      <point x="52" y="-23" type="line"/>
    </contour>
  </outline>
</glyph>
<glyph name="zero" format="2">
  <advance width="1007"/>
  <unicode hex="0030"/>
  <outline>
    <contour>
      <point x="497" y="-23" type="curve" smooth="yes"/>
      <point x="707" y="-23"/>
      <point x="860" y="169"/>
      <point x="860" y="440" type="curve" smooth="yes"/>
      <point x="860" y="696"/>
      <point x="718" y="874"/>
      <point x="511" y="874" type="curve" smooth="yes"/>
      <point x="299" y="874"/>
      <point x="148" y="681"/>
      <point x="148" y="412" type="curve" smooth="yes"/>
      <point x="148" y="156"/>
      <point x="292" y="-23"/>
    </contour>
    <contour>
      <point x="504" y="7" type="curve" smooth="yes"/>
      <point x="381" y="7"/>
      <point x="307" y="162"/>
      <point x="307" y="416" type="curve" smooth="yes"/>
      <point x="307" y="681"/>
      <point x="382" y="843"/>
      <point x="503" y="843" type="curve" smooth="yes"/>
      <point x="624" y="843"/>
      <point x="700" y="687"/>
      <point x="700" y="436" type="curve" smooth="yes"/>
      <point x="700" y="174"/>
      <point x="625" y="7"/>
    </contour>
  </outline>
</glyph>
<glyph name="one" format="2">
  <advance width="1007"/>
  <unicode hex="0031"/>
  <outline>
    <contour>
      <point x="291" y="0" type="line"/>
      <point x="335" y="2"/>
      <point x="430" y="7"/>
      <point x="518" y="7" type="curve" smooth="yes"/>
      <point x="598" y="7"/>
      <point x="689" y="2"/>
      <point x="729" y="0" type="curve"/>
      <point x="729" y="31" type="line"/>
      <point x="637" y="31"/>
      <point x="590" y="53"/>
      <point x="590" y="159" type="curve" smooth="yes"/>
      <point x="590" y="885" type="line"/>
      <point x="515" y="826"/>
      <point x="427" y="804"/>
      <point x="279" y="801" type="curve"/>
      <point x="279" y="770" type="line"/>
      <point x="394" y="770"/>
      <point x="441" y="757"/>
      <point x="441" y="593" type="curve" smooth="yes"/>
      <point x="441" y="159" type="line" smooth="yes"/>
      <point x="441" y="58"/>
      <point x="391" y="31"/>
      <point x="291" y="31" type="curve"/>
    </contour>
  </outline>
</glyph>
<glyph name="two" format="2">
  <advance width="1007"/>
  <unicode hex="0032"/>
  <outline>
    <contour>
      <point x="793" y="-8" type="curve"/>
      <point x="788" y="49"/>
      <point x="787" y="93"/>
      <point x="786" y="229" type="curve"/>
      <point x="758" y="229" type="line"/>
      <point x="753" y="160"/>
      <point x="720" y="127"/>
      <point x="645" y="127" type="curve" smooth="yes"/>
      <point x="344" y="127" type="line"/>
      <point x="344" y="133" type="line"/>
      <point x="531" y="339"/>
      <point x="726" y="473"/>
      <point x="726" y="666" type="curve" smooth="yes"/>
      <point x="726" y="800"/>
      <point x="640" y="874"/>
      <point x="506" y="874" type="curve" smooth="yes"/>
      <point x="342" y="874"/>
      <point x="215" y="769"/>
      <point x="215" y="645" type="curve" smooth="yes"/>
      <point x="215" y="582"/>
      <point x="248" y="552"/>
      <point x="298" y="552" type="curve" smooth="yes"/>
      <point x="340" y="552"/>
      <point x="382" y="574"/>
      <point x="382" y="623" type="curve" smooth="yes"/>
      <point x="382" y="682"/>
      <point x="316" y="715"/>
      <point x="316" y="753" type="curve" smooth="yes"/>
      <point x="316" y="791"/>
      <point x="371" y="827"/>
      <point x="444" y="827" type="curve" smooth="yes"/>
      <point x="520" y="827"/>
      <point x="567" y="774"/>
      <point x="567" y="643" type="curve" smooth="yes"/>
      <point x="567" y="385"/>
      <point x="394" y="220"/>
      <point x="216" y="29" type="curve"/>
      <point x="216" y="0" type="line"/>
      <point x="683" y="0" type="line" smooth="yes"/>
      <point x="721" y="0"/>
      <point x="778" y="-2"/>
    </contour>
  </outline>
</glyph>
<glyph name="three" format="2">
  <advance width="1007"/>
  <unicode hex="0033"/>
  <outline>
    <contour>
      <point x="470" y="-248" type="curve" smooth="yes"/>
      <point x="668" y="-248"/>
      <point x="808" y="-130"/>
      <point x="808" y="41" type="curve" smooth="yes"/>
      <point x="808" y="181"/>
      <point x="699" y="294"/>
      <point x="543" y="317" type="curve"/>
      <point x="702" y="389"/>
      <point x="791" y="501"/>
      <point x="791" y="629" type="curve" smooth="yes"/>
      <point x="791" y="775"/>
      <point x="686" y="874"/>
      <point x="528" y="874" type="curve" smooth="yes"/>
      <point x="364" y="874"/>
      <point x="221" y="769"/>
      <point x="221" y="645" type="curve" smooth="yes"/>
      <point x="221" y="589"/>
      <point x="254" y="556"/>
      <point x="305" y="556" type="curve" smooth="yes"/>
      <point x="355" y="556"/>
      <point x="390" y="586"/>
      <point x="390" y="629" type="curve" smooth="yes"/>
      <point x="390" y="684"/>
      <point x="324" y="717"/>
      <point x="324" y="756" type="curve" smooth="yes"/>
      <point x="324" y="793"/>
      <point x="380" y="823"/>
      <point x="449" y="823" type="curve" smooth="yes"/>
      <point x="561" y="823"/>
      <point x="631" y="735"/>
      <point x="631" y="590" type="curve" smooth="yes"/>
      <point x="631" y="483"/>
      <point x="593" y="400"/>
      <point x="514" y="334" type="curve"/>
      <point x="483" y="338"/>
      <point x="459" y="343"/>
      <point x="443" y="343" type="curve" smooth="yes"/>
      <point x="419" y="343"/>
      <point x="402" y="332"/>
      <point x="402" y="316" type="curve" smooth="yes"/>
      <point x="402" y="301"/>
      <point x="415" y="289"/>
      <point x="435" y="289" type="curve" smooth="yes"/>
      <point x="455" y="289"/>
      <point x="483" y="299"/>
      <point x="515" y="306" type="curve"/>
      <point x="607" y="249"/>
      <point x="648" y="164"/>
      <point x="648" y="46" type="curve" smooth="yes"/>
      <point x="648" y="-116"/>
      <point x="566" y="-208"/>
      <point x="419" y="-208" type="curve" smooth="yes"/>
      <point x="357" y="-208"/>
      <point x="326" y="-193"/>
      <point x="326" y="-166" type="curve" smooth="yes"/>
      <point x="326" y="-136"/>
      <point x="355" y="-102"/>
      <point x="355" y="-59" type="curve" smooth="yes"/>
      <point x="355" y="-18"/>
      <point x="329" y="7"/>
      <point x="284" y="7" type="curve" smooth="yes"/>
      <point x="233" y="7"/>
      <point x="200" y="-28"/>
      <point x="200" y="-81" type="curve" smooth="yes"/>
      <point x="200" y="-176"/>
      <point x="317" y="-248"/>
    </contour>
  </outline>
</glyph>
<glyph name="four" format="2">
  <advance width="1007"/>
  <unicode hex="0034"/>
  <outline>
    <contour>
      <point x="836" y="56" type="line"/>
      <point x="836" y="186" type="line"/>
      <point x="250" y="186" type="line"/>
      <point x="259" y="171" type="line"/>
      <point x="672" y="848" type="line"/>
      <point x="651" y="868" type="line"/>
      <point x="172" y="89" type="line"/>
      <point x="172" y="56" type="line"/>
    </contour>
    <contour>
      <point x="680" y="-233" type="line"/>
      <point x="680" y="868" type="line"/>
      <point x="651" y="868" type="line"/>
      <point x="543" y="663" type="line"/>
      <point x="543" y="-233" type="line"/>
    </contour>
  </outline>
</glyph>
<glyph name="five" format="2">
  <advance width="1007"/>
  <unicode hex="0035"/>
  <outline>
    <contour>
      <point x="472" y="-248" type="curve" smooth="yes"/>
      <point x="650" y="-248"/>
      <point x="789" y="-94"/>
      <point x="789" y="114" type="curve" smooth="yes"/>
      <point x="789" y="320"/>
      <point x="691" y="450"/>
      <point x="520" y="450" type="curve" smooth="yes"/>
      <point x="460" y="450"/>
      <point x="409" y="441"/>
      <point x="340" y="402" type="curve"/>
      <point x="377" y="722" type="line"/>
      <point x="651" y="722" type="line" smooth="yes"/>
      <point x="691" y="722"/>
      <point x="738" y="720"/>
      <point x="752" y="713" type="curve"/>
      <point x="748" y="771"/>
      <point x="747" y="848"/>
      <point x="747" y="989" type="curve"/>
      <point x="715" y="989" type="line"/>
      <point x="708" y="885"/>
      <point x="675" y="849"/>
      <point x="593" y="849" type="curve" smooth="yes"/>
      <point x="362" y="849" type="line"/>
      <point x="307" y="365" type="line"/>
      <point x="313" y="367" type="line"/>
      <point x="345" y="385"/>
      <point x="386" y="406"/>
      <point x="433" y="406" type="curve" smooth="yes"/>
      <point x="555" y="406"/>
      <point x="630" y="298"/>
      <point x="630" y="112" type="curve" smooth="yes"/>
      <point x="630" y="-86"/>
      <point x="555" y="-210"/>
      <point x="437" y="-210" type="curve" smooth="yes"/>
      <point x="370" y="-210"/>
      <point x="337" y="-176"/>
      <point x="337" y="-120" type="curve" smooth="yes"/>
      <point x="337" y="-67"/>
      <point x="373" y="-49"/>
      <point x="373" y="-2" type="curve" smooth="yes"/>
      <point x="373" y="39"/>
      <point x="348" y="65"/>
      <point x="303" y="65" type="curve" smooth="yes"/>
      <point x="249" y="65"/>
      <point x="218" y="27"/>
      <point x="218" y="-34" type="curve" smooth="yes"/>
      <point x="218" y="-153"/>
      <point x="330" y="-248"/>
    </contour>
    <contour>
      <point x="288" y="309" type="curve" smooth="yes"/>
      <point x="317" y="309"/>
      <point x="336" y="341"/>
      <point x="336" y="387" type="curve"/>
      <point x="339" y="403" type="line"/>
      <point x="291" y="385"/>
      <point x="268" y="359"/>
      <point x="268" y="333" type="curve" smooth="yes"/>
      <point x="268" y="317"/>
      <point x="275" y="309"/>
    </contour>
  </outline>
</glyph>
<glyph name="six" format="2">
  <advance width="1007"/>
  <unicode hex="0036"/>
  <outline>
    <contour>
      <point x="511" y="-23" type="curve" smooth="yes"/>
      <point x="692" y="-23"/>
      <point x="808" y="132"/>
      <point x="808" y="373" type="curve" smooth="yes"/>
      <point x="808" y="594"/>
      <point x="712" y="740"/>
      <point x="564" y="740" type="curve" smooth="yes"/>
      <point x="454" y="740"/>
      <point x="372" y="674"/>
      <point x="347" y="509" type="curve"/>
      <point x="352" y="479" type="line"/>
      <point x="376" y="633"/>
      <point x="435" y="695"/>
      <point x="507" y="695" type="curve" smooth="yes"/>
      <point x="595" y="695"/>
      <point x="649" y="565"/>
      <point x="649" y="350" type="curve" smooth="yes"/>
      <point x="649" y="137"/>
      <point x="598" y="7"/>
      <point x="515" y="7" type="curve" smooth="yes"/>
      <point x="418" y="7"/>
      <point x="359" y="201"/>
      <point x="359" y="539" type="curve" smooth="yes"/>
      <point x="359" y="948"/>
      <point x="433" y="1160"/>
      <point x="579" y="1160" type="curve" smooth="yes"/>
      <point x="631" y="1160"/>
      <point x="670" y="1132"/>
      <point x="670" y="1095" type="curve" smooth="yes"/>
      <point x="670" y="1062"/>
      <point x="645" y="1032"/>
      <point x="645" y="991" type="curve" smooth="yes"/>
      <point x="645" y="949"/>
      <point x="674" y="922"/>
      <point x="717" y="922" type="curve" smooth="yes"/>
      <point x="767" y="922"/>
      <point x="798" y="956"/>
      <point x="798" y="1007" type="curve" smooth="yes"/>
      <point x="798" y="1109"/>
      <point x="684" y="1192"/>
      <point x="558" y="1192" type="curve" smooth="yes"/>
      <point x="341" y="1192"/>
      <point x="200" y="929"/>
      <point x="200" y="525" type="curve" smooth="yes"/>
      <point x="200" y="169"/>
      <point x="310" y="-23"/>
    </contour>
  </outline>
</glyph>
<glyph name="seven" format="2">
  <advance width="1007"/>
  <unicode hex="0037"/>
  <outline>
    <contour>
      <point x="474" y="-244" type="curve" smooth="yes"/>
      <point x="520" y="-244"/>
      <point x="548" y="-210"/>
      <point x="548" y="-160" type="curve" smooth="yes"/>
      <point x="548" y="-126"/>
      <point x="542" y="-83"/>
      <point x="542" y="-30" type="curve" smooth="yes"/>
      <point x="542" y="350"/>
      <point x="697" y="591"/>
      <point x="783" y="818" type="curve"/>
      <point x="783" y="849" type="line"/>
      <point x="341" y="849" type="line" smooth="yes"/>
      <point x="297" y="849"/>
      <point x="239" y="851"/>
      <point x="224" y="857" type="curve"/>
      <point x="228" y="804"/>
      <point x="229" y="731"/>
      <point x="229" y="581" type="curve"/>
      <point x="261" y="581" type="line"/>
      <point x="268" y="686"/>
      <point x="302" y="722"/>
      <point x="383" y="722" type="curve" smooth="yes"/>
      <point x="716" y="722" type="line"/>
      <point x="716" y="716" type="line"/>
      <point x="622" y="552"/>
      <point x="401" y="223"/>
      <point x="401" y="-152" type="curve" smooth="yes"/>
      <point x="401" y="-199"/>
      <point x="423" y="-244"/>
    </contour>
  </outline>
</glyph>
<glyph name="eight" format="2">
  <advance width="1007"/>
  <unicode hex="0038"/>
  <outline>
    <contour>
      <point x="493" y="-23" type="curve" smooth="yes"/>
      <point x="678" y="-23"/>
      <point x="807" y="108"/>
      <point x="807" y="294" type="curve" smooth="yes"/>
      <point x="807" y="628"/>
      <point x="385" y="667"/>
      <point x="385" y="996" type="curve" smooth="yes"/>
      <point x="385" y="1094"/>
      <point x="430" y="1161"/>
      <point x="491" y="1161" type="curve" smooth="yes"/>
      <point x="572" y="1161"/>
      <point x="632" y="1064"/>
      <point x="632" y="930" type="curve" smooth="yes"/>
      <point x="632" y="838"/>
      <point x="598" y="737"/>
      <point x="538" y="668" type="curve"/>
      <point x="559" y="655" type="line"/>
      <point x="694" y="752"/>
      <point x="761" y="851"/>
      <point x="761" y="961" type="curve" smooth="yes"/>
      <point x="761" y="1096"/>
      <point x="660" y="1192"/>
      <point x="516" y="1192" type="curve" smooth="yes"/>
      <point x="362" y="1192"/>
      <point x="255" y="1085"/>
      <point x="255" y="926" type="curve" smooth="yes"/>
      <point x="255" y="617"/>
      <point x="666" y="560"/>
      <point x="666" y="222" type="curve" smooth="yes"/>
      <point x="666" y="97"/>
      <point x="604" y="7"/>
      <point x="517" y="7" type="curve" smooth="yes"/>
      <point x="418" y="7"/>
      <point x="343" y="124"/>
      <point x="343" y="286" type="curve" smooth="yes"/>
      <point x="343" y="411"/>
      <point x="389" y="533"/>
      <point x="468" y="604" type="curve"/>
      <point x="450" y="619" type="line"/>
      <point x="291" y="533"/>
      <point x="200" y="401"/>
      <point x="200" y="258" type="curve" smooth="yes"/>
      <point x="200" y="95"/>
      <point x="321" y="-23"/>
    </contour>
  </outline>
  <guideline angle="90" x="566" y="0"/>
</glyph>
<glyph name="nine" format="2">
  <advance width="1007"/>
  <unicode hex="0039"/>
  <outline>
    <contour>
      <point x="459" y="-248" type="curve" smooth="yes"/>
      <point x="674" y="-248"/>
      <point x="808" y="-19"/>
      <point x="808" y="347" type="curve" smooth="yes"/>
      <point x="808" y="683"/>
      <point x="693" y="874"/>
      <point x="488" y="874" type="curve" smooth="yes"/>
      <point x="315" y="874"/>
      <point x="200" y="735"/>
      <point x="200" y="526" type="curve" smooth="yes"/>
      <point x="200" y="335"/>
      <point x="300" y="206"/>
      <point x="454" y="206" type="curve" smooth="yes"/>
      <point x="568" y="206"/>
      <point x="648" y="278"/>
      <point x="664" y="396" type="curve"/>
      <point x="659" y="426" type="line"/>
      <point x="649" y="322"/>
      <point x="588" y="254"/>
      <point x="505" y="254" type="curve" smooth="yes"/>
      <point x="410" y="254"/>
      <point x="359" y="350"/>
      <point x="359" y="534" type="curve" smooth="yes"/>
      <point x="359" y="721"/>
      <point x="411" y="843"/>
      <point x="486" y="843" type="curve" smooth="yes"/>
      <point x="587" y="843"/>
      <point x="649" y="645"/>
      <point x="649" y="311" type="curve" smooth="yes"/>
      <point x="649" y="-41"/>
      <point x="580" y="-216"/>
      <point x="440" y="-216" type="curve" smooth="yes"/>
      <point x="381" y="-216"/>
      <point x="338" y="-185"/>
      <point x="338" y="-143" type="curve" smooth="yes"/>
      <point x="338" y="-110"/>
      <point x="362" y="-80"/>
      <point x="362" y="-38" type="curve" smooth="yes"/>
      <point x="362" y="4"/>
      <point x="334" y="31"/>
      <point x="291" y="31" type="curve" smooth="yes"/>
      <point x="242" y="31"/>
      <point x="210" y="-2"/>
      <point x="210" y="-56" type="curve" smooth="yes"/>
      <point x="210" y="-160"/>
      <point x="325" y="-248"/>
    </contour>
  </outline>
</glyph>
<glyph name="colon" format="2">
  <advance width="500"/>
  <unicode hex="003A"/>
  <anchor x="294" y="0" name="_Ldot"/>
  <outline>
    <contour>
      <point x="250" y="655" type="curve" smooth="yes"/>
      <point x="303" y="655"/>
      <point x="351" y="706"/>
      <point x="351" y="764" type="curve" smooth="yes"/>
      <point x="351" y="822"/>
      <point x="303" y="874"/>
      <point x="250" y="874" type="curve" smooth="yes"/>
      <point x="197" y="874"/>
      <point x="149" y="822"/>
      <point x="149" y="764" type="curve" smooth="yes"/>
      <point x="149" y="706"/>
      <point x="197" y="655"/>
    </contour>
    <contour>
      <point x="250" y="-23" type="curve" smooth="yes"/>
      <point x="303" y="-23"/>
      <point x="351" y="28"/>
      <point x="351" y="86" type="curve" smooth="yes"/>
      <point x="351" y="144"/>
      <point x="303" y="196"/>
      <point x="250" y="196" type="curve" smooth="yes"/>
      <point x="197" y="196"/>
      <point x="149" y="144"/>
      <point x="149" y="86" type="curve" smooth="yes"/>
      <point x="149" y="28"/>
      <point x="197" y="-23"/>
    </contour>
  </outline>
</glyph>
<glyph name="semicolon" format="2">
  <advance width="488"/>
  <unicode hex="003B"/>
  <anchor x="276" y="678" name="_Ldot"/>
  <outline>
    <contour>
      <point x="185" y="-231" type="line"/>
      <point x="275" y="-203"/>
      <point x="352" y="-114"/>
      <point x="352" y="26" type="curve" smooth="yes"/>
      <point x="352" y="133"/>
      <point x="307" y="196"/>
      <point x="238" y="196" type="curve" smooth="yes"/>
      <point x="179" y="196"/>
      <point x="136" y="153"/>
      <point x="136" y="93" type="curve" smooth="yes"/>
      <point x="136" y="36"/>
      <point x="176" y="-4"/>
      <point x="220" y="-4" type="curve" smooth="yes"/>
      <point x="248" y="-4"/>
      <point x="269" y="11"/>
      <point x="285" y="11" type="curve" smooth="yes"/>
      <point x="305" y="11"/>
      <point x="316" y="-5"/>
      <point x="316" y="-35" type="curve" smooth="yes"/>
      <point x="316" y="-105"/>
      <point x="254" y="-184"/>
      <point x="174" y="-208" type="curve"/>
    </contour>
    <contour>
      <point x="247" y="655" type="curve" smooth="yes"/>
      <point x="300" y="655"/>
      <point x="348" y="706"/>
      <point x="348" y="764" type="curve" smooth="yes"/>
      <point x="348" y="822"/>
      <point x="300" y="874"/>
      <point x="247" y="874" type="curve" smooth="yes"/>
      <point x="194" y="874"/>
      <point x="146" y="822"/>
      <point x="146" y="764" type="curve" smooth="yes"/>
      <point x="146" y="706"/>
      <point x="194" y="655"/>
    </contour>
  </outline>
</glyph>
<glyph name="less" format="2">
  <advance width="1007"/>
  <unicode hex="003C"/>
  <outline>
    <contour>
      <point x="914" y="246" type="line"/>
      <point x="185" y="586" type="line"/>
      <point x="914" y="927" type="line"/>
      <point x="897" y="961" type="line"/>
      <point x="93" y="586" type="line"/>
      <point x="897" y="211" type="line"/>
    </contour>
  </outline>
</glyph>
<glyph name="greater" format="2">
  <advance width="1007"/>
  <unicode hex="003E"/>
  <outline>
    <contour>
      <point x="110" y="211" type="line"/>
      <point x="914" y="586" type="line"/>
      <point x="110" y="961" type="line"/>
      <point x="93" y="927" type="line"/>
      <point x="822" y="586" type="line"/>
      <point x="93" y="246" type="line"/>
    </contour>
  </outline>
</glyph>
<glyph name="question" format="2">
  <advance width="945"/>
  <unicode hex="003F"/>
  <anchor x="559" y="0" name="_Ldot"/>
  <outline>
    <contour>
      <point x="431" y="386" type="line"/>
      <point x="431" y="635" type="line"/>
      <point x="634" y="701"/>
      <point x="756" y="823"/>
      <point x="756" y="1000" type="curve" smooth="yes"/>
      <point x="756" y="1172"/>
      <point x="636" y="1292"/>
      <point x="443" y="1292" type="curve" smooth="yes"/>
      <point x="304" y="1292"/>
      <point x="190" y="1207"/>
      <point x="190" y="1098" type="curve" smooth="yes"/>
      <point x="190" y="1045"/>
      <point x="218" y="1011"/>
      <point x="266" y="1011" type="curve" smooth="yes"/>
      <point x="309" y="1011"/>
      <point x="335" y="1037"/>
      <point x="335" y="1080" type="curve" smooth="yes"/>
      <point x="335" y="1125"/>
      <point x="310" y="1160"/>
      <point x="310" y="1187" type="curve" smooth="yes"/>
      <point x="310" y="1231"/>
      <point x="376" y="1259"/>
      <point x="428" y="1259" type="curve" smooth="yes"/>
      <point x="560" y="1259"/>
      <point x="609" y="1123"/>
      <point x="609" y="991" type="curve" smooth="yes"/>
      <point x="609" y="850"/>
      <point x="554" y="719"/>
      <point x="400" y="650" type="curve"/>
      <point x="400" y="386" type="line"/>
    </contour>
    <contour>
      <point x="415" y="-23" type="curve" smooth="yes"/>
      <point x="468" y="-23"/>
      <point x="516" y="28"/>
      <point x="516" y="86" type="curve" smooth="yes"/>
      <point x="516" y="144"/>
      <point x="468" y="196"/>
      <point x="415" y="196" type="curve" smooth="yes"/>
      <point x="362" y="196"/>
      <point x="314" y="144"/>
      <point x="314" y="86" type="curve" smooth="yes"/>
      <point x="314" y="28"/>
      <point x="362" y="-23"/>
    </contour>
  </outline>
</glyph>
<glyph name="at" format="2">
  <advance width="1527"/>
  <unicode hex="0040"/>
  <outline>
    <contour>
      <point x="582" y="-266" type="curve" smooth="yes"/>
      <point x="724" y="-266"/>
      <point x="852" y="-225"/>
      <point x="946" y="-149" type="curve"/>
      <point x="935" y="-129" type="line"/>
      <point x="832" y="-205"/>
      <point x="716" y="-240"/>
      <point x="580" y="-240" type="curve" smooth="yes"/>
      <point x="331" y="-240"/>
      <point x="199" y="-97"/>
      <point x="199" y="174" type="curve" smooth="yes"/>
      <point x="199" y="638"/>
      <point x="583" y="1078"/>
      <point x="977" y="1078" type="curve" smooth="yes"/>
      <point x="1192" y="1078"/>
      <point x="1331" y="930"/>
      <point x="1331" y="699" type="curve" smooth="yes"/>
      <point x="1331" y="380"/>
      <point x="1095" y="83"/>
      <point x="934" y="83" type="curve" smooth="yes"/>
      <point x="913" y="83"/>
      <point x="890" y="95"/>
      <point x="901" y="135" type="curve" smooth="yes"/>
      <point x="1041" y="642" type="line" smooth="yes"/>
      <point x="1058" y="704"/>
      <point x="1076" y="739"/>
      <point x="1112" y="774" type="curve"/>
      <point x="1095" y="796" type="line"/>
      <point x="1047" y="742"/>
      <point x="971" y="690"/>
      <point x="907" y="671" type="curve"/>
      <point x="769" y="178" type="line" smooth="yes"/>
      <point x="754" y="126"/>
      <point x="767" y="43"/>
      <point x="880" y="43" type="curve" smooth="yes"/>
      <point x="1125" y="43"/>
      <point x="1360" y="375"/>
      <point x="1360" y="698" type="curve" smooth="yes"/>
      <point x="1360" y="947"/>
      <point x="1212" y="1103"/>
      <point x="979" y="1103" type="curve" smooth="yes"/>
      <point x="566" y="1103"/>
      <point x="168" y="652"/>
      <point x="168" y="174" type="curve" smooth="yes"/>
      <point x="168" y="-114"/>
      <point x="310" y="-266"/>
    </contour>
    <contour>
      <point x="607" y="43" type="curve" smooth="yes"/>
      <point x="685" y="43"/>
      <point x="745" y="85"/>
      <point x="777" y="151" type="curve"/>
      <point x="777" y="173" type="line"/>
      <point x="756" y="132"/>
      <point x="727" y="114"/>
      <point x="689" y="114" type="curve" smooth="yes"/>
      <point x="612" y="114"/>
      <point x="580" y="163"/>
      <point x="584" y="282" type="curve" smooth="yes"/>
      <point x="591" y="523"/>
      <point x="694" y="760"/>
      <point x="786" y="760" type="curve" smooth="yes"/>
      <point x="857" y="760"/>
      <point x="885" y="697"/>
      <point x="888" y="601" type="curve"/>
      <point x="987" y="647" type="line"/>
      <point x="939" y="739"/>
      <point x="867" y="789"/>
      <point x="798" y="789" type="curve" smooth="yes"/>
      <point x="632" y="789"/>
      <point x="443" y="528"/>
      <point x="435" y="283" type="curve" smooth="yes"/>
      <point x="430" y="130"/>
      <point x="494" y="43"/>
    </contour>
  </outline>
  <guideline angle="74.5104" x="933" y="274"/>
</glyph>
<glyph name="A" format="2">
  <advance width="1420"/>
  <unicode hex="0041"/>
  <anchor x="708" y="0" name="bottom"/>
  <anchor x="1219" y="0" name="ogonek"/>
  <anchor x="711" y="1169" name="top"/>
  <outline>
    <contour>
      <point x="8" y="0" type="line"/>
      <point x="113" y="3"/>
      <point x="150" y="5"/>
      <point x="206" y="5" type="curve" smooth="yes"/>
      <point x="306" y="5"/>
      <point x="408" y="1"/>
      <point x="470" y="0" type="curve"/>
      <point x="470" y="31" type="line"/>
      <point x="291" y="27"/>
      <point x="238" y="147"/>
      <point x="346" y="378" type="curve" smooth="yes"/>
      <point x="374" y="438" type="line"/>
      <point x="915" y="438" type="line"/>
      <point x="1036" y="177" type="line" smooth="yes"/>
      <point x="1087" y="68"/>
      <point x="1057" y="34"/>
      <point x="870" y="31" type="curve"/>
      <point x="870" y="0" type="line"/>
      <point x="928" y="2"/>
      <point x="1034" y="5"/>
      <point x="1164" y="5" type="curve" smooth="yes"/>
      <point x="1249" y="5"/>
      <point x="1337" y="2"/>
      <point x="1409" y="0" type="curve"/>
      <point x="1409" y="31" type="line"/>
      <point x="1302" y="38"/>
      <point x="1245" y="74"/>
      <point x="1211" y="147" type="curve" smooth="yes"/>
      <point x="727" y="1188" type="line"/>
      <point x="677" y="1188" type="line"/>
      <point x="217" y="166" type="line" smooth="yes"/>
      <point x="174" y="71"/>
      <point x="111" y="42"/>
      <point x="8" y="31" type="curve"/>
    </contour>
    <contour>
      <point x="389" y="469" type="line"/>
      <point x="651" y="1054" type="line"/>
      <point x="902" y="469" type="line"/>
    </contour>
  </outline>
</glyph>
<glyph name="B" format="2">
  <advance width="1378"/>
  <unicode hex="0042"/>
  <anchor x="710" y="0" name="bottom"/>
  <anchor x="710" y="1169" name="top"/>
  <outline>
    <contour>
      <point x="96" y="0" type="line"/>
      <point x="148" y="4"/>
      <point x="244" y="5"/>
      <point x="376" y="5" type="curve" smooth="yes"/>
      <point x="527" y="5"/>
      <point x="683" y="0"/>
      <point x="751" y="0" type="curve" smooth="yes"/>
      <point x="1083" y="0"/>
      <point x="1280" y="119"/>
      <point x="1280" y="322" type="curve" smooth="yes"/>
      <point x="1280" y="509"/>
      <point x="1119" y="603"/>
      <point x="784" y="613" type="curve"/>
      <point x="784" y="615" type="line"/>
      <point x="1049" y="667"/>
      <point x="1160" y="742"/>
      <point x="1160" y="903" type="curve" smooth="yes"/>
      <point x="1160" y="1072"/>
      <point x="994" y="1169"/>
      <point x="711" y="1169" type="curve" smooth="yes"/>
      <point x="660" y="1169"/>
      <point x="506" y="1167"/>
      <point x="378" y="1167" type="curve" smooth="yes"/>
      <point x="249" y="1167"/>
      <point x="153" y="1167"/>
      <point x="96" y="1169" type="curve"/>
      <point x="96" y="1139" type="line"/>
      <point x="281" y="1132"/>
      <point x="310" y="1112"/>
      <point x="310" y="997" type="curve" smooth="yes"/>
      <point x="310" y="173" type="line" smooth="yes"/>
      <point x="310" y="60"/>
      <point x="281" y="37"/>
      <point x="96" y="31" type="curve"/>
    </contour>
    <contour>
      <point x="653" y="36" type="curve" smooth="yes"/>
      <point x="492" y="36"/>
      <point x="465" y="55"/>
      <point x="465" y="166" type="curve" smooth="yes"/>
      <point x="465" y="1136" type="line"/>
      <point x="655" y="1137" type="line" smooth="yes"/>
      <point x="894" y="1136"/>
      <point x="999" y="1062"/>
      <point x="999" y="886" type="curve" smooth="yes"/>
      <point x="999" y="715"/>
      <point x="880" y="622"/>
      <point x="653" y="622" type="curve" smooth="yes"/>
      <point x="443" y="622" type="line"/>
      <point x="443" y="592" type="line"/>
      <point x="724" y="592" type="line" smooth="yes"/>
      <point x="981" y="592"/>
      <point x="1114" y="503"/>
      <point x="1114" y="329" type="curve" smooth="yes"/>
      <point x="1114" y="134"/>
      <point x="963" y="36"/>
    </contour>
  </outline>
</glyph>
<glyph name="C" format="2">
  <advance width="1371"/>
  <unicode hex="0043"/>
  <anchor x="729" y="0" name="bottom"/>
  <anchor x="271" y="585" name="middlestroke"/>
  <anchor x="706" y="1169" name="top"/>
  <outline>
    <contour>
      <point x="704" y="-23" type="curve" smooth="yes"/>
      <point x="921" y="-23"/>
      <point x="1055" y="72"/>
      <point x="1131" y="72" type="curve" smooth="yes"/>
      <point x="1172" y="72"/>
      <point x="1192" y="48"/>
      <point x="1206" y="-19" type="curve"/>
      <point x="1237" y="-19" type="line"/>
      <point x="1232" y="78"/>
      <point x="1231" y="177"/>
      <point x="1231" y="404" type="curve"/>
      <point x="1199" y="404" type="line"/>
      <point x="1144" y="130"/>
      <point x="966" y="5"/>
      <point x="723" y="5" type="curve" smooth="yes"/>
      <point x="441" y="5"/>
      <point x="272" y="223"/>
      <point x="272" y="589" type="curve" smooth="yes"/>
      <point x="272" y="950"/>
      <point x="439" y="1164"/>
      <point x="723" y="1164" type="curve" smooth="yes"/>
      <point x="965" y="1164"/>
      <point x="1142" y="1029"/>
      <point x="1197" y="765" type="curve"/>
      <point x="1229" y="765" type="line"/>
      <point x="1229" y="1007"/>
      <point x="1231" y="1103"/>
      <point x="1236" y="1188" type="curve"/>
      <point x="1205" y="1188" type="line"/>
      <point x="1191" y="1122"/>
      <point x="1172" y="1095"/>
      <point x="1129" y="1095" type="curve" smooth="yes"/>
      <point x="1059" y="1095"/>
      <point x="920" y="1192"/>
      <point x="716" y="1192" type="curve" smooth="yes"/>
      <point x="357" y="1192"/>
      <point x="107" y="939"/>
      <point x="107" y="566" type="curve" smooth="yes"/>
      <point x="107" y="213"/>
      <point x="343" y="-23"/>
    </contour>
  </outline>
</glyph>
<glyph name="D" format="2">
  <advance width="1581"/>
  <unicode hex="0044"/>
  <anchor x="766" y="0" name="bottom"/>
  <anchor x="427" y="588" name="center"/>
  <anchor x="823" y="1169" name="top"/>
  <outline>
    <contour>
      <point x="95" y="0" type="line"/>
      <point x="131" y="1"/>
      <point x="258" y="5"/>
      <point x="393" y="5" type="curve" smooth="yes"/>
      <point x="520" y="5"/>
      <point x="615" y="0"/>
      <point x="684" y="0" type="curve" smooth="yes"/>
      <point x="1177" y="0"/>
      <point x="1466" y="205"/>
      <point x="1466" y="607" type="curve" smooth="yes"/>
      <point x="1466" y="974"/>
      <point x="1214" y="1169"/>
      <point x="693" y="1169" type="curve" smooth="yes"/>
      <point x="625" y="1169"/>
      <point x="508" y="1167"/>
      <point x="389" y="1167" type="curve" smooth="yes"/>
      <point x="258" y="1167"/>
      <point x="164" y="1169"/>
      <point x="95" y="1169" type="curve"/>
      <point x="95" y="1139" type="line"/>
      <point x="285" y="1135"/>
      <point x="306" y="1104"/>
      <point x="306" y="997" type="curve" smooth="yes"/>
      <point x="306" y="173" type="line" smooth="yes"/>
      <point x="306" y="63"/>
      <point x="285" y="34"/>
      <point x="95" y="31" type="curve"/>
    </contour>
    <contour>
      <point x="650" y="30" type="curve" smooth="yes"/>
      <point x="487" y="30"/>
      <point x="461" y="47"/>
      <point x="461" y="169" type="curve" smooth="yes"/>
      <point x="461" y="1139" type="line"/>
      <point x="652" y="1139" type="line" smooth="yes"/>
      <point x="1102" y="1139"/>
      <point x="1301" y="974"/>
      <point x="1301" y="589" type="curve" smooth="yes"/>
      <point x="1301" y="206"/>
      <point x="1108" y="30"/>
    </contour>
  </outline>
</glyph>
<glyph name="E" format="2">
  <advance width="1276"/>
  <unicode hex="0045"/>
  <anchor x="668" y="0" name="bottom"/>
  <anchor x="1058" y="0" name="ogonek"/>
  <anchor x="615" y="1169" name="top"/>
  <outline>
    <contour>
      <point x="86" y="0" type="line"/>
      <point x="211" y="3"/>
      <point x="409" y="5"/>
      <point x="670" y="5" type="curve" smooth="yes"/>
      <point x="861" y="5"/>
      <point x="1005" y="3"/>
      <point x="1128" y="0" type="curve"/>
      <point x="1125" y="96"/>
      <point x="1133" y="219"/>
      <point x="1156" y="388" type="curve"/>
      <point x="1125" y="388" type="line"/>
      <point x="1034" y="109"/>
      <point x="944" y="36"/>
      <point x="670" y="36" type="curve" smooth="yes"/>
      <point x="598" y="36" type="line" smooth="yes"/>
      <point x="452" y="36"/>
      <point x="428" y="53"/>
      <point x="428" y="173" type="curve" smooth="yes"/>
      <point x="428" y="1134" type="line"/>
      <point x="744" y="1134" type="line" smooth="yes"/>
      <point x="910" y="1134"/>
      <point x="970" y="1069"/>
      <point x="1045" y="867" type="curve"/>
      <point x="1077" y="867" type="line"/>
      <point x="1056" y="994"/>
      <point x="1047" y="1098"/>
      <point x="1050" y="1169" type="curve"/>
      <point x="930" y="1163"/>
      <point x="771" y="1164"/>
      <point x="670" y="1164" type="curve" smooth="yes"/>
      <point x="408" y="1164"/>
      <point x="210" y="1166"/>
      <point x="86" y="1169" type="curve"/>
      <point x="86" y="1139" type="line"/>
      <point x="249" y="1132"/>
      <point x="274" y="1112"/>
      <point x="274" y="997" type="curve" smooth="yes"/>
      <point x="274" y="173" type="line" smooth="yes"/>
      <point x="274" y="60"/>
      <point x="249" y="37"/>
      <point x="86" y="31" type="curve"/>
    </contour>
    <contour>
      <point x="758" y="573" type="line"/>
      <point x="758" y="604" type="line"/>
      <point x="368" y="604" type="line"/>
      <point x="368" y="573" type="line"/>
    </contour>
    <contour>
      <point x="859" y="341" type="line"/>
      <point x="850" y="507"/>
      <point x="848" y="547"/>
      <point x="848" y="588" type="curve" smooth="yes"/>
      <point x="848" y="649"/>
      <point x="845" y="703"/>
      <point x="853" y="835" type="curve"/>
      <point x="826" y="835" type="line"/>
      <point x="803" y="671"/>
      <point x="746" y="604"/>
      <point x="591" y="604" type="curve"/>
      <point x="591" y="573" type="line"/>
      <point x="758" y="573"/>
      <point x="811" y="522"/>
      <point x="831" y="341" type="curve"/>
    </contour>
  </outline>
</glyph>
<glyph name="F" format="2">
  <advance width="1115"/>
  <unicode hex="0046"/>
  <anchor x="343" y="0" name="bottom"/>
  <anchor x="414" y="235" name="center"/>
  <anchor x="589" y="1169" name="top"/>
  <outline>
    <contour>
      <point x="84" y="0" type="line"/>
      <point x="134" y="2"/>
      <point x="223" y="5"/>
      <point x="344" y="5" type="curve" smooth="yes"/>
      <point x="487" y="5"/>
      <point x="593" y="4"/>
      <point x="650" y="0" type="curve"/>
      <point x="650" y="31" type="line"/>
      <point x="449" y="47"/>
      <point x="420" y="71"/>
      <point x="420" y="173" type="curve" smooth="yes"/>
      <point x="420" y="1134" type="line"/>
      <point x="722" y="1134" type="line" smooth="yes"/>
      <point x="882" y="1134"/>
      <point x="944" y="1052"/>
      <point x="1014" y="831" type="curve"/>
      <point x="1046" y="831" type="line"/>
      <point x="1026" y="976"/>
      <point x="1016" y="1090"/>
      <point x="1018" y="1169" type="curve"/>
      <point x="905" y="1163"/>
      <point x="755" y="1164"/>
      <point x="652" y="1164" type="curve" smooth="yes"/>
      <point x="395" y="1164"/>
      <point x="202" y="1166"/>
      <point x="84" y="1169" type="curve"/>
      <point x="84" y="1139" type="line"/>
      <point x="242" y="1132"/>
      <point x="266" y="1112"/>
      <point x="266" y="997" type="curve" smooth="yes"/>
      <point x="266" y="173" type="line" smooth="yes"/>
      <point x="266" y="60"/>
      <point x="242" y="47"/>
      <point x="84" y="31" type="curve"/>
    </contour>
    <contour>
      <point x="734" y="557" type="line"/>
      <point x="734" y="587" type="line"/>
      <point x="362" y="587" type="line"/>
      <point x="362" y="557" type="line"/>
    </contour>
    <contour>
      <point x="835" y="291" type="line"/>
      <point x="826" y="448"/>
      <point x="824" y="503"/>
      <point x="824" y="571" type="curve" smooth="yes"/>
      <point x="824" y="632"/>
      <point x="820" y="688"/>
      <point x="829" y="819" type="curve"/>
      <point x="802" y="819" type="line"/>
      <point x="779" y="655"/>
      <point x="725" y="587"/>
      <point x="577" y="587" type="curve"/>
      <point x="577" y="557" type="line"/>
      <point x="736" y="557"/>
      <point x="787" y="497"/>
      <point x="807" y="291" type="curve"/>
    </contour>
  </outline>
</glyph>
<glyph name="G" format="2">
  <advance width="1539"/>
  <unicode hex="0047"/>
  <anchor x="770" y="0" name="bottom"/>
  <anchor x="738" y="1169" name="top"/>
  <outline>
    <contour>
      <point x="740" y="-23" type="curve" smooth="yes"/>
      <point x="978" y="-23"/>
      <point x="1101" y="65"/>
      <point x="1180" y="65" type="curve" smooth="yes"/>
      <point x="1221" y="65"/>
      <point x="1245" y="38"/>
      <point x="1261" y="-17" type="curve"/>
      <point x="1292" y="-17" type="line"/>
      <point x="1292" y="350" type="line" smooth="yes"/>
      <point x="1292" y="472"/>
      <point x="1305" y="485"/>
      <point x="1423" y="492" type="curve"/>
      <point x="1423" y="523" type="line"/>
      <point x="1368" y="520"/>
      <point x="1291" y="518"/>
      <point x="1191" y="518" type="curve" smooth="yes"/>
      <point x="1064" y="518"/>
      <point x="973" y="521"/>
      <point x="937" y="523" type="curve"/>
      <point x="937" y="492" type="line"/>
      <point x="1102" y="489"/>
      <point x="1137" y="463"/>
      <point x="1137" y="337" type="curve" smooth="yes"/>
      <point x="1137" y="279" type="line" smooth="yes"/>
      <point x="1137" y="119"/>
      <point x="998" y="5"/>
      <point x="759" y="5" type="curve" smooth="yes"/>
      <point x="456" y="5"/>
      <point x="276" y="223"/>
      <point x="276" y="588" type="curve" smooth="yes"/>
      <point x="276" y="950"/>
      <point x="453" y="1164"/>
      <point x="753" y="1164" type="curve" smooth="yes"/>
      <point x="1010" y="1164"/>
      <point x="1195" y="1032"/>
      <point x="1257" y="765" type="curve"/>
      <point x="1289" y="765" type="line"/>
      <point x="1289" y="1010"/>
      <point x="1291" y="1103"/>
      <point x="1296" y="1188" type="curve"/>
      <point x="1265" y="1188" type="line"/>
      <point x="1249" y="1121"/>
      <point x="1230" y="1095"/>
      <point x="1185" y="1095" type="curve" smooth="yes"/>
      <point x="1119" y="1095"/>
      <point x="959" y="1192"/>
      <point x="750" y="1192" type="curve" smooth="yes"/>
      <point x="373" y="1192"/>
      <point x="111" y="939"/>
      <point x="111" y="566" type="curve" smooth="yes"/>
      <point x="111" y="207"/>
      <point x="359" y="-23"/>
    </contour>
  </outline>
</glyph>
<glyph name="H" format="2">
  <advance width="1666"/>
  <unicode hex="0048"/>
  <anchor x="835" y="0" name="bottom"/>
  <anchor x="1574" y="0" name="bottomright"/>
  <anchor x="835" y="849" name="center"/>
  <anchor x="838" y="1169" name="top"/>
  <anchor x="93" y="1169" name="topleft"/>
  <outline>
    <contour>
      <point x="1012" y="0" type="line"/>
      <point x="1078" y="3"/>
      <point x="1185" y="5"/>
      <point x="1286" y="5" type="curve" smooth="yes"/>
      <point x="1408" y="5"/>
      <point x="1510" y="3"/>
      <point x="1574" y="0" type="curve"/>
      <point x="1574" y="31" type="line"/>
      <point x="1379" y="38"/>
      <point x="1367" y="79"/>
      <point x="1367" y="173" type="curve" smooth="yes"/>
      <point x="1367" y="997" type="line" smooth="yes"/>
      <point x="1367" y="1093"/>
      <point x="1378" y="1131"/>
      <point x="1574" y="1139" type="curve"/>
      <point x="1574" y="1169" type="line"/>
      <point x="1510" y="1166"/>
      <point x="1405" y="1164"/>
      <point x="1286" y="1164" type="curve" smooth="yes"/>
      <point x="1186" y="1164"/>
      <point x="1076" y="1166"/>
      <point x="1012" y="1169" type="curve"/>
      <point x="1012" y="1139" type="line"/>
      <point x="1202" y="1131"/>
      <point x="1212" y="1093"/>
      <point x="1212" y="997" type="curve" smooth="yes"/>
      <point x="1212" y="173" type="line" smooth="yes"/>
      <point x="1212" y="51"/>
      <point x="1178" y="38"/>
      <point x="1012" y="31" type="curve"/>
    </contour>
    <contour>
      <point x="93" y="0" type="line"/>
      <point x="153" y="3"/>
      <point x="259" y="5"/>
      <point x="375" y="5" type="curve" smooth="yes"/>
      <point x="478" y="5"/>
      <point x="589" y="3"/>
      <point x="655" y="0" type="curve"/>
      <point x="655" y="31" type="line"/>
      <point x="464" y="38"/>
      <point x="454" y="76"/>
      <point x="454" y="173" type="curve" smooth="yes"/>
      <point x="454" y="997" type="line" smooth="yes"/>
      <point x="454" y="1093"/>
      <point x="464" y="1131"/>
      <point x="655" y="1139" type="curve"/>
      <point x="655" y="1169" type="line"/>
      <point x="589" y="1166"/>
      <point x="478" y="1164"/>
      <point x="375" y="1164" type="curve" smooth="yes"/>
      <point x="259" y="1164"/>
      <point x="153" y="1166"/>
      <point x="93" y="1169" type="curve"/>
      <point x="93" y="1139" type="line"/>
      <point x="289" y="1131"/>
      <point x="300" y="1093"/>
      <point x="300" y="997" type="curve" smooth="yes"/>
      <point x="300" y="173" type="line" smooth="yes"/>
      <point x="300" y="79"/>
      <point x="289" y="38"/>
      <point x="93" y="31" type="curve"/>
    </contour>
    <contour>
      <point x="1266" y="573" type="line"/>
      <point x="1266" y="604" type="line"/>
      <point x="399" y="604" type="line"/>
      <point x="399" y="573" type="line"/>
    </contour>
  </outline>
</glyph>
<glyph name="I" format="2">
  <advance width="737"/>
  <unicode hex="0049"/>
  <anchor x="367" y="0" name="bottom"/>
  <anchor x="91" y="0" name="entry"/>
  <anchor x="647" y="0" name="exit"/>
  <anchor x="598" y="0" name="ogonek"/>
  <anchor x="367" y="1169" name="top"/>
  <outline>
    <contour>
      <point x="91" y="0" type="line"/>
      <point x="148" y="2"/>
      <point x="245" y="5"/>
      <point x="367" y="5" type="curve" smooth="yes"/>
      <point x="483" y="5"/>
      <point x="588" y="2"/>
      <point x="647" y="0" type="curve"/>
      <point x="647" y="31" type="line"/>
      <point x="472" y="38"/>
      <point x="446" y="58"/>
      <point x="446" y="173" type="curve" smooth="yes"/>
      <point x="446" y="997" type="line" smooth="yes"/>
      <point x="446" y="1113"/>
      <point x="472" y="1131"/>
      <point x="647" y="1139" type="curve"/>
      <point x="647" y="1169" type="line"/>
      <point x="588" y="1166"/>
      <point x="483" y="1164"/>
      <point x="367" y="1164" type="curve" smooth="yes"/>
      <point x="245" y="1164"/>
      <point x="148" y="1166"/>
      <point x="91" y="1169" type="curve"/>
      <point x="91" y="1139" type="line"/>
      <point x="265" y="1131"/>
      <point x="291" y="1113"/>
      <point x="291" y="997" type="curve" smooth="yes"/>
      <point x="291" y="173" type="line" smooth="yes"/>
      <point x="291" y="59"/>
      <point x="265" y="38"/>
      <point x="91" y="31" type="curve"/>
    </contour>
  </outline>
</glyph>
<glyph name="J" format="2">
  <advance width="689"/>
  <unicode hex="004A"/>
  <anchor x="367" y="-382" name="bottom"/>
  <anchor x="20" y="0" name="entry"/>
  <anchor x="364" y="1169" name="top"/>
  <outline>
    <contour>
      <point x="-43" y="-395" type="line"/>
      <point x="308" y="-395"/>
      <point x="438" y="-242"/>
      <point x="438" y="213" type="curve" smooth="yes"/>
      <point x="438" y="997" type="line" smooth="yes"/>
      <point x="438" y="1113"/>
      <point x="464" y="1131"/>
      <point x="619" y="1139" type="curve"/>
      <point x="619" y="1169" type="line"/>
      <point x="564" y="1166"/>
      <point x="476" y="1164"/>
      <point x="357" y="1164" type="curve" smooth="yes"/>
      <point x="227" y="1164"/>
      <point x="137" y="1166"/>
      <point x="87" y="1169" type="curve"/>
      <point x="87" y="1139" type="line"/>
      <point x="257" y="1131"/>
      <point x="285" y="1116"/>
      <point x="285" y="997" type="curve" smooth="yes"/>
      <point x="285" y="159" type="line" smooth="yes"/>
      <point x="285" y="-188"/>
      <point x="197" y="-374"/>
      <point x="-43" y="-365" type="curve"/>
    </contour>
  </outline>
  <guideline angle="90" x="0" y="0"/>
</glyph>
<glyph name="K" format="2">
  <advance width="1450"/>
  <unicode hex="004B"/>
  <anchor x="748" y="0" name="bottom"/>
  <anchor x="707" y="1169" name="top"/>
  <outline>
    <contour>
      <point x="903" y="0" type="line"/>
      <point x="954" y="1"/>
      <point x="1025" y="5"/>
      <point x="1140" y="5" type="curve" smooth="yes"/>
      <point x="1239" y="5"/>
      <point x="1317" y="1"/>
      <point x="1394" y="0" type="curve"/>
      <point x="1394" y="31" type="line"/>
      <point x="1290" y="41"/>
      <point x="1246" y="71"/>
      <point x="1174" y="181" type="curve" smooth="yes"/>
      <point x="1012" y="435" type="line" smooth="yes"/>
      <point x="914" y="584"/>
      <point x="858" y="614"/>
      <point x="742" y="647" type="curve"/>
      <point x="749" y="616" type="line"/>
      <point x="1076" y="965" type="line" smooth="yes"/>
      <point x="1164" y="1059"/>
      <point x="1235" y="1124"/>
      <point x="1362" y="1139" type="curve"/>
      <point x="1362" y="1169" type="line"/>
      <point x="1299" y="1166"/>
      <point x="1224" y="1164"/>
      <point x="1128" y="1164" type="curve" smooth="yes"/>
      <point x="1037" y="1164"/>
      <point x="943" y="1169"/>
      <point x="875" y="1169" type="curve"/>
      <point x="875" y="1139" type="line"/>
      <point x="1100" y="1113"/>
      <point x="1146" y="1080"/>
      <point x="973" y="900" type="curve" smooth="yes"/>
      <point x="854" y="776" type="line" smooth="yes"/>
      <point x="746" y="663"/>
      <point x="702" y="610"/>
      <point x="513" y="610" type="curve" smooth="yes"/>
      <point x="406" y="610" type="line"/>
      <point x="406" y="579" type="line"/>
      <point x="513" y="579" type="line" smooth="yes"/>
      <point x="692" y="579"/>
      <point x="749" y="539"/>
      <point x="876" y="352" type="curve" smooth="yes"/>
      <point x="1023" y="136" type="line" smooth="yes"/>
      <point x="1066" y="76"/>
      <point x="1026" y="43"/>
      <point x="903" y="31" type="curve"/>
    </contour>
    <contour>
      <point x="91" y="0" type="line"/>
      <point x="146" y="2"/>
      <point x="243" y="5"/>
      <point x="366" y="5" type="curve" smooth="yes"/>
      <point x="491" y="5"/>
      <point x="584" y="2"/>
      <point x="639" y="0" type="curve"/>
      <point x="639" y="31" type="line"/>
      <point x="473" y="38"/>
      <point x="445" y="60"/>
      <point x="445" y="173" type="curve" smooth="yes"/>
      <point x="445" y="997" type="line" smooth="yes"/>
      <point x="445" y="1111"/>
      <point x="473" y="1131"/>
      <point x="639" y="1139" type="curve"/>
      <point x="639" y="1169" type="line"/>
      <point x="584" y="1167"/>
      <point x="491" y="1164"/>
      <point x="366" y="1164" type="curve" smooth="yes"/>
      <point x="243" y="1164"/>
      <point x="146" y="1167"/>
      <point x="91" y="1169" type="curve"/>
      <point x="91" y="1139" type="line"/>
      <point x="262" y="1131"/>
      <point x="291" y="1111"/>
      <point x="291" y="997" type="curve" smooth="yes"/>
      <point x="291" y="173" type="line" smooth="yes"/>
      <point x="291" y="58"/>
      <point x="263" y="38"/>
      <point x="91" y="31" type="curve"/>
    </contour>
  </outline>
  <guideline angle="0" x="0" y="586"/>
  <guideline angle="0" x="0" y="646"/>
</glyph>
<glyph name="L" format="2">
  <advance width="1249"/>
  <unicode hex="004C"/>
  <anchor x="987" y="519" name="Ldot"/>
  <anchor x="663" y="0" name="bottom"/>
  <anchor x="361" y="589" name="center"/>
  <anchor x="721" y="1169" name="right"/>
  <anchor x="359" y="1169" name="top"/>
  <outline>
    <contour>
      <point x="88" y="0" type="line"/>
      <point x="221" y="3"/>
      <point x="424" y="5"/>
      <point x="690" y="5" type="curve" smooth="yes"/>
      <point x="897" y="5"/>
      <point x="1043" y="3"/>
      <point x="1165" y="0" type="curve"/>
      <point x="1161" y="110"/>
      <point x="1172" y="234"/>
      <point x="1193" y="388" type="curve"/>
      <point x="1162" y="388" type="line"/>
      <point x="1059" y="58"/>
      <point x="947" y="36"/>
      <point x="680" y="36" type="curve" smooth="yes"/>
      <point x="614" y="36" type="line" smooth="yes"/>
      <point x="446" y="36"/>
      <point x="437" y="83"/>
      <point x="437" y="173" type="curve" smooth="yes"/>
      <point x="437" y="997" type="line" smooth="yes"/>
      <point x="437" y="1100"/>
      <point x="471" y="1124"/>
      <point x="673" y="1139" type="curve"/>
      <point x="673" y="1169" type="line"/>
      <point x="618" y="1166"/>
      <point x="513" y="1164"/>
      <point x="359" y="1164" type="curve" smooth="yes"/>
      <point x="222" y="1164"/>
      <point x="131" y="1167"/>
      <point x="88" y="1169" type="curve"/>
      <point x="88" y="1139" type="line"/>
      <point x="257" y="1124"/>
      <point x="283" y="1112"/>
      <point x="283" y="997" type="curve" smooth="yes"/>
      <point x="283" y="173" type="line" smooth="yes"/>
      <point x="283" y="90"/>
      <point x="276" y="41"/>
      <point x="88" y="31" type="curve"/>
    </contour>
  </outline>
  <guideline angle="0" x="0" y="380"/>
</glyph>
<glyph name="M" format="2">
  <advance width="1826"/>
  <unicode hex="004D"/>
  <anchor x="917" y="0" name="bottom"/>
  <anchor x="915" y="1169" name="top"/>
  <outline>
    <contour>
      <point x="901" y="-19" type="line"/>
      <point x="1391" y="1134" type="line"/>
      <point x="1406" y="1134" type="line"/>
      <point x="1406" y="173" type="line" smooth="yes"/>
      <point x="1406" y="49"/>
      <point x="1380" y="35"/>
      <point x="1220" y="31" type="curve"/>
      <point x="1220" y="0" type="line"/>
      <point x="1272" y="2"/>
      <point x="1363" y="5"/>
      <point x="1485" y="5" type="curve" smooth="yes"/>
      <point x="1604" y="5"/>
      <point x="1700" y="2"/>
      <point x="1757" y="0" type="curve"/>
      <point x="1757" y="31" type="line"/>
      <point x="1586" y="38"/>
      <point x="1559" y="63"/>
      <point x="1559" y="173" type="curve" smooth="yes"/>
      <point x="1559" y="997" type="line" smooth="yes"/>
      <point x="1559" y="1109"/>
      <point x="1584" y="1131"/>
      <point x="1757" y="1139" type="curve"/>
      <point x="1757" y="1169" type="line"/>
      <point x="1714" y="1166"/>
      <point x="1620" y="1164"/>
      <point x="1516" y="1164" type="curve" smooth="yes"/>
      <point x="1465" y="1164"/>
      <point x="1413" y="1164"/>
      <point x="1370" y="1169" type="curve"/>
      <point x="923" y="111" type="line"/>
      <point x="947" y="114" type="line"/>
      <point x="458" y="1169" type="line"/>
      <point x="432" y="1166"/>
      <point x="380" y="1164"/>
      <point x="317" y="1164" type="curve" smooth="yes"/>
      <point x="215" y="1164"/>
      <point x="135" y="1164"/>
      <point x="89" y="1169" type="curve"/>
      <point x="89" y="1139" type="line"/>
      <point x="262" y="1131"/>
      <point x="287" y="1109"/>
      <point x="287" y="997" type="curve" smooth="yes"/>
      <point x="287" y="187" type="line" smooth="yes"/>
      <point x="287" y="61"/>
      <point x="253" y="38"/>
      <point x="89" y="31" type="curve"/>
      <point x="89" y="0" type="line"/>
      <point x="131" y="2"/>
      <point x="210" y="5"/>
      <point x="308" y="5" type="curve" smooth="yes"/>
      <point x="421" y="5"/>
      <point x="509" y="2"/>
      <point x="549" y="0" type="curve"/>
      <point x="549" y="31" type="line"/>
      <point x="361" y="41"/>
      <point x="319" y="62"/>
      <point x="319" y="187" type="curve" smooth="yes"/>
      <point x="319" y="1083" type="line"/>
      <point x="333" y="1083" type="line"/>
      <point x="863" y="-19" type="line"/>
    </contour>
  </outline>
</glyph>
<glyph name="N" format="2">
  <advance width="1547"/>
  <unicode hex="004E"/>
  <anchor x="800" y="0" name="bottom"/>
  <anchor x="1255" y="0" name="bottomright"/>
  <anchor x="815" y="1169" name="top"/>
  <outline>
    <contour>
      <point x="1256" y="-19" type="line"/>
      <point x="1256" y="984" type="line" smooth="yes"/>
      <point x="1256" y="1063"/>
      <point x="1280" y="1135"/>
      <point x="1457" y="1139" type="curve"/>
      <point x="1457" y="1169" type="line"/>
      <point x="1411" y="1166"/>
      <point x="1327" y="1164"/>
      <point x="1234" y="1164" type="curve" smooth="yes"/>
      <point x="1138" y="1164"/>
      <point x="1038" y="1166"/>
      <point x="989" y="1169" type="curve"/>
      <point x="989" y="1139" type="line"/>
      <point x="1198" y="1131"/>
      <point x="1224" y="1063"/>
      <point x="1224" y="984" type="curve" smooth="yes"/>
      <point x="1224" y="195" type="line"/>
      <point x="1209" y="195" type="line"/>
      <point x="466" y="1169" type="line"/>
      <point x="429" y="1166"/>
      <point x="378" y="1164"/>
      <point x="319" y="1164" type="curve" smooth="yes"/>
      <point x="227" y="1164"/>
      <point x="141" y="1164"/>
      <point x="91" y="1169" type="curve"/>
      <point x="91" y="1139" type="line"/>
      <point x="281" y="1131"/>
      <point x="292" y="1088"/>
      <point x="292" y="997" type="curve" smooth="yes"/>
      <point x="292" y="187" type="line" smooth="yes"/>
      <point x="292" y="105"/>
      <point x="285" y="37"/>
      <point x="91" y="31" type="curve"/>
      <point x="91" y="0" type="line"/>
      <point x="138" y="3"/>
      <point x="222" y="5"/>
      <point x="314" y="5" type="curve" smooth="yes"/>
      <point x="412" y="5"/>
      <point x="510" y="3"/>
      <point x="558" y="0" type="curve"/>
      <point x="558" y="31" type="line"/>
      <point x="329" y="38"/>
      <point x="324" y="106"/>
      <point x="324" y="187" type="curve" smooth="yes"/>
      <point x="324" y="1072" type="line"/>
      <point x="338" y="1072" type="line"/>
      <point x="1215" y="-19" type="line"/>
    </contour>
  </outline>
</glyph>
<glyph name="O" format="2">
  <advance width="1661"/>
  <unicode hex="004F"/>
  <anchor x="834" y="-4" name="bottom"/>
  <anchor x="831" y="589" name="center"/>
  <anchor x="1073" y="0" name="ogonek"/>
  <anchor x="827" y="1169" name="top"/>
  <anchor x="33" y="1169" name="topleft"/>
  <anchor x="1629" y="1169" name="topright"/>
  <outline>
    <contour>
      <point x="829" y="-23" type="curve" smooth="yes"/>
      <point x="1263" y="-23"/>
      <point x="1543" y="218"/>
      <point x="1543" y="588" type="curve" smooth="yes"/>
      <point x="1543" y="964"/>
      <point x="1267" y="1192"/>
      <point x="831" y="1192" type="curve" smooth="yes"/>
      <point x="401" y="1192"/>
      <point x="119" y="952"/>
      <point x="119" y="582" type="curve" smooth="yes"/>
      <point x="119" y="206"/>
      <point x="394" y="-23"/>
    </contour>
    <contour>
      <point x="823" y="7" type="curve" smooth="yes"/>
      <point x="508" y="7"/>
      <point x="284" y="226"/>
      <point x="284" y="584" type="curve" smooth="yes"/>
      <point x="284" y="936"/>
      <point x="501" y="1163"/>
      <point x="838" y="1163" type="curve" smooth="yes"/>
      <point x="1150" y="1163"/>
      <point x="1376" y="943"/>
      <point x="1376" y="586" type="curve" smooth="yes"/>
      <point x="1376" y="234"/>
      <point x="1162" y="7"/>
    </contour>
  </outline>
</glyph>
<glyph name="P" format="2">
  <advance width="1184"/>
  <unicode hex="0050"/>
  <anchor x="357" y="0" name="bottom"/>
  <anchor x="436" y="284" name="center"/>
  <anchor x="638" y="1169" name="top"/>
  <outline>
    <contour>
      <point x="88" y="0" type="line"/>
      <point x="135" y="2"/>
      <point x="226" y="5"/>
      <point x="361" y="5" type="curve" smooth="yes"/>
      <point x="509" y="5"/>
      <point x="609" y="2"/>
      <point x="662" y="0" type="curve"/>
      <point x="662" y="31" type="line"/>
      <point x="469" y="38"/>
      <point x="435" y="56"/>
      <point x="435" y="173" type="curve" smooth="yes"/>
      <point x="435" y="1138" type="line"/>
      <point x="600" y="1141" type="line" smooth="yes"/>
      <point x="844" y="1144"/>
      <point x="955" y="1047"/>
      <point x="955" y="823" type="curve" smooth="yes"/>
      <point x="955" y="619"/>
      <point x="835" y="505"/>
      <point x="592" y="505" type="curve" smooth="yes"/>
      <point x="552" y="505"/>
      <point x="463" y="515"/>
      <point x="412" y="533" type="curve"/>
      <point x="412" y="502" type="line"/>
      <point x="459" y="487"/>
      <point x="548" y="476"/>
      <point x="607" y="476" type="curve" smooth="yes"/>
      <point x="922" y="476"/>
      <point x="1120" y="615"/>
      <point x="1120" y="833" type="curve" smooth="yes"/>
      <point x="1120" y="1053"/>
      <point x="948" y="1169"/>
      <point x="650" y="1169" type="curve" smooth="yes"/>
      <point x="600" y="1169"/>
      <point x="478" y="1167"/>
      <point x="340" y="1167" type="curve" smooth="yes"/>
      <point x="218" y="1167"/>
      <point x="132" y="1167"/>
      <point x="88" y="1169" type="curve"/>
      <point x="88" y="1139" type="line"/>
      <point x="253" y="1138"/>
      <point x="281" y="1113"/>
      <point x="281" y="997" type="curve" smooth="yes"/>
      <point x="281" y="173" type="line" smooth="yes"/>
      <point x="281" y="56"/>
      <point x="253" y="38"/>
      <point x="88" y="31" type="curve"/>
    </contour>
  </outline>
</glyph>
<glyph name="Q" format="2">
  <advance width="1659"/>
  <unicode hex="0051"/>
  <anchor x="833" y="589" name="center"/>
  <anchor x="1076" y="0" name="ogonek"/>
  <anchor x="829" y="1169" name="top"/>
  <anchor x="33" y="1169" name="topleft"/>
  <anchor x="1632" y="1169" name="topright"/>
  <outline>
    <contour>
      <point x="831" y="-23" type="curve" smooth="yes"/>
      <point x="1265" y="-23"/>
      <point x="1546" y="218"/>
      <point x="1546" y="588" type="curve" smooth="yes"/>
      <point x="1546" y="964"/>
      <point x="1269" y="1192"/>
      <point x="833" y="1192" type="curve" smooth="yes"/>
      <point x="402" y="1192"/>
      <point x="120" y="952"/>
      <point x="120" y="582" type="curve" smooth="yes"/>
      <point x="120" y="206"/>
      <point x="394" y="-23"/>
    </contour>
    <contour>
      <point x="824" y="7" type="curve" smooth="yes"/>
      <point x="508" y="7"/>
      <point x="285" y="226"/>
      <point x="285" y="584" type="curve" smooth="yes"/>
      <point x="285" y="936"/>
      <point x="502" y="1163"/>
      <point x="839" y="1163" type="curve" smooth="yes"/>
      <point x="1153" y="1163"/>
      <point x="1379" y="943"/>
      <point x="1379" y="586" type="curve" smooth="yes"/>
      <point x="1379" y="234"/>
      <point x="1165" y="7"/>
    </contour>
    <contour>
      <point x="367" y="-395" type="curve" smooth="yes"/>
      <point x="427" y="-395"/>
      <point x="462" y="-368"/>
      <point x="462" y="-329" type="curve" smooth="yes"/>
      <point x="462" y="-286"/>
      <point x="412" y="-230"/>
      <point x="412" y="-192" type="curve" smooth="yes"/>
      <point x="412" y="-153"/>
      <point x="479" y="-122"/>
      <point x="571" y="-122" type="curve" smooth="yes"/>
      <point x="920" y="-122"/>
      <point x="1043" y="-395"/>
      <point x="1392" y="-395" type="curve" smooth="yes"/>
      <point x="1585" y="-395"/>
      <point x="1729" y="-300"/>
      <point x="1797" y="-128" type="curve"/>
      <point x="1773" y="-115" type="line"/>
      <point x="1699" y="-213"/>
      <point x="1601" y="-254"/>
      <point x="1435" y="-254" type="curve" smooth="yes"/>
      <point x="1121" y="-254"/>
      <point x="823" y="-99"/>
      <point x="571" y="-97" type="curve" smooth="yes"/>
      <point x="417" y="-96"/>
      <point x="261" y="-185"/>
      <point x="261" y="-293" type="curve" smooth="yes"/>
      <point x="261" y="-355"/>
      <point x="302" y="-395"/>
    </contour>
    <contour>
      <point x="663" y="-105" type="line"/>
      <point x="779" y="-76"/>
      <point x="835" y="-35"/>
      <point x="960" y="-13" type="curve"/>
      <point x="959" y="13" type="line"/>
      <point x="787" y="-10"/>
      <point x="721" y="-74"/>
      <point x="570" y="-100" type="curve"/>
    </contour>
  </outline>
</glyph>
<glyph name="R" format="2">
  <advance width="1326"/>
  <unicode hex="0052"/>
  <anchor x="694" y="0" name="bottom"/>
  <anchor x="611" y="1169" name="top"/>
  <outline>
    <contour>
      <point x="88" y="0" type="line"/>
      <point x="137" y="3"/>
      <point x="231" y="5"/>
      <point x="356" y="5" type="curve" smooth="yes"/>
      <point x="483" y="5"/>
      <point x="576" y="3"/>
      <point x="627" y="0" type="curve"/>
      <point x="627" y="31" type="line"/>
      <point x="461" y="38"/>
      <point x="435" y="56"/>
      <point x="435" y="173" type="curve" smooth="yes"/>
      <point x="435" y="1138" type="line"/>
      <point x="600" y="1138" type="line" smooth="yes"/>
      <point x="839" y="1138"/>
      <point x="950" y="1059"/>
      <point x="950" y="869" type="curve" smooth="yes"/>
      <point x="950" y="685"/>
      <point x="837" y="589"/>
      <point x="605" y="589" type="curve" smooth="yes"/>
      <point x="361" y="589" type="line"/>
      <point x="361" y="565" type="line"/>
      <point x="617" y="565" type="line" smooth="yes"/>
      <point x="916" y="565"/>
      <point x="1115" y="690"/>
      <point x="1115" y="885" type="curve" smooth="yes"/>
      <point x="1115" y="1066"/>
      <point x="940" y="1169"/>
      <point x="648" y="1169" type="curve" smooth="yes"/>
      <point x="601" y="1169"/>
      <point x="471" y="1167"/>
      <point x="344" y="1167" type="curve" smooth="yes"/>
      <point x="224" y="1167"/>
      <point x="139" y="1167"/>
      <point x="88" y="1169" type="curve"/>
      <point x="88" y="1139" type="line"/>
      <point x="253" y="1131"/>
      <point x="280" y="1111"/>
      <point x="280" y="997" type="curve" smooth="yes"/>
      <point x="280" y="173" type="line" smooth="yes"/>
      <point x="280" y="60"/>
      <point x="253" y="38"/>
      <point x="88" y="31" type="curve"/>
    </contour>
    <contour>
      <point x="1150" y="-23" type="curve" smooth="yes"/>
      <point x="1235" y="-23"/>
      <point x="1288" y="3"/>
      <point x="1350" y="71" type="curve"/>
      <point x="1331" y="98" type="line"/>
      <point x="1297" y="62"/>
      <point x="1262" y="36"/>
      <point x="1220" y="38" type="curve" smooth="yes"/>
      <point x="1163" y="40"/>
      <point x="1123" y="51"/>
      <point x="1109" y="106" type="curve" smooth="yes"/>
      <point x="1051" y="331" type="line" smooth="yes"/>
      <point x="998" y="537"/>
      <point x="906" y="580"/>
      <point x="604" y="580" type="curve" smooth="yes"/>
      <point x="385" y="580" type="line"/>
      <point x="385" y="559" type="line"/>
      <point x="627" y="559" type="line" smooth="yes"/>
      <point x="780" y="559"/>
      <point x="845" y="494"/>
      <point x="887" y="338" type="curve" smooth="yes"/>
      <point x="936" y="155" type="line" smooth="yes"/>
      <point x="967" y="38"/>
      <point x="1045" y="-23"/>
    </contour>
  </outline>
</glyph>
<glyph name="S" format="2">
  <advance width="1059"/>
  <unicode hex="0053"/>
  <anchor x="568" y="0" name="bottom"/>
  <anchor x="532" y="0" name="currency"/>
  <anchor x="541" y="1169" name="top"/>
  <outline>
    <contour>
      <point x="561" y="-23" type="curve" smooth="yes"/>
      <point x="810" y="-23"/>
      <point x="965" y="105"/>
      <point x="965" y="312" type="curve" smooth="yes"/>
      <point x="965" y="481"/>
      <point x="862" y="577"/>
      <point x="593" y="669" type="curve" smooth="yes"/>
      <point x="338" y="759"/>
      <point x="254" y="817"/>
      <point x="254" y="940" type="curve" smooth="yes"/>
      <point x="254" y="1085"/>
      <point x="350" y="1162"/>
      <point x="508" y="1162" type="curve" smooth="yes"/>
      <point x="709" y="1162"/>
      <point x="847" y="1036"/>
      <point x="871" y="808" type="curve"/>
      <point x="902" y="808" type="line"/>
      <point x="902" y="1029"/>
      <point x="905" y="1114"/>
      <point x="912" y="1188" type="curve"/>
      <point x="880" y="1188" type="line"/>
      <point x="867" y="1126"/>
      <point x="846" y="1116"/>
      <point x="810" y="1116" type="curve" smooth="yes"/>
      <point x="738" y="1116"/>
      <point x="663" y="1192"/>
      <point x="487" y="1192" type="curve" smooth="yes"/>
      <point x="265" y="1192"/>
      <point x="125" y="1071"/>
      <point x="125" y="880" type="curve" smooth="yes"/>
      <point x="125" y="717"/>
      <point x="231" y="639"/>
      <point x="506" y="530" type="curve" smooth="yes"/>
      <point x="735" y="442"/>
      <point x="813" y="394"/>
      <point x="813" y="251" type="curve" smooth="yes"/>
      <point x="813" y="89"/>
      <point x="710" y="6"/>
      <point x="537" y="6" type="curve" smooth="yes"/>
      <point x="311" y="6"/>
      <point x="161" y="153"/>
      <point x="139" y="415" type="curve"/>
      <point x="107" y="415" type="line"/>
      <point x="107" y="175"/>
      <point x="106" y="45"/>
      <point x="99" y="-19" type="curve"/>
      <point x="130" y="-19" type="line"/>
      <point x="143" y="62"/>
      <point x="163" y="87"/>
      <point x="199" y="87" type="curve" smooth="yes"/>
      <point x="263" y="87"/>
      <point x="355" y="-23"/>
    </contour>
  </outline>
  <guideline angle="90" x="753" y="0"/>
  <guideline angle="90" x="94" y="0"/>
</glyph>
<glyph name="T" format="2">
  <advance width="1406"/>
  <unicode hex="0054"/>
  <anchor x="707" y="0" name="bottom"/>
  <anchor x="703" y="567" name="center"/>
  <anchor x="703" y="1169" name="top"/>
  <outline>
    <contour>
      <point x="366" y="0" type="line"/>
      <point x="439" y="3"/>
      <point x="559" y="5"/>
      <point x="709" y="5" type="curve" smooth="yes"/>
      <point x="837" y="5"/>
      <point x="959" y="3"/>
      <point x="1040" y="0" type="curve"/>
      <point x="1040" y="31" type="line"/>
      <point x="795" y="38"/>
      <point x="779" y="80"/>
      <point x="779" y="189" type="curve" smooth="yes"/>
      <point x="779" y="1134" type="line"/>
      <point x="939" y="1134" type="line" smooth="yes"/>
      <point x="1082" y="1134"/>
      <point x="1183" y="1100"/>
      <point x="1311" y="784" type="curve"/>
      <point x="1343" y="784" type="line"/>
      <point x="1312" y="958"/>
      <point x="1304" y="1082"/>
      <point x="1312" y="1169" type="curve"/>
      <point x="1124" y="1164"/>
      <point x="877" y="1164"/>
      <point x="703" y="1164" type="curve" smooth="yes"/>
      <point x="479" y="1164"/>
      <point x="260" y="1166"/>
      <point x="93" y="1169" type="curve"/>
      <point x="103" y="1068"/>
      <point x="94" y="967"/>
      <point x="65" y="784" type="curve"/>
      <point x="96" y="784" type="line"/>
      <point x="214" y="1089"/>
      <point x="313" y="1134"/>
      <point x="466" y="1134" type="curve" smooth="yes"/>
      <point x="627" y="1134" type="line"/>
      <point x="627" y="189" type="line" smooth="yes"/>
      <point x="627" y="80"/>
      <point x="613" y="38"/>
      <point x="366" y="31" type="curve"/>
    </contour>
  </outline>
</glyph>
<glyph name="U" format="2">
  <advance width="1542"/>
  <unicode hex="0055"/>
  <anchor x="801" y="0" name="bottom"/>
  <anchor x="968" y="0" name="ogonek"/>
  <anchor x="795" y="1169" name="top"/>
  <outline>
    <contour>
      <point x="774" y="-23" type="curve" smooth="yes"/>
      <point x="1105" y="-23"/>
      <point x="1273" y="190"/>
      <point x="1273" y="577" type="curve" smooth="yes"/>
      <point x="1273" y="984" type="line" smooth="yes"/>
      <point x="1273" y="1105"/>
      <point x="1311" y="1131"/>
      <point x="1482" y="1139" type="curve"/>
      <point x="1482" y="1169" type="line"/>
      <point x="1445" y="1167"/>
      <point x="1370" y="1164"/>
      <point x="1252" y="1164" type="curve" smooth="yes"/>
      <point x="1139" y="1164"/>
      <point x="1061" y="1167"/>
      <point x="1021" y="1169" type="curve"/>
      <point x="1021" y="1139" type="line"/>
      <point x="1195" y="1131"/>
      <point x="1241" y="1105"/>
      <point x="1241" y="978" type="curve" smooth="yes"/>
      <point x="1241" y="562" type="line" smooth="yes"/>
      <point x="1241" y="218"/>
      <point x="1089" y="28"/>
      <point x="806" y="28" type="curve" smooth="yes"/>
      <point x="557" y="28"/>
      <point x="424" y="223"/>
      <point x="424" y="526" type="curve" smooth="yes"/>
      <point x="424" y="997" type="line" smooth="yes"/>
      <point x="424" y="1116"/>
      <point x="454" y="1131"/>
      <point x="635" y="1139" type="curve"/>
      <point x="635" y="1169" type="line"/>
      <point x="586" y="1166"/>
      <point x="486" y="1164"/>
      <point x="345" y="1164" type="curve" smooth="yes"/>
      <point x="211" y="1164"/>
      <point x="116" y="1166"/>
      <point x="62" y="1169" type="curve"/>
      <point x="62" y="1139" type="line"/>
      <point x="239" y="1131"/>
      <point x="270" y="1113"/>
      <point x="270" y="997" type="curve" smooth="yes"/>
      <point x="270" y="567" type="line" smooth="yes"/>
      <point x="270" y="183"/>
      <point x="445" y="-23"/>
    </contour>
  </outline>
</glyph>
<glyph name="V" format="2">
  <advance width="1388"/>
  <unicode hex="0056"/>
  <anchor x="688" y="0" name="bottom"/>
  <anchor x="692" y="1169" name="top"/>
  <outline>
    <contour>
      <point x="728" y="-19" type="line"/>
      <point x="1184" y="1002" type="line" smooth="yes"/>
      <point x="1226" y="1095"/>
      <point x="1283" y="1128"/>
      <point x="1382" y="1139" type="curve"/>
      <point x="1382" y="1169" type="line"/>
      <point x="1281" y="1166"/>
      <point x="1240" y="1164"/>
      <point x="1181" y="1164" type="curve" smooth="yes"/>
      <point x="1084" y="1164"/>
      <point x="988" y="1169"/>
      <point x="923" y="1169" type="curve"/>
      <point x="923" y="1139" type="line"/>
      <point x="1095" y="1141"/>
      <point x="1158" y="1023"/>
      <point x="1053" y="789" type="curve" smooth="yes"/>
      <point x="756" y="124" type="line"/>
      <point x="380" y="993" type="line" smooth="yes"/>
      <point x="331" y="1102"/>
      <point x="360" y="1135"/>
      <point x="540" y="1139" type="curve"/>
      <point x="540" y="1169" type="line"/>
      <point x="482" y="1167"/>
      <point x="382" y="1164"/>
      <point x="255" y="1164" type="curve" smooth="yes"/>
      <point x="167" y="1164"/>
      <point x="80" y="1167"/>
      <point x="11" y="1169" type="curve"/>
      <point x="11" y="1139" type="line"/>
      <point x="118" y="1130"/>
      <point x="172" y="1095"/>
      <point x="205" y="1022" type="curve" smooth="yes"/>
      <point x="676" y="-19" type="line"/>
    </contour>
  </outline>
</glyph>
<glyph name="W" format="2">
  <advance width="2152"/>
  <unicode hex="0057"/>
  <anchor x="1089" y="0" name="bottom"/>
  <anchor x="1097" y="1169" name="top"/>
  <outline>
    <contour>
      <point x="1501" y="-19" type="line"/>
      <point x="1929" y="1002" type="line" smooth="yes"/>
      <point x="1970" y="1101"/>
      <point x="2044" y="1128"/>
      <point x="2156" y="1139" type="curve"/>
      <point x="2156" y="1169" type="line"/>
      <point x="2053" y="1166"/>
      <point x="1990" y="1164"/>
      <point x="1932" y="1164" type="curve" smooth="yes"/>
      <point x="1820" y="1164"/>
      <point x="1707" y="1169"/>
      <point x="1652" y="1169" type="curve"/>
      <point x="1652" y="1139" type="line"/>
      <point x="1856" y="1141"/>
      <point x="1906" y="1025"/>
      <point x="1805" y="787" type="curve" smooth="yes"/>
      <point x="1548" y="183" type="line"/>
      <point x="1549" y="163" type="line"/>
      <point x="1186" y="993" type="line" smooth="yes"/>
      <point x="1136" y="1104"/>
      <point x="1165" y="1135"/>
      <point x="1377" y="1139" type="curve"/>
      <point x="1377" y="1169" type="line"/>
      <point x="1312" y="1167"/>
      <point x="1192" y="1164"/>
      <point x="1045" y="1164" type="curve" smooth="yes"/>
      <point x="971" y="1164"/>
      <point x="881" y="1167"/>
      <point x="797" y="1169" type="curve"/>
      <point x="797" y="1139" type="line"/>
      <point x="905" y="1130"/>
      <point x="975" y="1093"/>
      <point x="1007" y="1022" type="curve" smooth="yes"/>
      <point x="1468" y="-19" type="line"/>
    </contour>
    <contour>
      <point x="695" y="-19" type="line"/>
      <point x="1096" y="942" type="line"/>
      <point x="1068" y="965" type="line"/>
      <point x="706" y="88" type="line"/>
      <point x="753" y="156" type="line"/>
      <point x="390" y="993" type="line" smooth="yes"/>
      <point x="342" y="1103"/>
      <point x="366" y="1135"/>
      <point x="569" y="1139" type="curve"/>
      <point x="569" y="1169" type="line"/>
      <point x="507" y="1167"/>
      <point x="393" y="1164"/>
      <point x="255" y="1164" type="curve" smooth="yes"/>
      <point x="174" y="1164"/>
      <point x="83" y="1167"/>
      <point x="-3" y="1169" type="curve"/>
      <point x="-3" y="1139" type="line"/>
      <point x="107" y="1130"/>
      <point x="178" y="1098"/>
      <point x="212" y="1022" type="curve" smooth="yes"/>
      <point x="666" y="-19" type="line"/>
    </contour>
  </outline>
</glyph>
<glyph name="X" format="2">
  <advance width="1483"/>
  <unicode hex="0058"/>
  <anchor x="741" y="0" name="bottom"/>
  <anchor x="1462" y="0" name="bottomright"/>
  <anchor x="741" y="1169" name="top"/>
  <outline>
    <contour>
      <point x="863" y="0" type="line"/>
      <point x="929" y="3"/>
      <point x="1040" y="6"/>
      <point x="1189" y="6" type="curve" smooth="yes"/>
      <point x="1275" y="6"/>
      <point x="1364" y="2"/>
      <point x="1462" y="0" type="curve"/>
      <point x="1462" y="31" type="line"/>
      <point x="1370" y="37"/>
      <point x="1304" y="67"/>
      <point x="1239" y="139" type="curve" smooth="yes"/>
      <point x="476" y="997" type="line" smooth="yes"/>
      <point x="399" y="1083"/>
      <point x="454" y="1139"/>
      <point x="637" y="1139" type="curve"/>
      <point x="637" y="1169" type="line"/>
      <point x="573" y="1167"/>
      <point x="460" y="1164"/>
      <point x="310" y="1164" type="curve" smooth="yes"/>
      <point x="225" y="1164"/>
      <point x="136" y="1168"/>
      <point x="38" y="1169" type="curve"/>
      <point x="38" y="1139" type="line"/>
      <point x="132" y="1130"/>
      <point x="198" y="1102"/>
      <point x="260" y="1031" type="curve" smooth="yes"/>
      <point x="1024" y="172" type="line" smooth="yes"/>
      <point x="1102" y="85"/>
      <point x="1049" y="29"/>
      <point x="863" y="31" type="curve"/>
    </contour>
    <contour>
      <point x="39" y="0" type="line"/>
      <point x="164" y="3"/>
      <point x="199" y="5"/>
      <point x="264" y="5" type="curve" smooth="yes"/>
      <point x="384" y="5"/>
      <point x="505" y="1"/>
      <point x="575" y="0" type="curve"/>
      <point x="575" y="31" type="line"/>
      <point x="444" y="27"/>
      <point x="373" y="202"/>
      <point x="527" y="361" type="curve" smooth="yes"/>
      <point x="737" y="578" type="line"/>
      <point x="709" y="600" type="line"/>
      <point x="295" y="159" type="line" smooth="yes"/>
      <point x="194" y="52"/>
      <point x="141" y="42"/>
      <point x="39" y="31" type="curve"/>
    </contour>
    <contour>
      <point x="1167" y="1009" type="line" smooth="yes"/>
      <point x="1268" y="1117"/>
      <point x="1307" y="1128"/>
      <point x="1421" y="1139" type="curve"/>
      <point x="1421" y="1169" type="line"/>
      <point x="1299" y="1166"/>
      <point x="1266" y="1164"/>
      <point x="1204" y="1164" type="curve" smooth="yes"/>
      <point x="1121" y="1164"/>
      <point x="1021" y="1169"/>
      <point x="904" y="1169" type="curve"/>
      <point x="904" y="1139" type="line"/>
      <point x="1013" y="1141"/>
      <point x="1083" y="964"/>
      <point x="942" y="813" type="curve" smooth="yes"/>
      <point x="735" y="591" type="line"/>
      <point x="769" y="580" type="line"/>
    </contour>
  </outline>
</glyph>
<glyph name="Y" format="2">
  <advance width="1345"/>
  <unicode hex="0059"/>
  <anchor x="692" y="0" name="bottom"/>
  <anchor x="693" y="421" name="centre"/>
  <anchor x="688" y="1169" name="top"/>
  <outline>
    <contour>
      <point x="371" y="0" type="line"/>
      <point x="443" y="3"/>
      <point x="560" y="5"/>
      <point x="694" y="5" type="curve" smooth="yes"/>
      <point x="811" y="5"/>
      <point x="933" y="3"/>
      <point x="1011" y="0" type="curve"/>
      <point x="1011" y="31" type="line"/>
      <point x="788" y="38"/>
      <point x="769" y="75"/>
      <point x="769" y="189" type="curve" smooth="yes"/>
      <point x="769" y="419" type="line"/>
      <point x="1122" y="1004" type="line" smooth="yes"/>
      <point x="1188" y="1113"/>
      <point x="1247" y="1130"/>
      <point x="1371" y="1139" type="curve"/>
      <point x="1371" y="1169" type="line"/>
      <point x="1258" y="1166"/>
      <point x="1226" y="1164"/>
      <point x="1169" y="1164" type="curve" smooth="yes"/>
      <point x="1052" y="1164"/>
      <point x="933" y="1169"/>
      <point x="879" y="1169" type="curve"/>
      <point x="879" y="1139" type="line"/>
      <point x="1022" y="1141"/>
      <point x="1079" y="987"/>
      <point x="957" y="790" type="curve" smooth="yes"/>
      <point x="749" y="454" type="line"/>
      <point x="369" y="1003" type="line" smooth="yes"/>
      <point x="304" y="1096"/>
      <point x="350" y="1136"/>
      <point x="540" y="1138" type="curve"/>
      <point x="540" y="1169" type="line"/>
      <point x="467" y="1167"/>
      <point x="350" y="1164"/>
      <point x="204" y="1164" type="curve" smooth="yes"/>
      <point x="131" y="1164"/>
      <point x="46" y="1167"/>
      <point x="-39" y="1169" type="curve"/>
      <point x="-39" y="1138" type="line"/>
      <point x="54" y="1132"/>
      <point x="116" y="1106"/>
      <point x="166" y="1035" type="curve" smooth="yes"/>
      <point x="615" y="397" type="line"/>
      <point x="615" y="189" type="line" smooth="yes"/>
      <point x="615" y="74"/>
      <point x="596" y="38"/>
      <point x="371" y="31" type="curve"/>
    </contour>
  </outline>
</glyph>
<glyph name="Z" format="2">
  <advance width="1255"/>
  <unicode hex="005A"/>
  <anchor x="614" y="0" name="bottom"/>
  <anchor x="604" y="1169" name="top"/>
  <outline>
    <contour>
      <point x="84" y="0" type="line"/>
      <point x="242" y="5"/>
      <point x="432" y="5"/>
      <point x="597" y="5" type="curve" smooth="yes"/>
      <point x="754" y="5"/>
      <point x="973" y="5"/>
      <point x="1132" y="0" type="curve"/>
      <point x="1127" y="116"/>
      <point x="1135" y="229"/>
      <point x="1158" y="388" type="curve"/>
      <point x="1127" y="388" type="line"/>
      <point x="1013" y="35"/>
      <point x="872" y="36"/>
      <point x="548" y="36" type="curve" smooth="yes"/>
      <point x="271" y="36" type="line"/>
      <point x="1148" y="1139" type="line"/>
      <point x="1148" y="1169" type="line"/>
      <point x="1003" y="1164"/>
      <point x="807" y="1164"/>
      <point x="659" y="1164" type="curve" smooth="yes"/>
      <point x="506" y="1164"/>
      <point x="293" y="1164"/>
      <point x="136" y="1169" type="curve"/>
      <point x="143" y="1068"/>
      <point x="131" y="947"/>
      <point x="108" y="784" type="curve"/>
      <point x="138" y="784" type="line"/>
      <point x="241" y="1057"/>
      <point x="321" y="1134"/>
      <point x="470" y="1134" type="curve" smooth="yes"/>
      <point x="960" y="1134" type="line"/>
      <point x="84" y="31" type="line"/>
    </contour>
  </outline>
</glyph>
<glyph name="bracketleft" format="2">
  <advance width="601"/>
  <unicode hex="005B"/>
  <outline>
    <contour>
      <point x="541" y="-299" type="line"/>
      <point x="541" y="-269" type="line"/>
      <point x="326" y="-269" type="line"/>
      <point x="326" y="1245" type="line"/>
      <point x="541" y="1245" type="line"/>
      <point x="541" y="1275" type="line"/>
      <point x="180" y="1275" type="line"/>
      <point x="180" y="-299" type="line"/>
    </contour>
  </outline>
  <guideline angle="0" x="0" y="1275"/>
</glyph>
<glyph name="backslash" format="2">
  <advance width="601"/>
  <unicode hex="005C"/>
  <outline>
    <contour>
      <point x="550" y="-23" type="line"/>
      <point x="89" y="1192" type="line"/>
      <point x="52" y="1192" type="line"/>
      <point x="513" y="-23" type="line"/>
    </contour>
  </outline>
</glyph>
<glyph name="bracketright" format="2">
  <advance width="601"/>
  <unicode hex="005D"/>
  <outline>
    <contour>
      <point x="422" y="-299" type="line"/>
      <point x="422" y="1275" type="line"/>
      <point x="61" y="1275" type="line"/>
      <point x="61" y="1245" type="line"/>
      <point x="275" y="1245" type="line"/>
      <point x="275" y="-269" type="line"/>
      <point x="61" y="-269" type="line"/>
      <point x="61" y="-299" type="line"/>
    </contour>
  </outline>
</glyph>
<glyph name="asciicircum" format="2">
  <advance width="1024"/>
  <unicode hex="005E"/>
  <outline>
    <contour>
      <point x="487" y="717" type="line"/>
      <point x="788" y="523" type="line"/>
      <point x="803" y="548" type="line"/>
      <point x="529" y="880" type="line"/>
      <point x="502" y="880" type="line"/>
      <point x="222" y="542" type="line"/>
      <point x="237" y="521" type="line"/>
    </contour>
  </outline>
</glyph>
<glyph name="underscore" format="2">
  <advance width="1024"/>
  <unicode hex="005F"/>
  <outline>
    <contour>
      <point x="915" y="-224" type="line"/>
      <point x="915" y="-186" type="line"/>
      <point x="110" y="-186" type="line"/>
      <point x="110" y="-224" type="line"/>
    </contour>
  </outline>
</glyph>
<glyph name="grave" format="2">
  <advance width="468"/>
  <unicode hex="0060"/>
  <anchor x="291" y="849" name="_top"/>
  <anchor x="282" y="1252" name="top"/>
  <outline>
    <contour>
      <point x="328" y="1009" type="line"/>
      <point x="203" y="1128"/>
      <point x="249" y="1292"/>
      <point x="207" y="1335" type="curve" smooth="yes"/>
      <point x="177" y="1366"/>
      <point x="129" y="1363"/>
      <point x="97" y="1328" type="curve"/>
      <point x="63" y="1297"/>
      <point x="52" y="1248"/>
      <point x="84" y="1210" type="curve"/>
      <point x="131" y="1174"/>
      <point x="171" y="1054"/>
      <point x="310" y="992" type="curve"/>
    </contour>
  </outline>
</glyph>
<glyph name="a" format="2">
  <advance width="874"/>
  <unicode hex="0061"/>
  <anchor x="446" y="0" name="bottom"/>
  <anchor x="796" y="0" name="ogonek"/>
  <anchor x="442" y="849" name="top"/>
  <outline>
    <contour>
      <point x="320" y="-23" type="curve" smooth="yes"/>
      <point x="423" y="-23"/>
      <point x="500" y="34"/>
      <point x="558" y="128" type="curve"/>
      <point x="558" y="29"/>
      <point x="604" y="-23"/>
      <point x="700" y="-23" type="curve" smooth="yes"/>
      <point x="774" y="-23"/>
      <point x="815" y="-10"/>
      <point x="864" y="50" type="curve"/>
      <point x="847" y="77" type="line"/>
      <point x="824" y="27"/>
      <point x="789" y="25"/>
      <point x="753" y="25" type="curve" smooth="yes"/>
      <point x="720" y="25"/>
      <point x="705" y="53"/>
      <point x="705" y="103" type="curve" smooth="yes"/>
      <point x="705" y="502" type="line" smooth="yes"/>
      <point x="705" y="739"/>
      <point x="636" y="874"/>
      <point x="450" y="874" type="curve" smooth="yes"/>
      <point x="273" y="874"/>
      <point x="134" y="773"/>
      <point x="134" y="655" type="curve" smooth="yes"/>
      <point x="134" y="593"/>
      <point x="169" y="555"/>
      <point x="221" y="555" type="curve" smooth="yes"/>
      <point x="266" y="555"/>
      <point x="296" y="581"/>
      <point x="296" y="622" type="curve" smooth="yes"/>
      <point x="296" y="666"/>
      <point x="252" y="719"/>
      <point x="252" y="760" type="curve" smooth="yes"/>
      <point x="252" y="804"/>
      <point x="325" y="832"/>
      <point x="411" y="832" type="curve" smooth="yes"/>
      <point x="510" y="832"/>
      <point x="557" y="712"/>
      <point x="557" y="513" type="curve"/>
      <point x="557" y="599" type="line"/>
      <point x="557" y="389"/>
      <point x="101" y="538"/>
      <point x="101" y="205" type="curve" smooth="yes"/>
      <point x="101" y="55"/>
      <point x="186" y="-23"/>
    </contour>
    <contour>
      <point x="388" y="48" type="curve" smooth="yes"/>
      <point x="306" y="48"/>
      <point x="256" y="105"/>
      <point x="256" y="215" type="curve" smooth="yes"/>
      <point x="256" y="515"/>
      <point x="524" y="372"/>
      <point x="557" y="547" type="curve"/>
      <point x="557" y="163" type="line"/>
      <point x="514" y="76"/>
      <point x="452" y="48"/>
    </contour>
  </outline>
</glyph>
<glyph name="b" format="2">
  <advance width="1049"/>
  <unicode hex="0062"/>
  <anchor x="527" y="0" name="bottom"/>
  <anchor x="527" y="1252" name="top"/>
  <outline>
    <contour>
      <point x="559" y="-23" type="curve" smooth="yes"/>
      <point x="791" y="-23"/>
      <point x="947" y="176"/>
      <point x="947" y="438" type="curve" smooth="yes"/>
      <point x="947" y="683"/>
      <point x="808" y="874"/>
      <point x="598" y="874" type="curve" smooth="yes"/>
      <point x="453" y="874"/>
      <point x="330" y="792"/>
      <point x="293" y="649" type="curve"/>
      <point x="299" y="574" type="line"/>
      <point x="333" y="745"/>
      <point x="439" y="822"/>
      <point x="538" y="822" type="curve" smooth="yes"/>
      <point x="694" y="822"/>
      <point x="786" y="656"/>
      <point x="786" y="414" type="curve" smooth="yes"/>
      <point x="786" y="163"/>
      <point x="689" y="22"/>
      <point x="518" y="22" type="curve" smooth="yes"/>
      <point x="419" y="22"/>
      <point x="332" y="117"/>
      <point x="303" y="229" type="curve"/>
      <point x="294" y="173" type="line"/>
      <point x="326" y="71"/>
      <point x="430" y="-23"/>
    </contour>
    <contour>
      <point x="146" y="-29" type="line"/>
      <point x="185" y="29"/>
      <point x="251" y="103"/>
      <point x="314" y="155" type="curve"/>
      <point x="314" y="1295" type="line"/>
      <point x="261" y="1278"/>
      <point x="195" y="1272"/>
      <point x="121" y="1272" type="curve" smooth="yes"/>
      <point x="81" y="1272"/>
      <point x="36" y="1273"/>
      <point x="-1" y="1277" type="curve"/>
      <point x="-1" y="1246" type="line"/>
      <point x="127" y="1235"/>
      <point x="166" y="1184"/>
      <point x="166" y="1101" type="curve" smooth="yes"/>
      <point x="166" y="150" type="line" smooth="yes"/>
      <point x="166" y="82"/>
      <point x="157" y="45"/>
      <point x="125" y="-4" type="curve"/>
    </contour>
  </outline>
</glyph>
<glyph name="c" format="2">
  <advance width="852"/>
  <unicode hex="0063"/>
  <anchor x="464" y="0" name="bottom"/>
  <anchor x="472" y="0" name="currency"/>
  <anchor x="457" y="849" name="top"/>
  <outline>
    <contour>
      <point x="462" y="-23" type="curve" smooth="yes"/>
      <point x="615" y="-23"/>
      <point x="735" y="39"/>
      <point x="780" y="169" type="curve"/>
      <point x="751" y="202" type="line"/>
      <point x="705" y="75"/>
      <point x="619" y="31"/>
      <point x="509" y="31" type="curve" smooth="yes"/>
      <point x="346" y="31"/>
      <point x="255" y="174"/>
      <point x="255" y="426" type="curve" smooth="yes"/>
      <point x="255" y="680"/>
      <point x="344" y="835"/>
      <point x="501" y="835" type="curve" smooth="yes"/>
      <point x="579" y="835"/>
      <point x="640" y="809"/>
      <point x="640" y="763" type="curve" smooth="yes"/>
      <point x="640" y="702"/>
      <point x="590" y="636"/>
      <point x="590" y="584" type="curve" smooth="yes"/>
      <point x="590" y="534"/>
      <point x="623" y="504"/>
      <point x="671" y="504" type="curve" smooth="yes"/>
      <point x="729" y="504"/>
      <point x="768" y="568"/>
      <point x="768" y="654" type="curve" smooth="yes"/>
      <point x="768" y="780"/>
      <point x="642" y="874"/>
      <point x="480" y="874" type="curve" smooth="yes"/>
      <point x="250" y="874"/>
      <point x="96" y="686"/>
      <point x="96" y="413" type="curve" smooth="yes"/>
      <point x="96" y="148"/>
      <point x="242" y="-23"/>
    </contour>
  </outline>
</glyph>
<glyph name="d" format="2">
  <advance width="1073"/>
  <unicode hex="0064"/>
  <anchor x="1012" y="1004" name="bar-right"/>
  <anchor x="536" y="0" name="bottom"/>
  <anchor x="720" y="1017" name="center"/>
  <anchor x="998" y="0" name="exit"/>
  <anchor x="949" y="849" name="right"/>
  <anchor x="531" y="1252" name="top"/>
  <anchor x="1014" y="1252" name="topright"/>
  <outline>
    <contour>
      <point x="723" y="-18" type="line"/>
      <point x="779" y="-6"/>
      <point x="843" y="4"/>
      <point x="912" y="4" type="curve" smooth="yes"/>
      <point x="953" y="4"/>
      <point x="997" y="2"/>
      <point x="1035" y="0" type="curve"/>
      <point x="1035" y="31" type="line"/>
      <point x="910" y="35"/>
      <point x="871" y="89"/>
      <point x="871" y="176" type="curve" smooth="yes"/>
      <point x="871" y="1295" type="line"/>
      <point x="815" y="1280"/>
      <point x="752" y="1272"/>
      <point x="683" y="1272" type="curve" smooth="yes"/>
      <point x="642" y="1272"/>
      <point x="598" y="1273"/>
      <point x="560" y="1277" type="curve"/>
      <point x="560" y="1246" type="line"/>
      <point x="683" y="1235"/>
      <point x="723" y="1195"/>
      <point x="723" y="1101" type="curve" smooth="yes"/>
    </contour>
    <contour>
      <point x="456" y="-23" type="curve" smooth="yes"/>
      <point x="602" y="-23"/>
      <point x="706" y="81"/>
      <point x="743" y="230" type="curve"/>
      <point x="738" y="309" type="line"/>
      <point x="702" y="139"/>
      <point x="617" y="29"/>
      <point x="515" y="29" type="curve" smooth="yes"/>
      <point x="356" y="29"/>
      <point x="262" y="194"/>
      <point x="262" y="449" type="curve" smooth="yes"/>
      <point x="262" y="691"/>
      <point x="358" y="829"/>
      <point x="524" y="829" type="curve" smooth="yes"/>
      <point x="629" y="829"/>
      <point x="709" y="772"/>
      <point x="732" y="675" type="curve"/>
      <point x="737" y="719" type="line"/>
      <point x="718" y="821"/>
      <point x="621" y="874"/>
      <point x="489" y="874" type="curve" smooth="yes"/>
      <point x="254" y="874"/>
      <point x="101" y="672"/>
      <point x="101" y="419" type="curve" smooth="yes"/>
      <point x="101" y="182"/>
      <point x="240" y="-23"/>
    </contour>
  </outline>
  <guideline angle="90" x="941" y="0"/>
</glyph>
<glyph name="e" format="2">
  <advance width="923"/>
  <unicode hex="0065"/>
  <anchor x="509" y="0" name="bottom"/>
  <anchor x="623" y="0" name="ogonek"/>
  <anchor x="493" y="849" name="top"/>
  <outline>
    <contour>
      <point x="482" y="-23" type="curve" smooth="yes"/>
      <point x="646" y="-23"/>
      <point x="775" y="41"/>
      <point x="827" y="169" type="curve"/>
      <point x="800" y="202" type="line"/>
      <point x="745" y="81"/>
      <point x="645" y="31"/>
      <point x="533" y="31" type="curve" smooth="yes"/>
      <point x="358" y="31"/>
      <point x="259" y="171"/>
      <point x="259" y="468" type="curve" smooth="yes"/>
      <point x="259" y="502"/>
      <point x="260" y="510"/>
      <point x="262" y="520" type="curve"/>
      <point x="261" y="524" type="line"/>
      <point x="276" y="679"/>
      <point x="375" y="842"/>
      <point x="485" y="842" type="curve" smooth="yes"/>
      <point x="614" y="842"/>
      <point x="674" y="761"/>
      <point x="670" y="532" type="curve"/>
      <point x="195" y="532" type="line"/>
      <point x="196" y="499" type="line"/>
      <point x="828" y="499" type="line"/>
      <point x="832" y="689"/>
      <point x="698" y="874"/>
      <point x="495" y="874" type="curve" smooth="yes"/>
      <point x="248" y="874"/>
      <point x="99" y="688"/>
      <point x="99" y="410" type="curve" smooth="yes"/>
      <point x="99" y="155"/>
      <point x="252" y="-23"/>
    </contour>
  </outline>
</glyph>
<glyph name="f" format="2">
  <advance width="573"/>
  <unicode hex="0066"/>
  <anchor x="282" y="0" name="bottom"/>
  <anchor x="281" y="1252" name="top"/>
  <anchor x="184" y="849" name="bar"/>
  <outline>
    <contour>
      <point x="46" y="0" type="line"/>
      <point x="87" y="2"/>
      <point x="172" y="7"/>
      <point x="264" y="7" type="curve" smooth="yes"/>
      <point x="356" y="7"/>
      <point x="465" y="2"/>
      <point x="518" y="0" type="curve"/>
      <point x="518" y="31" type="line"/>
      <point x="382" y="33"/>
      <point x="333" y="71"/>
      <point x="333" y="162" type="curve" smooth="yes"/>
      <point x="333" y="892" type="line" smooth="yes"/>
      <point x="333" y="1142"/>
      <point x="391" y="1262"/>
      <point x="522" y="1262" type="curve" smooth="yes"/>
      <point x="566" y="1262"/>
      <point x="594" y="1252"/>
      <point x="594" y="1226" type="curve" smooth="yes"/>
      <point x="594" y="1194"/>
      <point x="550" y="1150"/>
      <point x="550" y="1104" type="curve" smooth="yes"/>
      <point x="550" y="1066"/>
      <point x="580" y="1035"/>
      <point x="621" y="1035" type="curve" smooth="yes"/>
      <point x="673" y="1035"/>
      <point x="711" y="1078"/>
      <point x="711" y="1140" type="curve" smooth="yes"/>
      <point x="711" y="1234"/>
      <point x="627" y="1292"/>
      <point x="506" y="1292" type="curve" smooth="yes"/>
      <point x="293" y="1292"/>
      <point x="184" y="1129"/>
      <point x="184" y="903" type="curve" smooth="yes"/>
      <point x="184" y="162" type="line" smooth="yes"/>
      <point x="184" y="63"/>
      <point x="151" y="33"/>
      <point x="46" y="31" type="curve"/>
    </contour>
    <contour>
      <point x="522" y="818" type="line"/>
      <point x="522" y="849" type="line"/>
      <point x="40" y="849" type="line"/>
      <point x="40" y="818" type="line"/>
    </contour>
  </outline>
</glyph>
<glyph name="g" format="2">
  <advance width="843"/>
  <unicode hex="0067"/>
  <anchor x="402" y="-391" name="bottom"/>
  <anchor x="416" y="0" name="center"/>
  <anchor x="386" y="849" name="top"/>
  <outline>
    <contour>
      <point x="351" y="-395" type="curve" smooth="yes"/>
      <point x="580" y="-395"/>
      <point x="749" y="-250"/>
      <point x="749" y="-44" type="curve" smooth="yes"/>
      <point x="749" y="88"/>
      <point x="661" y="156"/>
      <point x="503" y="156" type="curve" smooth="yes"/>
      <point x="377" y="156" type="line" smooth="yes"/>
      <point x="305" y="156"/>
      <point x="275" y="175"/>
      <point x="275" y="217" type="curve" smooth="yes"/>
      <point x="275" y="252"/>
      <point x="303" y="285"/>
      <point x="358" y="341" type="curve"/>
      <point x="328" y="345" type="line"/>
      <point x="224" y="281"/>
      <point x="169" y="226"/>
      <point x="169" y="174" type="curve" smooth="yes"/>
      <point x="169" y="84"/>
      <point x="238" y="22"/>
      <point x="357" y="22" type="curve" smooth="yes"/>
      <point x="458" y="22" type="line" smooth="yes"/>
      <point x="570" y="22"/>
      <point x="622" y="-27"/>
      <point x="622" y="-111" type="curve" smooth="yes"/>
      <point x="622" y="-260"/>
      <point x="504" y="-355"/>
      <point x="354" y="-355" type="curve" smooth="yes"/>
      <point x="240" y="-355"/>
      <point x="182" y="-268"/>
      <point x="182" y="-139" type="curve" smooth="yes"/>
      <point x="182" y="-53"/>
      <point x="214" y="32"/>
      <point x="265" y="52" type="curve"/>
      <point x="251" y="65" type="line"/>
      <point x="115" y="-12"/>
      <point x="46" y="-69"/>
      <point x="46" y="-165" type="curve" smooth="yes"/>
      <point x="46" y="-304"/>
      <point x="164" y="-395"/>
    </contour>
    <contour>
      <point x="360" y="331" type="curve" smooth="yes"/>
      <point x="535" y="331"/>
      <point x="629" y="447"/>
      <point x="629" y="602" type="curve" smooth="yes"/>
      <point x="629" y="754"/>
      <point x="535" y="874"/>
      <point x="362" y="874" type="curve" smooth="yes"/>
      <point x="188" y="874"/>
      <point x="93" y="759"/>
      <point x="93" y="602" type="curve" smooth="yes"/>
      <point x="93" y="446"/>
      <point x="188" y="331"/>
    </contour>
    <contour>
      <point x="360" y="359" type="curve" smooth="yes"/>
      <point x="279" y="359"/>
      <point x="246" y="453"/>
      <point x="246" y="602" type="curve" smooth="yes"/>
      <point x="246" y="754"/>
      <point x="279" y="844"/>
      <point x="360" y="844" type="curve" smooth="yes"/>
      <point x="444" y="844"/>
      <point x="476" y="751"/>
      <point x="476" y="602" type="curve" smooth="yes"/>
      <point x="476" y="453"/>
      <point x="444" y="359"/>
    </contour>
    <contour>
      <point x="755" y="649" type="curve" smooth="yes"/>
      <point x="789" y="649"/>
      <point x="812" y="694"/>
      <point x="812" y="761" type="curve" smooth="yes"/>
      <point x="812" y="832"/>
      <point x="776" y="874"/>
      <point x="721" y="874" type="curve" smooth="yes"/>
      <point x="656" y="874"/>
      <point x="582" y="812"/>
      <point x="548" y="742" type="curve"/>
      <point x="561" y="680" type="line"/>
      <point x="580" y="779"/>
      <point x="644" y="815"/>
      <point x="661" y="815" type="curve" smooth="yes"/>
      <point x="702" y="815"/>
      <point x="683" y="649"/>
    </contour>
  </outline>
  <guideline angle="0" x="0" y="874"/>
</glyph>
<glyph name="h" format="2">
  <advance width="1073"/>
  <unicode hex="0068"/>
  <anchor x="63" y="1004" name="bar-left"/>
  <anchor x="532" y="0" name="bottom"/>
  <anchor x="319" y="1017" name="center"/>
  <anchor x="528" y="1252" name="top"/>
  <outline>
    <contour>
      <point x="618" y="0" type="line"/>
      <point x="654" y="2"/>
      <point x="737" y="7"/>
      <point x="814" y="7" type="curve" smooth="yes"/>
      <point x="899" y="7"/>
      <point x="1002" y="2"/>
      <point x="1047" y="0" type="curve"/>
      <point x="1047" y="31" type="line"/>
      <point x="925" y="30"/>
      <point x="887" y="61"/>
      <point x="887" y="150" type="curve" smooth="yes"/>
      <point x="887" y="499" type="line" smooth="yes"/>
      <point x="887" y="741"/>
      <point x="792" y="874"/>
      <point x="623" y="874" type="curve" smooth="yes"/>
      <point x="503" y="874"/>
      <point x="397" y="813"/>
      <point x="342" y="673" type="curve"/>
      <point x="341" y="597" type="line"/>
      <point x="396" y="747"/>
      <point x="475" y="821"/>
      <point x="564" y="821" type="curve" smooth="yes"/>
      <point x="680" y="821"/>
      <point x="739" y="746"/>
      <point x="739" y="580" type="curve" smooth="yes"/>
      <point x="739" y="150" type="line" smooth="yes"/>
      <point x="739" y="61"/>
      <point x="711" y="30"/>
      <point x="618" y="31" type="curve"/>
    </contour>
    <contour>
      <point x="38" y="0" type="line"/>
      <point x="96" y="5"/>
      <point x="191" y="7"/>
      <point x="270" y="7" type="curve" smooth="yes"/>
      <point x="344" y="7"/>
      <point x="424" y="2"/>
      <point x="468" y="0" type="curve"/>
      <point x="468" y="31" type="line"/>
      <point x="374" y="30"/>
      <point x="346" y="61"/>
      <point x="346" y="150" type="curve" smooth="yes"/>
      <point x="346" y="1294" type="line"/>
      <point x="291" y="1279"/>
      <point x="228" y="1271"/>
      <point x="161" y="1271" type="curve" smooth="yes"/>
      <point x="121" y="1271"/>
      <point x="80" y="1272"/>
      <point x="38" y="1276" type="curve"/>
      <point x="38" y="1244" type="line"/>
      <point x="158" y="1237"/>
      <point x="197" y="1203"/>
      <point x="197" y="1099" type="curve" smooth="yes"/>
      <point x="197" y="150" type="line" smooth="yes"/>
      <point x="197" y="61"/>
      <point x="160" y="30"/>
      <point x="38" y="31" type="curve"/>
    </contour>
  </outline>
</glyph>
<glyph name="k" format="2">
  <advance width="1023"/>
  <unicode hex="006B"/>
  <anchor x="497" y="0" name="bottom"/>
  <anchor x="483" y="1252" name="top"/>
  <outline>
    <contour>
      <point x="37" y="0" type="line"/>
      <point x="81" y="2"/>
      <point x="179" y="7"/>
      <point x="263" y="7" type="curve" smooth="yes"/>
      <point x="336" y="7"/>
      <point x="417" y="2"/>
      <point x="454" y="0" type="curve"/>
      <point x="454" y="31" type="line"/>
      <point x="363" y="38"/>
      <point x="339" y="64"/>
      <point x="339" y="150" type="curve" smooth="yes"/>
      <point x="339" y="1295" type="line"/>
      <point x="285" y="1280"/>
      <point x="223" y="1272"/>
      <point x="157" y="1272" type="curve" smooth="yes"/>
      <point x="119" y="1272"/>
      <point x="78" y="1273"/>
      <point x="37" y="1277" type="curve"/>
      <point x="37" y="1246" type="line"/>
      <point x="150" y="1235"/>
      <point x="190" y="1202"/>
      <point x="190" y="1101" type="curve" smooth="yes"/>
      <point x="190" y="150" type="line" smooth="yes"/>
      <point x="190" y="65"/>
      <point x="155" y="38"/>
      <point x="37" y="31" type="curve"/>
    </contour>
    <contour>
      <point x="616" y="0" type="line"/>
      <point x="718" y="3"/>
      <point x="757" y="5"/>
      <point x="809" y="5" type="curve" smooth="yes"/>
      <point x="851" y="5"/>
      <point x="886" y="3"/>
      <point x="1014" y="0" type="curve"/>
      <point x="1014" y="31" type="line"/>
      <point x="910" y="42"/>
      <point x="863" y="59"/>
      <point x="817" y="181" type="curve" smooth="yes"/>
      <point x="742" y="379" type="line" smooth="yes"/>
      <point x="706" y="474"/>
      <point x="647" y="495"/>
      <point x="572" y="508" type="curve"/>
      <point x="566" y="458" type="line"/>
      <point x="699" y="678" type="line" smooth="yes"/>
      <point x="771" y="797"/>
      <point x="823" y="809"/>
      <point x="938" y="818" type="curve"/>
      <point x="938" y="849" type="line"/>
      <point x="888" y="846"/>
      <point x="825" y="844"/>
      <point x="746" y="844" type="curve" smooth="yes"/>
      <point x="656" y="844"/>
      <point x="575" y="845"/>
      <point x="522" y="849" type="curve"/>
      <point x="522" y="818" type="line"/>
      <point x="695" y="810"/>
      <point x="710" y="763"/>
      <point x="638" y="639" type="curve" smooth="yes"/>
      <point x="598" y="570" type="line" smooth="yes"/>
      <point x="556" y="498"/>
      <point x="498" y="474"/>
      <point x="425" y="474" type="curve" smooth="yes"/>
      <point x="320" y="474" type="line"/>
      <point x="320" y="443" type="line"/>
      <point x="417" y="443" type="line" smooth="yes"/>
      <point x="507" y="443"/>
      <point x="562" y="428"/>
      <point x="600" y="332" type="curve" smooth="yes"/>
      <point x="679" y="132" type="line" smooth="yes"/>
      <point x="705" y="66"/>
      <point x="693" y="38"/>
      <point x="616" y="31" type="curve"/>
    </contour>
  </outline>
</glyph>
<glyph name="l" format="2">
  <advance width="496"/>
  <unicode hex="006C"/>
  <anchor x="249" y="0" name="bottom"/>
  <anchor x="248" y="585" name="center"/>
  <anchor x="456" y="0" name="exit"/>
  <anchor x="388" y="849" name="right"/>
  <anchor x="248" y="1252" name="top"/>
  <anchor x="398" y="1252" name="topright"/>
  <outline>
    <contour>
      <point x="34" y="0" type="line"/>
      <point x="76" y="2"/>
      <point x="168" y="7"/>
      <point x="249" y="7" type="curve" smooth="yes"/>
      <point x="330" y="7"/>
      <point x="421" y="2"/>
      <point x="463" y="0" type="curve"/>
      <point x="463" y="31" type="line"/>
      <point x="359" y="33"/>
      <point x="323" y="58"/>
      <point x="323" y="150" type="curve" smooth="yes"/>
      <point x="323" y="1295" type="line"/>
      <point x="274" y="1279"/>
      <point x="215" y="1272"/>
      <point x="150" y="1272" type="curve" smooth="yes"/>
      <point x="113" y="1272"/>
      <point x="76" y="1273"/>
      <point x="34" y="1277" type="curve"/>
      <point x="34" y="1246" type="line"/>
      <point x="137" y="1235"/>
      <point x="174" y="1184"/>
      <point x="174" y="1101" type="curve" smooth="yes"/>
      <point x="174" y="150" type="line" smooth="yes"/>
      <point x="174" y="58"/>
      <point x="138" y="33"/>
      <point x="34" y="31" type="curve"/>
    </contour>
  </outline>
  <guideline angle="90" x="436" y="0"/>
</glyph>
<glyph name="m" format="2">
  <advance width="1638"/>
  <unicode hex="006D"/>
  <anchor x="830" y="0" name="bottom"/>
  <anchor x="830" y="849" name="top"/>
  <outline>
    <contour>
      <point x="1173" y="0" type="line"/>
      <point x="1210" y="2"/>
      <point x="1294" y="7"/>
      <point x="1373" y="7" type="curve" smooth="yes"/>
      <point x="1459" y="7"/>
      <point x="1564" y="2"/>
      <point x="1610" y="0" type="curve"/>
      <point x="1610" y="31" type="line"/>
      <point x="1485" y="30"/>
      <point x="1446" y="61"/>
      <point x="1446" y="150" type="curve" smooth="yes"/>
      <point x="1446" y="499" type="line" smooth="yes"/>
      <point x="1446" y="746"/>
      <point x="1351" y="874"/>
      <point x="1181" y="874" type="curve" smooth="yes"/>
      <point x="1051" y="874"/>
      <point x="938" y="825"/>
      <point x="879" y="677" type="curve"/>
      <point x="883" y="613" type="line"/>
      <point x="939" y="766"/>
      <point x="1027" y="821"/>
      <point x="1126" y="821" type="curve" smooth="yes"/>
      <point x="1239" y="821"/>
      <point x="1297" y="746"/>
      <point x="1297" y="580" type="curve" smooth="yes"/>
      <point x="1297" y="150" type="line" smooth="yes"/>
      <point x="1297" y="61"/>
      <point x="1269" y="30"/>
      <point x="1173" y="31" type="curve"/>
    </contour>
    <contour>
      <point x="52" y="0" type="line"/>
      <point x="126" y="5"/>
      <point x="210" y="7"/>
      <point x="288" y="7" type="curve" smooth="yes"/>
      <point x="362" y="7"/>
      <point x="432" y="2"/>
      <point x="489" y="0" type="curve"/>
      <point x="489" y="31" type="line"/>
      <point x="393" y="30"/>
      <point x="364" y="64"/>
      <point x="364" y="150" type="curve" smooth="yes"/>
      <point x="364" y="869" type="line"/>
      <point x="308" y="852"/>
      <point x="244" y="846"/>
      <point x="175" y="846" type="curve" smooth="yes"/>
      <point x="131" y="846"/>
      <point x="89" y="845"/>
      <point x="52" y="851" type="curve"/>
      <point x="52" y="820" type="line"/>
      <point x="172" y="812"/>
      <point x="215" y="774"/>
      <point x="215" y="675" type="curve" smooth="yes"/>
      <point x="215" y="150" type="line" smooth="yes"/>
      <point x="215" y="64"/>
      <point x="176" y="30"/>
      <point x="52" y="31" type="curve"/>
    </contour>
    <contour>
      <point x="632" y="0" type="line"/>
      <point x="669" y="2"/>
      <point x="754" y="7"/>
      <point x="831" y="7" type="curve" smooth="yes"/>
      <point x="905" y="7"/>
      <point x="992" y="2"/>
      <point x="1029" y="0" type="curve"/>
      <point x="1029" y="31" type="line"/>
      <point x="933" y="30"/>
      <point x="904" y="61"/>
      <point x="904" y="150" type="curve" smooth="yes"/>
      <point x="904" y="499" type="line" smooth="yes"/>
      <point x="904" y="741"/>
      <point x="810" y="874"/>
      <point x="640" y="874" type="curve" smooth="yes"/>
      <point x="520" y="874"/>
      <point x="416" y="813"/>
      <point x="359" y="675" type="curve"/>
      <point x="358" y="602" type="line"/>
      <point x="415" y="748"/>
      <point x="495" y="821"/>
      <point x="585" y="821" type="curve" smooth="yes"/>
      <point x="698" y="821"/>
      <point x="756" y="746"/>
      <point x="756" y="580" type="curve" smooth="yes"/>
      <point x="756" y="150" type="line" smooth="yes"/>
      <point x="756" y="61"/>
      <point x="727" y="30"/>
      <point x="632" y="31" type="curve"/>
    </contour>
  </outline>
</glyph>
<glyph name="n" format="2">
  <advance width="1066"/>
  <unicode hex="006E"/>
  <anchor x="563" y="0" name="bottom"/>
  <anchor x="545" y="849" name="top"/>
  <outline>
    <contour>
      <point x="617" y="0" type="line"/>
      <point x="654" y="2"/>
      <point x="734" y="7"/>
      <point x="811" y="7" type="curve" smooth="yes"/>
      <point x="895" y="7"/>
      <point x="995" y="2"/>
      <point x="1039" y="0" type="curve"/>
      <point x="1039" y="31" type="line"/>
      <point x="921" y="30"/>
      <point x="884" y="61"/>
      <point x="884" y="150" type="curve" smooth="yes"/>
      <point x="884" y="499" type="line" smooth="yes"/>
      <point x="884" y="741"/>
      <point x="791" y="874"/>
      <point x="626" y="874" type="curve" smooth="yes"/>
      <point x="507" y="874"/>
      <point x="403" y="814"/>
      <point x="349" y="677" type="curve"/>
      <point x="348" y="601" type="line"/>
      <point x="402" y="748"/>
      <point x="479" y="821"/>
      <point x="565" y="821" type="curve" smooth="yes"/>
      <point x="678" y="821"/>
      <point x="735" y="746"/>
      <point x="735" y="580" type="curve" smooth="yes"/>
      <point x="735" y="150" type="line" smooth="yes"/>
      <point x="735" y="61"/>
      <point x="709" y="30"/>
      <point x="617" y="31" type="curve"/>
    </contour>
    <contour>
      <point x="50" y="0" type="line"/>
      <point x="112" y="5"/>
      <point x="197" y="7"/>
      <point x="278" y="7" type="curve" smooth="yes"/>
      <point x="352" y="7"/>
      <point x="421" y="2"/>
      <point x="472" y="0" type="curve"/>
      <point x="472" y="31" type="line"/>
      <point x="382" y="30"/>
      <point x="354" y="64"/>
      <point x="354" y="150" type="curve" smooth="yes"/>
      <point x="354" y="869" type="line"/>
      <point x="298" y="852"/>
      <point x="235" y="846"/>
      <point x="171" y="846" type="curve" smooth="yes"/>
      <point x="129" y="846"/>
      <point x="89" y="845"/>
      <point x="50" y="851" type="curve"/>
      <point x="50" y="820" type="line"/>
      <point x="163" y="812"/>
      <point x="205" y="774"/>
      <point x="205" y="675" type="curve" smooth="yes"/>
      <point x="205" y="150" type="line" smooth="yes"/>
      <point x="205" y="64"/>
      <point x="167" y="30"/>
      <point x="50" y="31" type="curve"/>
    </contour>
  </outline>
</glyph>
<glyph name="o" format="2">
  <advance width="1060"/>
  <unicode hex="006F"/>
  <anchor x="530" y="0" name="bottom"/>
  <anchor x="530" y="424" name="center"/>
  <anchor x="537" y="849" name="top"/>
  <anchor x="955" y="849" name="topright"/>
  <outline>
    <contour>
      <point x="530" y="-23" type="curve" smooth="yes"/>
      <point x="774" y="-23"/>
      <point x="955" y="169"/>
      <point x="955" y="424" type="curve" smooth="yes"/>
      <point x="955" y="680"/>
      <point x="774" y="874"/>
      <point x="530" y="874" type="curve" smooth="yes"/>
      <point x="286" y="874"/>
      <point x="106" y="680"/>
      <point x="106" y="424" type="curve" smooth="yes"/>
      <point x="106" y="164"/>
      <point x="287" y="-23"/>
    </contour>
    <contour>
      <point x="530" y="7" type="curve" smooth="yes"/>
      <point x="377" y="7"/>
      <point x="267" y="189"/>
      <point x="267" y="424" type="curve" smooth="yes"/>
      <point x="267" y="658"/>
      <point x="377" y="843"/>
      <point x="530" y="843" type="curve" smooth="yes"/>
      <point x="684" y="843"/>
      <point x="794" y="658"/>
      <point x="794" y="424" type="curve" smooth="yes"/>
      <point x="794" y="192"/>
      <point x="684" y="7"/>
    </contour>
  </outline>
  <guideline angle="90" x="844" y="0"/>
</glyph>
<glyph name="p" format="2">
  <advance width="1073"/>
  <unicode hex="0070"/>
  <anchor x="284" y="-382" name="bottom"/>
  <anchor x="543" y="849" name="top"/>
  <outline>
    <contour>
      <point x="39" y="-382" type="line"/>
      <point x="85" y="-380"/>
      <point x="179" y="-375"/>
      <point x="281" y="-375" type="curve" smooth="yes"/>
      <point x="385" y="-375"/>
      <point x="506" y="-380"/>
      <point x="565" y="-382" type="curve"/>
      <point x="565" y="-351" type="line"/>
      <point x="410" y="-349"/>
      <point x="352" y="-313"/>
      <point x="352" y="-219" type="curve" smooth="yes"/>
      <point x="352" y="869" type="line"/>
      <point x="298" y="852"/>
      <point x="235" y="846"/>
      <point x="162" y="846" type="curve" smooth="yes"/>
      <point x="119" y="846"/>
      <point x="76" y="847"/>
      <point x="39" y="851" type="curve"/>
      <point x="39" y="820" type="line"/>
      <point x="159" y="809"/>
      <point x="203" y="782"/>
      <point x="203" y="675" type="curve" smooth="yes"/>
      <point x="203" y="-232" type="line" smooth="yes"/>
      <point x="203" y="-323"/>
      <point x="163" y="-349"/>
      <point x="39" y="-351" type="curve"/>
    </contour>
    <contour>
      <point x="579" y="-23" type="curve" smooth="yes"/>
      <point x="811" y="-23"/>
      <point x="967" y="176"/>
      <point x="967" y="438" type="curve" smooth="yes"/>
      <point x="967" y="683"/>
      <point x="828" y="874"/>
      <point x="618" y="874" type="curve" smooth="yes"/>
      <point x="473" y="874"/>
      <point x="350" y="792"/>
      <point x="313" y="649" type="curve"/>
      <point x="319" y="574" type="line"/>
      <point x="353" y="745"/>
      <point x="459" y="822"/>
      <point x="558" y="822" type="curve" smooth="yes"/>
      <point x="714" y="822"/>
      <point x="806" y="656"/>
      <point x="806" y="414" type="curve" smooth="yes"/>
      <point x="806" y="163"/>
      <point x="709" y="22"/>
      <point x="538" y="22" type="curve" smooth="yes"/>
      <point x="439" y="22"/>
      <point x="352" y="117"/>
      <point x="323" y="229" type="curve"/>
      <point x="314" y="173" type="line"/>
      <point x="346" y="71"/>
      <point x="450" y="-23"/>
    </contour>
  </outline>
</glyph>
<glyph name="q" format="2">
  <advance width="1036"/>
  <unicode hex="0071"/>
  <anchor x="782" y="-382" name="bottom"/>
  <anchor x="505" y="849" name="top"/>
  <outline>
    <contour>
      <point x="497" y="-382" type="line"/>
      <point x="554" y="-380"/>
      <point x="673" y="-375"/>
      <point x="776" y="-375" type="curve" smooth="yes"/>
      <point x="876" y="-375"/>
      <point x="968" y="-380"/>
      <point x="1013" y="-382" type="curve"/>
      <point x="1013" y="-351" type="line"/>
      <point x="893" y="-349"/>
      <point x="854" y="-323"/>
      <point x="854" y="-232" type="curve" smooth="yes"/>
      <point x="854" y="704" type="line" smooth="yes"/>
      <point x="854" y="762"/>
      <point x="863" y="801"/>
      <point x="893" y="856" type="curve"/>
      <point x="871" y="881" type="line"/>
      <point x="835" y="815"/>
      <point x="771" y="745"/>
      <point x="705" y="699" type="curve"/>
      <point x="705" y="-219" type="line" smooth="yes"/>
      <point x="705" y="-313"/>
      <point x="648" y="-349"/>
      <point x="497" y="-351" type="curve"/>
    </contour>
    <contour>
      <point x="446" y="-23" type="curve" smooth="yes"/>
      <point x="603" y="-23"/>
      <point x="706" y="77"/>
      <point x="732" y="201" type="curve"/>
      <point x="726" y="291" type="line"/>
      <point x="702" y="124"/>
      <point x="616" y="29"/>
      <point x="505" y="29" type="curve" smooth="yes"/>
      <point x="351" y="29"/>
      <point x="259" y="192"/>
      <point x="259" y="448" type="curve" smooth="yes"/>
      <point x="259" y="689"/>
      <point x="354" y="829"/>
      <point x="516" y="829" type="curve" smooth="yes"/>
      <point x="617" y="829"/>
      <point x="689" y="766"/>
      <point x="714" y="589" type="curve"/>
      <point x="723" y="661" type="line"/>
      <point x="706" y="808"/>
      <point x="612" y="874"/>
      <point x="480" y="874" type="curve" smooth="yes"/>
      <point x="248" y="874"/>
      <point x="99" y="670"/>
      <point x="99" y="417" type="curve" smooth="yes"/>
      <point x="99" y="180"/>
      <point x="234" y="-23"/>
    </contour>
  </outline>
</glyph>
<glyph name="r" format="2">
  <advance width="712"/>
  <unicode hex="0072"/>
  <anchor x="275" y="0" name="bottom"/>
  <anchor x="352" y="849" name="top"/>
  <outline>
    <contour>
      <point x="44" y="0" type="line"/>
      <point x="84" y="2"/>
      <point x="168" y="7"/>
      <point x="254" y="7" type="curve" smooth="yes"/>
      <point x="344" y="7"/>
      <point x="446" y="2"/>
      <point x="496" y="0" type="curve"/>
      <point x="496" y="31" type="line"/>
      <point x="370" y="33"/>
      <point x="325" y="67"/>
      <point x="325" y="162" type="curve" smooth="yes"/>
      <point x="325" y="869" type="line"/>
      <point x="270" y="852"/>
      <point x="210" y="846"/>
      <point x="160" y="846" type="curve" smooth="yes"/>
      <point x="125" y="846"/>
      <point x="91" y="845"/>
      <point x="44" y="851" type="curve"/>
      <point x="44" y="820" type="line"/>
      <point x="140" y="812"/>
      <point x="176" y="774"/>
      <point x="176" y="675" type="curve" smooth="yes"/>
      <point x="176" y="150" type="line" smooth="yes"/>
      <point x="176" y="58"/>
      <point x="146" y="33"/>
      <point x="44" y="31" type="curve"/>
    </contour>
    <contour>
      <point x="597" y="578" type="curve" smooth="yes"/>
      <point x="644" y="578"/>
      <point x="674" y="637"/>
      <point x="674" y="718" type="curve" smooth="yes"/>
      <point x="674" y="810"/>
      <point x="620" y="874"/>
      <point x="538" y="874" type="curve" smooth="yes"/>
      <point x="456" y="874"/>
      <point x="359" y="833"/>
      <point x="320" y="748" type="curve"/>
      <point x="322" y="660" type="line"/>
      <point x="335" y="785"/>
      <point x="432" y="822"/>
      <point x="502" y="822" type="curve" smooth="yes"/>
      <point x="533" y="822"/>
      <point x="551" y="810"/>
      <point x="551" y="791" type="curve" smooth="yes"/>
      <point x="551" y="744"/>
      <point x="523" y="714"/>
      <point x="523" y="651" type="curve" smooth="yes"/>
      <point x="523" y="605"/>
      <point x="553" y="578"/>
    </contour>
  </outline>
</glyph>
<glyph name="s" format="2">
  <advance width="724"/>
  <unicode hex="0073"/>
  <anchor x="371" y="0" name="bottom"/>
  <anchor x="371" y="849" name="top"/>
  <outline>
    <contour>
      <point x="374" y="-23" type="curve" smooth="yes"/>
      <point x="536" y="-23"/>
      <point x="637" y="79"/>
      <point x="637" y="257" type="curve" smooth="yes"/>
      <point x="637" y="397"/>
      <point x="570" y="460"/>
      <point x="417" y="506" type="curve" smooth="yes"/>
      <point x="276" y="549"/>
      <point x="216" y="584"/>
      <point x="216" y="685" type="curve" smooth="yes"/>
      <point x="216" y="790"/>
      <point x="274" y="841"/>
      <point x="365" y="841" type="curve" smooth="yes"/>
      <point x="479" y="841"/>
      <point x="563" y="742"/>
      <point x="575" y="578" type="curve"/>
      <point x="604" y="578" type="line"/>
      <point x="598" y="724"/>
      <point x="599" y="801"/>
      <point x="608" y="869" type="curve"/>
      <point x="580" y="869" type="line"/>
      <point x="567" y="830"/>
      <point x="553" y="816"/>
      <point x="530" y="816" type="curve" smooth="yes"/>
      <point x="487" y="816"/>
      <point x="459" y="874"/>
      <point x="346" y="874" type="curve" smooth="yes"/>
      <point x="204" y="874"/>
      <point x="106" y="777"/>
      <point x="106" y="620" type="curve" smooth="yes"/>
      <point x="106" y="482"/>
      <point x="191" y="440"/>
      <point x="361" y="390" type="curve" smooth="yes"/>
      <point x="487" y="353"/>
      <point x="527" y="303"/>
      <point x="527" y="192" type="curve" smooth="yes"/>
      <point x="527" y="70"/>
      <point x="460" y="8"/>
      <point x="347" y="8" type="curve" smooth="yes"/>
      <point x="207" y="8"/>
      <point x="139" y="132"/>
      <point x="112" y="328" type="curve"/>
      <point x="83" y="328" type="line"/>
      <point x="90" y="29"/>
      <point x="88" y="-12"/>
      <point x="78" y="-19" type="curve"/>
      <point x="108" y="-19" type="line"/>
      <point x="117" y="20"/>
      <point x="142" y="34"/>
      <point x="165" y="34" type="curve" smooth="yes"/>
      <point x="202" y="34"/>
      <point x="248" y="-23"/>
    </contour>
  </outline>
</glyph>
<glyph name="t" format="2">
  <advance width="531"/>
  <unicode hex="0074"/>
  <anchor x="325" y="0" name="bottom"/>
  <anchor x="419" y="0" name="exit"/>
  <anchor x="387" y="849" name="right"/>
  <anchor x="11" y="530" name="tbar"/>
  <anchor x="232" y="1252" name="top"/>
  <anchor x="355" y="1252" name="topright"/>
  <outline>
    <contour>
      <point x="336" y="-23" type="curve" smooth="yes"/>
      <point x="437" y="-23"/>
      <point x="500" y="54"/>
      <point x="525" y="203" type="curve"/>
      <point x="502" y="210" type="line"/>
      <point x="485" y="106"/>
      <point x="436" y="28"/>
      <point x="377" y="28" type="curve" smooth="yes"/>
      <point x="317" y="28"/>
      <point x="295" y="59"/>
      <point x="295" y="124" type="curve" smooth="yes"/>
      <point x="295" y="818" type="line"/>
      <point x="494" y="818" type="line"/>
      <point x="494" y="849" type="line"/>
      <point x="295" y="849" type="line"/>
      <point x="295" y="1125" type="line"/>
      <point x="250" y="1111"/>
      <point x="198" y="1100"/>
      <point x="146" y="1101" type="curve"/>
      <point x="146" y="849" type="line"/>
      <point x="9" y="849" type="line"/>
      <point x="9" y="818" type="line"/>
      <point x="146" y="818" type="line"/>
      <point x="146" y="233" type="line" smooth="yes"/>
      <point x="146" y="51"/>
      <point x="200" y="-23"/>
    </contour>
  </outline>
  <guideline angle="90" x="7" y="0"/>
</glyph>
<glyph name="u" format="2">
  <advance width="1048"/>
  <unicode hex="0075"/>
  <anchor x="540" y="0" name="bottom"/>
  <anchor x="933" y="0" name="ogonek"/>
  <anchor x="505" y="849" name="top"/>
  <anchor x="852" y="849" name="topright"/>
  <outline>
    <contour>
      <point x="441" y="-21" type="curve" smooth="yes"/>
      <point x="558" y="-21"/>
      <point x="658" y="33"/>
      <point x="707" y="165" type="curve"/>
      <point x="709" y="238" type="line"/>
      <point x="658" y="93"/>
      <point x="582" y="28"/>
      <point x="499" y="28" type="curve" smooth="yes"/>
      <point x="386" y="28"/>
      <point x="331" y="86"/>
      <point x="331" y="236" type="curve" smooth="yes"/>
      <point x="331" y="869" type="line"/>
      <point x="265" y="851"/>
      <point x="205" y="846"/>
      <point x="139" y="846" type="curve" smooth="yes"/>
      <point x="97" y="846"/>
      <point x="52" y="847"/>
      <point x="24" y="851" type="curve"/>
      <point x="24" y="820" type="line"/>
      <point x="141" y="809"/>
      <point x="181" y="773"/>
      <point x="181" y="675" type="curve" smooth="yes"/>
      <point x="181" y="354" type="line" smooth="yes"/>
      <point x="181" y="100"/>
      <point x="274" y="-21"/>
    </contour>
    <contour>
      <point x="703" y="-19" type="line"/>
      <point x="767" y="-1"/>
      <point x="828" y="4"/>
      <point x="895" y="4" type="curve" smooth="yes"/>
      <point x="931" y="4"/>
      <point x="977" y="2"/>
      <point x="1011" y="-1" type="curve"/>
      <point x="1011" y="29" type="line"/>
      <point x="893" y="35"/>
      <point x="852" y="75"/>
      <point x="852" y="175" type="curve" smooth="yes"/>
      <point x="852" y="869" type="line"/>
      <point x="793" y="850"/>
      <point x="735" y="846"/>
      <point x="671" y="846" type="curve" smooth="yes"/>
      <point x="633" y="846"/>
      <point x="589" y="847"/>
      <point x="559" y="851" type="curve"/>
      <point x="559" y="820" type="line"/>
      <point x="667" y="809"/>
      <point x="703" y="778"/>
      <point x="703" y="675" type="curve" smooth="yes"/>
    </contour>
  </outline>
</glyph>
<glyph name="v" format="2">
  <advance width="848"/>
  <unicode hex="0076"/>
  <anchor x="433" y="0" name="bottom"/>
  <anchor x="425" y="849" name="top"/>
  <outline>
    <contour>
      <point x="448" y="-21" type="line"/>
      <point x="615" y="508" type="line" smooth="yes"/>
      <point x="674" y="694"/>
      <point x="732" y="795"/>
      <point x="830" y="818" type="curve"/>
      <point x="830" y="850" type="line"/>
      <point x="795" y="845"/>
      <point x="748" y="846"/>
      <point x="691" y="846" type="curve" smooth="yes"/>
      <point x="638" y="846"/>
      <point x="617" y="846"/>
      <point x="535" y="850" type="curve"/>
      <point x="535" y="818" type="line"/>
      <point x="689" y="811"/>
      <point x="654" y="748"/>
      <point x="617" y="628" type="curve" smooth="yes"/>
      <point x="442" y="61" type="line"/>
      <point x="503" y="177" type="line"/>
      <point x="317" y="671" type="line" smooth="yes"/>
      <point x="274" y="785"/>
      <point x="307" y="818"/>
      <point x="394" y="818" type="curve"/>
      <point x="394" y="850" type="line"/>
      <point x="331" y="846"/>
      <point x="288" y="847"/>
      <point x="180" y="847" type="curve" smooth="yes"/>
      <point x="99" y="847"/>
      <point x="55" y="849"/>
      <point x="8" y="850" type="curve"/>
      <point x="8" y="818" type="line"/>
      <point x="69" y="814"/>
      <point x="113" y="785"/>
      <point x="137" y="721" type="curve" smooth="yes"/>
      <point x="419" y="-21" type="line"/>
    </contour>
  </outline>
</glyph>
<glyph name="w" format="2">
  <advance width="1257"/>
  <unicode hex="0077"/>
  <anchor x="628" y="0" name="bottom"/>
  <anchor x="657" y="849" name="top"/>
  <outline>
    <contour>
      <point x="404" y="-21" type="line"/>
      <point x="662" y="837" type="line"/>
      <point x="632" y="857" type="line"/>
      <point x="409" y="98" type="line"/>
      <point x="461" y="184" type="line"/>
      <point x="303" y="631" type="line" smooth="yes"/>
      <point x="255" y="766"/>
      <point x="284" y="816"/>
      <point x="398" y="818" type="curve"/>
      <point x="398" y="850" type="line"/>
      <point x="342" y="846"/>
      <point x="275" y="844"/>
      <point x="188" y="844" type="curve" smooth="yes"/>
      <point x="115" y="844"/>
      <point x="46" y="845"/>
      <point x="7" y="850" type="curve"/>
      <point x="7" y="818" type="line"/>
      <point x="38" y="814"/>
      <point x="99" y="751"/>
      <point x="126" y="675" type="curve" smooth="yes"/>
      <point x="376" y="-21" type="line"/>
    </contour>
    <contour>
      <point x="874" y="-21" type="line"/>
      <point x="1067" y="638" type="line" smooth="yes"/>
      <point x="1097" y="741"/>
      <point x="1155" y="798"/>
      <point x="1239" y="818" type="curve"/>
      <point x="1239" y="850" type="line"/>
      <point x="1199" y="846"/>
      <point x="1142" y="846"/>
      <point x="1080" y="846" type="curve" smooth="yes"/>
      <point x="1032" y="846"/>
      <point x="1004" y="846"/>
      <point x="927" y="850" type="curve"/>
      <point x="928" y="818" type="line"/>
      <point x="1036" y="807"/>
      <point x="1075" y="788"/>
      <point x="1018" y="587" type="curve" smooth="yes"/>
      <point x="880" y="98" type="line"/>
      <point x="926" y="203" type="line"/>
      <point x="692" y="857" type="line"/>
      <point x="632" y="857" type="line"/>
      <point x="594" y="685" type="line"/>
      <point x="847" y="-21" type="line"/>
    </contour>
  </outline>
</glyph>
<glyph name="x" format="2">
  <advance width="913"/>
  <unicode hex="0078"/>
  <anchor x="470" y="0" name="bottom"/>
  <anchor x="887" y="0" name="bottomright"/>
  <anchor x="478" y="849" name="top"/>
  <outline>
    <contour>
      <point x="535" y="0" type="line"/>
      <point x="576" y="7"/>
      <point x="657" y="7"/>
      <point x="719" y="7" type="curve" smooth="yes"/>
      <point x="780" y="7"/>
      <point x="858" y="2"/>
      <point x="887" y="0" type="curve"/>
      <point x="887" y="31" type="line"/>
      <point x="830" y="56"/>
      <point x="779" y="122"/>
      <point x="733" y="185" type="curve" smooth="yes"/>
      <point x="346" y="715" type="line" smooth="yes"/>
      <point x="308" y="767"/>
      <point x="300" y="811"/>
      <point x="394" y="818" type="curve"/>
      <point x="394" y="850" type="line"/>
      <point x="354" y="841"/>
      <point x="272" y="843"/>
      <point x="210" y="843" type="curve" smooth="yes"/>
      <point x="150" y="843"/>
      <point x="72" y="842"/>
      <point x="37" y="850" type="curve"/>
      <point x="37" y="818" type="line"/>
      <point x="96" y="805"/>
      <point x="135" y="754"/>
      <point x="177" y="696" type="curve" smooth="yes"/>
      <point x="583" y="135" type="line" smooth="yes"/>
      <point x="622" y="81"/>
      <point x="629" y="38"/>
      <point x="535" y="31" type="curve"/>
    </contour>
    <contour>
      <point x="10" y="0" type="line"/>
      <point x="68" y="3"/>
      <point x="116" y="5"/>
      <point x="177" y="5" type="curve" smooth="yes"/>
      <point x="243" y="5"/>
      <point x="324" y="3"/>
      <point x="373" y="0" type="curve"/>
      <point x="373" y="31" type="line"/>
      <point x="222" y="46"/>
      <point x="213" y="88"/>
      <point x="329" y="244" type="curve" smooth="yes"/>
      <point x="469" y="432" type="line"/>
      <point x="443" y="444" type="line"/>
      <point x="337" y="307" type="line" smooth="yes"/>
      <point x="164" y="83"/>
      <point x="115" y="80"/>
      <point x="10" y="31" type="curve"/>
    </contour>
    <contour>
      <point x="620" y="594" type="line" smooth="yes"/>
      <point x="738" y="759"/>
      <point x="790" y="795"/>
      <point x="857" y="818" type="curve"/>
      <point x="857" y="850" type="line"/>
      <point x="811" y="846"/>
      <point x="763" y="845"/>
      <point x="708" y="845" type="curve" smooth="yes"/>
      <point x="651" y="845"/>
      <point x="611" y="846"/>
      <point x="554" y="850" type="curve"/>
      <point x="554" y="818" type="line"/>
      <point x="611" y="810"/>
      <point x="666" y="711"/>
      <point x="573" y="582" type="curve" smooth="yes"/>
      <point x="470" y="439" type="line"/>
      <point x="498" y="424" type="line"/>
    </contour>
  </outline>
</glyph>
<glyph name="y" format="2">
  <advance width="856"/>
  <unicode hex="0079"/>
  <anchor x="595" y="0" name="bottom"/>
  <anchor x="440" y="849" name="top"/>
  <outline>
    <contour>
      <point x="451" y="-21" type="line"/>
      <point x="639" y="508" type="line" smooth="yes"/>
      <point x="706" y="697"/>
      <point x="747" y="792"/>
      <point x="838" y="818" type="curve"/>
      <point x="838" y="850" type="line"/>
      <point x="804" y="845"/>
      <point x="740" y="846"/>
      <point x="698" y="846" type="curve" smooth="yes"/>
      <point x="633" y="846"/>
      <point x="610" y="846"/>
      <point x="543" y="850" type="curve"/>
      <point x="543" y="818" type="line"/>
      <point x="738" y="811"/>
      <point x="689" y="750"/>
      <point x="646" y="626" type="curve" smooth="yes"/>
      <point x="456" y="82" type="line"/>
      <point x="490" y="109" type="line"/>
      <point x="292" y="673" type="line" smooth="yes"/>
      <point x="251" y="789"/>
      <point x="276" y="820"/>
      <point x="395" y="818" type="curve"/>
      <point x="395" y="850" type="line"/>
      <point x="333" y="846"/>
      <point x="285" y="847"/>
      <point x="186" y="847" type="curve" smooth="yes"/>
      <point x="117" y="847"/>
      <point x="76" y="846"/>
      <point x="8" y="850" type="curve"/>
      <point x="8" y="818" type="line"/>
      <point x="65" y="816"/>
      <point x="95" y="778"/>
      <point x="124" y="700" type="curve" smooth="yes"/>
      <point x="391" y="-21" type="line"/>
    </contour>
    <contour>
      <point x="212" y="-405" type="curve" smooth="yes"/>
      <point x="293" y="-405"/>
      <point x="343" y="-348"/>
      <point x="380" y="-237" type="curve" smooth="yes"/>
      <point x="462" y="11" type="line"/>
      <point x="435" y="19" type="line"/>
      <point x="354" y="-209" type="line" smooth="yes"/>
      <point x="316" y="-317"/>
      <point x="284" y="-369"/>
      <point x="236" y="-369" type="curve" smooth="yes"/>
      <point x="216" y="-369"/>
      <point x="206" y="-358"/>
      <point x="206" y="-335" type="curve" smooth="yes"/>
      <point x="206" y="-290"/>
      <point x="224" y="-252"/>
      <point x="224" y="-196" type="curve" smooth="yes"/>
      <point x="224" y="-159"/>
      <point x="202" y="-131"/>
      <point x="163" y="-131" type="curve" smooth="yes"/>
      <point x="110" y="-131"/>
      <point x="74" y="-179"/>
      <point x="74" y="-252" type="curve" smooth="yes"/>
      <point x="74" y="-345"/>
      <point x="128" y="-405"/>
    </contour>
  </outline>
</glyph>
<glyph name="z" format="2">
  <advance width="822"/>
  <unicode hex="007A"/>
  <anchor x="414" y="0" name="bottom"/>
  <anchor x="413" y="849" name="top"/>
  <outline>
    <contour>
      <point x="53" y="0" type="line"/>
      <point x="168" y="3"/>
      <point x="299" y="7"/>
      <point x="419" y="7" type="curve" smooth="yes"/>
      <point x="526" y="7"/>
      <point x="635" y="3"/>
      <point x="736" y="0" type="curve"/>
      <point x="731" y="72"/>
      <point x="729" y="181"/>
      <point x="729" y="302" type="curve"/>
      <point x="697" y="302" type="line"/>
      <point x="681" y="94"/>
      <point x="603" y="35"/>
      <point x="423" y="35" type="curve" smooth="yes"/>
      <point x="235" y="35" type="line"/>
      <point x="746" y="819" type="line"/>
      <point x="746" y="849" type="line"/>
      <point x="639" y="846"/>
      <point x="520" y="842"/>
      <point x="405" y="842" type="curve" smooth="yes"/>
      <point x="297" y="842"/>
      <point x="189" y="846"/>
      <point x="88" y="849" type="curve"/>
      <point x="93" y="779"/>
      <point x="95" y="670"/>
      <point x="95" y="554" type="curve"/>
      <point x="126" y="554" type="line"/>
      <point x="143" y="739"/>
      <point x="205" y="814"/>
      <point x="402" y="814" type="curve" smooth="yes"/>
      <point x="565" y="814" type="line"/>
      <point x="53" y="30" type="line"/>
    </contour>
  </outline>
</glyph>
<glyph name="braceleft" format="2">
  <advance width="601"/>
  <unicode hex="007B"/>
  <outline>
    <contour>
      <point x="552" y="-286" type="line"/>
      <point x="390" y="-280"/>
      <point x="390" y="-275"/>
      <point x="375" y="78" type="curve" smooth="yes"/>
      <point x="363" y="311"/>
      <point x="325" y="416"/>
      <point x="150" y="492" type="curve"/>
      <point x="330" y="568"/>
      <point x="356" y="613"/>
      <point x="375" y="908" type="curve" smooth="yes"/>
      <point x="394" y="1216"/>
      <point x="364" y="1252"/>
      <point x="552" y="1262" type="curve"/>
      <point x="552" y="1292" type="line"/>
      <point x="298" y="1292"/>
      <point x="248" y="1225"/>
      <point x="227" y="910" type="curve" smooth="yes"/>
      <point x="194" y="421"/>
      <point x="190" y="507"/>
      <point x="63" y="507" type="curve" smooth="yes"/>
      <point x="52" y="507" type="line"/>
      <point x="52" y="478" type="line"/>
      <point x="63" y="478" type="line" smooth="yes"/>
      <point x="191" y="478"/>
      <point x="199" y="493"/>
      <point x="227" y="78" type="curve" smooth="yes"/>
      <point x="249" y="-273"/>
      <point x="300" y="-315"/>
      <point x="552" y="-315" type="curve"/>
    </contour>
  </outline>
  <guideline angle="0" x="0" y="-315"/>
</glyph>
<glyph name="bar" format="2">
  <advance width="1024"/>
  <unicode hex="007C"/>
  <outline>
    <contour>
      <point x="531" y="-382" type="line"/>
      <point x="531" y="1417" type="line"/>
      <point x="493" y="1417" type="line"/>
      <point x="493" y="-382" type="line"/>
    </contour>
  </outline>
</glyph>
<glyph name="braceright" format="2">
  <advance width="601"/>
  <unicode hex="007D"/>
  <outline>
    <contour>
      <point x="50" y="-315" type="line"/>
      <point x="302" y="-315"/>
      <point x="353" y="-273"/>
      <point x="375" y="78" type="curve" smooth="yes"/>
      <point x="403" y="493"/>
      <point x="411" y="478"/>
      <point x="539" y="478" type="curve" smooth="yes"/>
      <point x="550" y="478" type="line"/>
      <point x="550" y="507" type="line"/>
      <point x="539" y="507" type="line" smooth="yes"/>
      <point x="412" y="507"/>
      <point x="408" y="421"/>
      <point x="375" y="910" type="curve" smooth="yes"/>
      <point x="354" y="1225"/>
      <point x="304" y="1292"/>
      <point x="50" y="1292" type="curve"/>
      <point x="50" y="1262" type="line"/>
      <point x="238" y="1252"/>
      <point x="208" y="1216"/>
      <point x="227" y="908" type="curve" smooth="yes"/>
      <point x="246" y="613"/>
      <point x="272" y="568"/>
      <point x="452" y="492" type="curve"/>
      <point x="277" y="416"/>
      <point x="239" y="311"/>
      <point x="227" y="78" type="curve" smooth="yes"/>
      <point x="212" y="-275"/>
      <point x="212" y="-280"/>
      <point x="50" y="-286" type="curve"/>
    </contour>
  </outline>
</glyph>
<glyph name="asciitilde" format="2">
  <advance width="1365"/>
  <unicode hex="007E"/>
  <outline>
    <contour>
      <point x="845" y="385" type="curve" smooth="yes"/>
      <point x="969" y="385"/>
      <point x="1043" y="461"/>
      <point x="1051" y="586" type="curve"/>
      <point x="1021" y="599" type="line"/>
      <point x="1012" y="531"/>
      <point x="960" y="484"/>
      <point x="881" y="484" type="curve" smooth="yes"/>
      <point x="740" y="484"/>
      <point x="671" y="606"/>
      <point x="517" y="606" type="curve" smooth="yes"/>
      <point x="397" y="606"/>
      <point x="332" y="531"/>
      <point x="314" y="405" type="curve"/>
      <point x="343" y="392" type="line"/>
      <point x="361" y="460"/>
      <point x="403" y="507"/>
      <point x="484" y="507" type="curve" smooth="yes"/>
      <point x="624" y="507"/>
      <point x="694" y="385"/>
    </contour>
  </outline>
</glyph>
<glyph name="exclamdown" format="2">
  <advance width="525"/>
  <unicode hex="00A1"/>
  <anchor x="335" y="678" name="_Ldot"/>
  <outline>
    <contour>
      <point x="260" y="-395" type="curve" smooth="yes"/>
      <point x="308" y="-395"/>
      <point x="339" y="-361"/>
      <point x="339" y="-306" type="curve" smooth="yes"/>
      <point x="339" y="-240"/>
      <point x="274" y="34"/>
      <point x="276" y="464" type="curve"/>
      <point x="246" y="464" type="line"/>
      <point x="248" y="34"/>
      <point x="186" y="-241"/>
      <point x="186" y="-307" type="curve" smooth="yes"/>
      <point x="186" y="-362"/>
      <point x="215" y="-395"/>
    </contour>
    <contour>
      <point x="263" y="655" type="curve" smooth="yes"/>
      <point x="316" y="655"/>
      <point x="364" y="706"/>
      <point x="364" y="764" type="curve" smooth="yes"/>
      <point x="364" y="822"/>
      <point x="316" y="874"/>
      <point x="263" y="874" type="curve" smooth="yes"/>
      <point x="210" y="874"/>
      <point x="162" y="822"/>
      <point x="162" y="764" type="curve" smooth="yes"/>
      <point x="162" y="706"/>
      <point x="210" y="655"/>
    </contour>
  </outline>
  <guideline angle="0" x="0" y="464"/>
</glyph>
<glyph name="cent" format="2">
  <advance width="1007"/>
  <unicode hex="00A2"/>
  <anchor x="680" y="0" name="bottom"/>
  <anchor x="670" y="849" name="top"/>
  <outline>
    <contour>
      <point x="524" y="-23" type="curve" smooth="yes"/>
      <point x="661" y="-23"/>
      <point x="770" y="72"/>
      <point x="794" y="218" type="curve"/>
      <point x="762" y="225" type="line"/>
      <point x="736" y="105"/>
      <point x="666" y="31"/>
      <point x="565" y="31" type="curve" smooth="yes"/>
      <point x="441" y="31"/>
      <point x="373" y="179"/>
      <point x="373" y="442" type="curve" smooth="yes"/>
      <point x="373" y="704"/>
      <point x="434" y="845"/>
      <point x="545" y="845" type="curve" smooth="yes"/>
      <point x="612" y="845"/>
      <point x="673" y="814"/>
      <point x="673" y="777" type="curve" smooth="yes"/>
      <point x="673" y="744"/>
      <point x="638" y="723"/>
      <point x="638" y="659" type="curve" smooth="yes"/>
      <point x="638" y="618"/>
      <point x="669" y="588"/>
      <point x="712" y="588" type="curve" smooth="yes"/>
      <point x="760" y="588"/>
      <point x="791" y="624"/>
      <point x="791" y="680" type="curve" smooth="yes"/>
      <point x="791" y="787"/>
      <point x="679" y="874"/>
      <point x="540" y="874" type="curve" smooth="yes"/>
      <point x="344" y="874"/>
      <point x="214" y="693"/>
      <point x="214" y="420" type="curve" smooth="yes"/>
      <point x="214" y="155"/>
      <point x="339" y="-23"/>
    </contour>
    <contour>
      <point x="553" y="-301" type="line"/>
      <point x="553" y="2" type="line"/>
      <point x="523" y="2" type="line"/>
      <point x="523" y="-301" type="line"/>
    </contour>
    <contour>
      <point x="553" y="863" type="line"/>
      <point x="553" y="1169" type="line"/>
      <point x="523" y="1169" type="line"/>
      <point x="523" y="863" type="line"/>
    </contour>
  </outline>
</glyph>
<glyph name="sterling" format="2">
  <advance width="1007"/>
  <unicode hex="00A3"/>
  <outline>
    <contour>
      <point x="134" y="-18" type="curve" smooth="yes"/>
      <point x="159" y="-18"/>
      <point x="181" y="15"/>
      <point x="211" y="52" type="curve"/>
      <point x="246" y="87"/>
      <point x="285" y="103"/>
      <point x="334" y="103" type="curve" smooth="yes"/>
      <point x="464" y="103"/>
      <point x="550" y="-23"/>
      <point x="675" y="-23" type="curve" smooth="yes"/>
      <point x="801" y="-23"/>
      <point x="907" y="90"/>
      <point x="907" y="225" type="curve" smooth="yes"/>
      <point x="907" y="306"/>
      <point x="869" y="361"/>
      <point x="810" y="361" type="curve" smooth="yes"/>
      <point x="765" y="361"/>
      <point x="732" y="331"/>
      <point x="732" y="296" type="curve" smooth="yes"/>
      <point x="732" y="239"/>
      <point x="850" y="194"/>
      <point x="850" y="158" type="curve" smooth="yes"/>
      <point x="850" y="132"/>
      <point x="809" y="110"/>
      <point x="761" y="110" type="curve" smooth="yes"/>
      <point x="612" y="110"/>
      <point x="530" y="182"/>
      <point x="427" y="182" type="curve" smooth="yes"/>
      <point x="363" y="182"/>
      <point x="302" y="155"/>
      <point x="240" y="92" type="curve"/>
      <point x="361" y="262"/>
      <point x="402" y="372"/>
      <point x="402" y="525" type="curve" smooth="yes"/>
      <point x="402" y="796" type="line" smooth="yes"/>
      <point x="402" y="1058"/>
      <point x="452" y="1157"/>
      <point x="614" y="1157" type="curve" smooth="yes"/>
      <point x="667" y="1157"/>
      <point x="695" y="1130"/>
      <point x="695" y="1100" type="curve" smooth="yes"/>
      <point x="695" y="1063"/>
      <point x="650" y="1030"/>
      <point x="650" y="972" type="curve" smooth="yes"/>
      <point x="650" y="928"/>
      <point x="678" y="900"/>
      <point x="723" y="900" type="curve" smooth="yes"/>
      <point x="778" y="900"/>
      <point x="813" y="939"/>
      <point x="813" y="1002" type="curve" smooth="yes"/>
      <point x="813" y="1111"/>
      <point x="709" y="1192"/>
      <point x="568" y="1192" type="curve" smooth="yes"/>
      <point x="363" y="1192"/>
      <point x="249" y="1033"/>
      <point x="249" y="749" type="curve" smooth="yes"/>
      <point x="249" y="426" type="line" smooth="yes"/>
      <point x="249" y="209"/>
      <point x="241" y="155"/>
      <point x="208" y="79" type="curve"/>
      <point x="145" y="48"/>
      <point x="114" y="20"/>
      <point x="114" y="0" type="curve" smooth="yes"/>
      <point x="114" y="-11"/>
      <point x="122" y="-18"/>
    </contour>
    <contour>
      <point x="686" y="477" type="line"/>
      <point x="686" y="507" type="line"/>
      <point x="101" y="507" type="line"/>
      <point x="101" y="477" type="line"/>
    </contour>
    <contour>
      <point x="686" y="653" type="line"/>
      <point x="686" y="682" type="line"/>
      <point x="101" y="682" type="line"/>
      <point x="101" y="653" type="line"/>
    </contour>
  </outline>
  <guideline angle="0" x="0" y="1192"/>
</glyph>
<glyph name="currency" format="2">
  <advance width="1007"/>
  <unicode hex="00A4"/>
  <outline>
    <contour>
      <point x="293" y="257" type="line"/>
      <point x="346" y="208"/>
      <point x="420" y="175"/>
      <point x="504" y="175" type="curve" smooth="yes"/>
      <point x="587" y="175"/>
      <point x="665" y="210"/>
      <point x="715" y="259" type="curve"/>
      <point x="791" y="183" type="line"/>
      <point x="818" y="210" type="line"/>
      <point x="742" y="285" type="line"/>
      <point x="793" y="341"/>
      <point x="825" y="413"/>
      <point x="825" y="495" type="curve" smooth="yes"/>
      <point x="825" y="578"/>
      <point x="795" y="650"/>
      <point x="742" y="705" type="curve"/>
      <point x="818" y="784" type="line"/>
      <point x="791" y="811" type="line"/>
      <point x="715" y="732" type="line"/>
      <point x="660" y="787"/>
      <point x="583" y="817"/>
      <point x="504" y="817" type="curve" smooth="yes"/>
      <point x="427" y="817"/>
      <point x="349" y="787"/>
      <point x="291" y="734" type="curve"/>
      <point x="217" y="809" type="line"/>
      <point x="191" y="783" type="line"/>
      <point x="265" y="707" type="line"/>
      <point x="213" y="650"/>
      <point x="183" y="573"/>
      <point x="183" y="495" type="curve" smooth="yes"/>
      <point x="183" y="422"/>
      <point x="209" y="341"/>
      <point x="266" y="284" type="curve"/>
      <point x="192" y="210" type="line"/>
      <point x="219" y="184" type="line"/>
    </contour>
    <contour>
      <point x="504" y="206" type="curve" smooth="yes"/>
      <point x="346" y="206"/>
      <point x="215" y="337"/>
      <point x="215" y="495" type="curve" smooth="yes"/>
      <point x="215" y="653"/>
      <point x="343" y="787"/>
      <point x="504" y="787" type="curve" smooth="yes"/>
      <point x="662" y="787"/>
      <point x="793" y="652"/>
      <point x="793" y="495" type="curve" smooth="yes"/>
      <point x="793" y="337"/>
      <point x="662" y="206"/>
    </contour>
  </outline>
</glyph>
<glyph name="yen" format="2">
  <advance width="1007"/>
  <unicode hex="00A5"/>
  <anchor x="593" y="0" name="bottom"/>
  <anchor x="591" y="1169" name="top"/>
  <outline>
    <contour>
      <point x="539" y="329" type="line"/>
      <point x="792" y="934" type="line" smooth="yes"/>
      <point x="847" y="1065"/>
      <point x="905" y="1123"/>
      <point x="990" y="1139" type="curve"/>
      <point x="990" y="1169" type="line"/>
      <point x="960" y="1166"/>
      <point x="894" y="1164"/>
      <point x="830" y="1164" type="curve" smooth="yes"/>
      <point x="745" y="1164"/>
      <point x="688" y="1165"/>
      <point x="644" y="1169" type="curve"/>
      <point x="644" y="1139" type="line"/>
      <point x="783" y="1122"/>
      <point x="822" y="1067"/>
      <point x="765" y="935" type="curve" smooth="yes"/>
      <point x="554" y="445" type="line"/>
      <point x="595" y="477" type="line"/>
      <point x="363" y="998" type="line" smooth="yes"/>
      <point x="314" y="1108"/>
      <point x="328" y="1131"/>
      <point x="438" y="1140" type="curve"/>
      <point x="438" y="1169" type="line"/>
      <point x="394" y="1167"/>
      <point x="328" y="1164"/>
      <point x="232" y="1164" type="curve" smooth="yes"/>
      <point x="141" y="1164"/>
      <point x="64" y="1167"/>
      <point x="17" y="1169" type="curve"/>
      <point x="17" y="1140" type="line"/>
      <point x="116" y="1137"/>
      <point x="142" y="1122"/>
      <point x="188" y="1021" type="curve" smooth="yes"/>
      <point x="500" y="329" type="line"/>
    </contour>
    <contour>
      <point x="285" y="0" type="line"/>
      <point x="329" y="3"/>
      <point x="416" y="5"/>
      <point x="529" y="5" type="curve" smooth="yes"/>
      <point x="642" y="5"/>
      <point x="730" y="3"/>
      <point x="775" y="0" type="curve"/>
      <point x="775" y="31" type="line"/>
      <point x="636" y="38"/>
      <point x="606" y="54"/>
      <point x="606" y="189" type="curve" smooth="yes"/>
      <point x="606" y="500" type="line"/>
      <point x="551" y="395" type="line"/>
      <point x="452" y="514" type="line"/>
      <point x="452" y="189" type="line" smooth="yes"/>
      <point x="452" y="55"/>
      <point x="422" y="38"/>
      <point x="285" y="31" type="curve"/>
    </contour>
    <contour>
      <point x="867" y="267" type="line"/>
      <point x="867" y="298" type="line"/>
      <point x="192" y="298" type="line"/>
      <point x="192" y="267" type="line"/>
    </contour>
    <contour>
      <point x="523" y="444" type="line"/>
      <point x="510" y="473" type="line"/>
      <point x="192" y="473" type="line"/>
      <point x="192" y="444" type="line"/>
    </contour>
    <contour>
      <point x="867" y="444" type="line"/>
      <point x="867" y="473" type="line"/>
      <point x="599" y="473" type="line"/>
      <point x="583" y="444" type="line"/>
    </contour>
  </outline>
</glyph>
<glyph name="brokenbar" format="2">
  <advance width="106"/>
  <unicode hex="00A6"/>
  <outline>
    <contour>
      <point x="72" y="-382" type="line"/>
      <point x="72" y="538" type="line"/>
      <point x="34" y="538" type="line"/>
      <point x="34" y="-382" type="line"/>
    </contour>
    <contour>
      <point x="72" y="634" type="line"/>
      <point x="72" y="1417" type="line"/>
      <point x="34" y="1417" type="line"/>
      <point x="34" y="634" type="line"/>
    </contour>
  </outline>
</glyph>
<glyph name="section" format="2">
  <advance width="1007"/>
  <unicode hex="00A7"/>
  <outline>
    <contour>
      <point x="651" y="90" type="line"/>
      <point x="772" y="160"/>
      <point x="819" y="250"/>
      <point x="819" y="357" type="curve" smooth="yes"/>
      <point x="819" y="523"/>
      <point x="729" y="590"/>
      <point x="606" y="690" type="curve" smooth="yes"/>
      <point x="444" y="822"/>
      <point x="386" y="879"/>
      <point x="386" y="995" type="curve" smooth="yes"/>
      <point x="386" y="1098"/>
      <point x="455" y="1162"/>
      <point x="540" y="1162" type="curve" smooth="yes"/>
      <point x="597" y="1162"/>
      <point x="641" y="1134"/>
      <point x="641" y="1095" type="curve" smooth="yes"/>
      <point x="641" y="1061"/>
      <point x="613" y="1029"/>
      <point x="613" y="976" type="curve" smooth="yes"/>
      <point x="613" y="929"/>
      <point x="643" y="903"/>
      <point x="686" y="903" type="curve" smooth="yes"/>
      <point x="736" y="903"/>
      <point x="764" y="938"/>
      <point x="764" y="997" type="curve" smooth="yes"/>
      <point x="764" y="1104"/>
      <point x="657" y="1192"/>
      <point x="521" y="1192" type="curve" smooth="yes"/>
      <point x="366" y="1192"/>
      <point x="261" y="1083"/>
      <point x="261" y="936" type="curve" smooth="yes"/>
      <point x="261" y="791"/>
      <point x="339" y="696"/>
      <point x="507" y="567" type="curve" smooth="yes"/>
      <point x="672" y="439"/>
      <point x="716" y="376"/>
      <point x="716" y="278" type="curve" smooth="yes"/>
      <point x="716" y="207"/>
      <point x="665" y="139"/>
      <point x="631" y="108" type="curve"/>
    </contour>
    <contour>
      <point x="486" y="-395" type="curve" smooth="yes"/>
      <point x="639" y="-395"/>
      <point x="746" y="-286"/>
      <point x="746" y="-138" type="curve" smooth="yes"/>
      <point x="746" y="7"/>
      <point x="665" y="104"/>
      <point x="499" y="232" type="curve" smooth="yes"/>
      <point x="333" y="360"/>
      <point x="290" y="423"/>
      <point x="290" y="519" type="curve" smooth="yes"/>
      <point x="290" y="591"/>
      <point x="342" y="660"/>
      <point x="375" y="690" type="curve"/>
      <point x="356" y="709" type="line"/>
      <point x="234" y="638"/>
      <point x="188" y="549"/>
      <point x="188" y="442" type="curve" smooth="yes"/>
      <point x="188" y="274"/>
      <point x="278" y="209"/>
      <point x="401" y="109" type="curve" smooth="yes"/>
      <point x="563" y="-22"/>
      <point x="618" y="-79"/>
      <point x="618" y="-198" type="curve" smooth="yes"/>
      <point x="618" y="-299"/>
      <point x="550" y="-364"/>
      <point x="466" y="-364" type="curve" smooth="yes"/>
      <point x="407" y="-364"/>
      <point x="365" y="-337"/>
      <point x="365" y="-297" type="curve" smooth="yes"/>
      <point x="365" y="-263"/>
      <point x="393" y="-232"/>
      <point x="393" y="-179" type="curve" smooth="yes"/>
      <point x="393" y="-131"/>
      <point x="361" y="-104"/>
      <point x="320" y="-104" type="curve" smooth="yes"/>
      <point x="270" y="-104"/>
      <point x="240" y="-140"/>
      <point x="240" y="-198" type="curve" smooth="yes"/>
      <point x="240" y="-306"/>
      <point x="348" y="-395"/>
    </contour>
  </outline>
</glyph>
<glyph name="dieresis" format="2">
  <advance width="675"/>
  <unicode hex="00A8"/>
  <anchor x="338" y="849" name="_top"/>
  <anchor x="338" y="1252" name="top"/>
  <outline>
    <contour>
      <point x="489" y="1063" type="curve" smooth="yes"/>
      <point x="542" y="1063"/>
      <point x="584" y="1104"/>
      <point x="584" y="1158" type="curve" smooth="yes"/>
      <point x="584" y="1211"/>
      <point x="542" y="1253"/>
      <point x="489" y="1253" type="curve" smooth="yes"/>
      <point x="434" y="1253"/>
      <point x="393" y="1211"/>
      <point x="393" y="1158" type="curve" smooth="yes"/>
      <point x="393" y="1104"/>
      <point x="434" y="1063"/>
    </contour>
    <contour>
      <point x="188" y="1063" type="curve" smooth="yes"/>
      <point x="240" y="1063"/>
      <point x="283" y="1104"/>
      <point x="283" y="1158" type="curve" smooth="yes"/>
      <point x="283" y="1211"/>
      <point x="240" y="1253"/>
      <point x="188" y="1253" type="curve" smooth="yes"/>
      <point x="134" y="1253"/>
      <point x="92" y="1211"/>
      <point x="92" y="1158" type="curve" smooth="yes"/>
      <point x="92" y="1104"/>
      <point x="134" y="1063"/>
    </contour>
  </outline>
</glyph>
<glyph name="copyright" format="2">
  <advance width="1638"/>
  <unicode hex="00A9"/>
  <outline>
    <contour>
      <point x="819" y="-23" type="curve" smooth="yes"/>
      <point x="1183" y="-23"/>
      <point x="1477" y="271"/>
      <point x="1477" y="634" type="curve" smooth="yes"/>
      <point x="1477" y="998"/>
      <point x="1183" y="1292"/>
      <point x="819" y="1292" type="curve" smooth="yes"/>
      <point x="456" y="1292"/>
      <point x="162" y="998"/>
      <point x="162" y="634" type="curve" smooth="yes"/>
      <point x="162" y="271"/>
      <point x="456" y="-23"/>
    </contour>
    <contour>
      <point x="830" y="191" type="curve" smooth="yes"/>
      <point x="965" y="191"/>
      <point x="1072" y="281"/>
      <point x="1099" y="422" type="curve"/>
      <point x="1068" y="429" type="line"/>
      <point x="1041" y="303"/>
      <point x="960" y="243"/>
      <point x="866" y="243" type="curve" smooth="yes"/>
      <point x="738" y="243"/>
      <point x="654" y="384"/>
      <point x="654" y="640" type="curve" smooth="yes"/>
      <point x="654" y="904"/>
      <point x="727" y="1052"/>
      <point x="851" y="1052" type="curve" smooth="yes"/>
      <point x="920" y="1052"/>
      <point x="978" y="1021"/>
      <point x="978" y="985" type="curve" smooth="yes"/>
      <point x="978" y="950"/>
      <point x="942" y="928"/>
      <point x="942" y="863" type="curve" smooth="yes"/>
      <point x="942" y="823"/>
      <point x="972" y="796"/>
      <point x="1014" y="796" type="curve" smooth="yes"/>
      <point x="1064" y="796"/>
      <point x="1097" y="833"/>
      <point x="1097" y="890" type="curve" smooth="yes"/>
      <point x="1097" y="994"/>
      <point x="984" y="1079"/>
      <point x="847" y="1079" type="curve" smooth="yes"/>
      <point x="641" y="1079"/>
      <point x="494" y="890"/>
      <point x="494" y="618" type="curve" smooth="yes"/>
      <point x="494" y="365"/>
      <point x="632" y="191"/>
    </contour>
    <contour>
      <point x="819" y="12" type="curve" smooth="yes"/>
      <point x="476" y="12"/>
      <point x="201" y="292"/>
      <point x="201" y="634" type="curve" smooth="yes"/>
      <point x="201" y="977"/>
      <point x="476" y="1256"/>
      <point x="819" y="1256" type="curve" smooth="yes"/>
      <point x="1162" y="1256"/>
      <point x="1438" y="977"/>
      <point x="1438" y="634" type="curve" smooth="yes"/>
      <point x="1438" y="292"/>
      <point x="1162" y="12"/>
    </contour>
  </outline>
</glyph>
<glyph name="ordfeminine" format="2">
  <advance width="752"/>
  <unicode hex="00AA"/>
  <outline>
    <contour>
      <point x="271" y="595" type="curve" smooth="yes"/>
      <point x="342" y="595"/>
      <point x="394" y="630"/>
      <point x="419" y="690" type="curve"/>
      <point x="423" y="629"/>
      <point x="461" y="595"/>
      <point x="536" y="595" type="curve" smooth="yes"/>
      <point x="577" y="595"/>
      <point x="596" y="608"/>
      <point x="639" y="636" type="curve"/>
      <point x="627" y="663" type="line"/>
      <point x="617" y="657"/>
      <point x="599" y="640"/>
      <point x="578" y="640" type="curve" smooth="yes"/>
      <point x="557" y="640"/>
      <point x="548" y="653"/>
      <point x="548" y="688" type="curve" smooth="yes"/>
      <point x="548" y="998" type="line" smooth="yes"/>
      <point x="548" y="1085"/>
      <point x="538" y="1120"/>
      <point x="502" y="1150" type="curve" smooth="yes"/>
      <point x="468" y="1179"/>
      <point x="421" y="1191"/>
      <point x="359" y="1191" type="curve" smooth="yes"/>
      <point x="232" y="1191"/>
      <point x="137" y="1130"/>
      <point x="137" y="1055" type="curve" smooth="yes"/>
      <point x="137" y="1013"/>
      <point x="166" y="988"/>
      <point x="201" y="988" type="curve" smooth="yes"/>
      <point x="229" y="988"/>
      <point x="253" y="1011"/>
      <point x="253" y="1043" type="curve" smooth="yes"/>
      <point x="253" y="1071"/>
      <point x="234" y="1098"/>
      <point x="234" y="1114" type="curve" smooth="yes"/>
      <point x="234" y="1139"/>
      <point x="290" y="1163"/>
      <point x="348" y="1163" type="curve" smooth="yes"/>
      <point x="394" y="1163"/>
      <point x="416" y="1137"/>
      <point x="416" y="1075" type="curve" smooth="yes"/>
      <point x="416" y="989" type="line" smooth="yes"/>
      <point x="416" y="900"/>
      <point x="114" y="923"/>
      <point x="114" y="737" type="curve" smooth="yes"/>
      <point x="114" y="650"/>
      <point x="179" y="595"/>
    </contour>
    <contour>
      <point x="321" y="651" type="curve" smooth="yes"/>
      <point x="275" y="651"/>
      <point x="247" y="685"/>
      <point x="247" y="744" type="curve" smooth="yes"/>
      <point x="247" y="875"/>
      <point x="405" y="891"/>
      <point x="416" y="957" type="curve"/>
      <point x="416" y="720" type="line"/>
      <point x="389" y="675"/>
      <point x="350" y="651"/>
    </contour>
  </outline>
</glyph>
<glyph name="guillemotleft" format="2">
  <advance width="812"/>
  <unicode hex="00AB"/>
  <outline>
    <contour>
      <point x="386" y="437" type="line"/>
      <point x="386" y="415" type="line"/>
      <point x="773" y="-23" type="line"/>
      <point x="797" y="-8" type="line"/>
      <point x="539" y="445" type="line"/>
      <point x="797" y="857" type="line"/>
      <point x="775" y="874" type="line"/>
    </contour>
    <contour>
      <point x="16" y="437" type="line"/>
      <point x="16" y="415" type="line"/>
      <point x="403" y="-23" type="line"/>
      <point x="427" y="-8" type="line"/>
      <point x="169" y="445" type="line"/>
      <point x="427" y="857" type="line"/>
      <point x="405" y="874" type="line"/>
    </contour>
  </outline>
</glyph>
<glyph name="logicalnot" format="2">
  <advance width="1024"/>
  <unicode hex="00AC"/>
  <outline>
    <contour>
      <point x="925" y="252" type="line"/>
      <point x="925" y="611" type="line"/>
      <point x="99" y="611" type="line"/>
      <point x="99" y="576" type="line"/>
      <point x="888" y="576" type="line"/>
      <point x="888" y="252" type="line"/>
    </contour>
  </outline>
</glyph>
<glyph name="registered" format="2">
  <advance width="1638"/>
  <unicode hex="00AE"/>
  <outline>
    <contour>
      <point x="820" y="364" type="curve" smooth="yes"/>
      <point x="1077" y="364"/>
      <point x="1286" y="573"/>
      <point x="1286" y="831" type="curve" smooth="yes"/>
      <point x="1286" y="1088"/>
      <point x="1077" y="1298"/>
      <point x="820" y="1298" type="curve" smooth="yes"/>
      <point x="562" y="1298"/>
      <point x="353" y="1088"/>
      <point x="353" y="831" type="curve" smooth="yes"/>
      <point x="353" y="573"/>
      <point x="562" y="364"/>
    </contour>
    <contour>
      <point x="820" y="386" type="curve" smooth="yes"/>
      <point x="575" y="386"/>
      <point x="377" y="586"/>
      <point x="377" y="831" type="curve" smooth="yes"/>
      <point x="377" y="1077"/>
      <point x="575" y="1276"/>
      <point x="820" y="1276" type="curve" smooth="yes"/>
      <point x="1065" y="1276"/>
      <point x="1262" y="1077"/>
      <point x="1262" y="831" type="curve" smooth="yes"/>
      <point x="1262" y="586"/>
      <point x="1065" y="386"/>
    </contour>
    <contour>
      <point x="591" y="558" type="line"/>
      <point x="591" y="559"/>
      <point x="607" y="560"/>
      <point x="697" y="560" type="curve" smooth="yes"/>
      <point x="802" y="560"/>
      <point x="808" y="559"/>
      <point x="805" y="558" type="curve"/>
      <point x="805" y="574" type="line"/>
      <point x="756" y="577"/>
      <point x="749" y="586"/>
      <point x="749" y="637" type="curve" smooth="yes"/>
      <point x="749" y="1120" type="line"/>
      <point x="789" y="1120" type="line" smooth="yes"/>
      <point x="867" y="1120"/>
      <point x="900" y="1079"/>
      <point x="900" y="990" type="curve" smooth="yes"/>
      <point x="900" y="894"/>
      <point x="866" y="853"/>
      <point x="789" y="853" type="curve" smooth="yes"/>
      <point x="694" y="853" type="line"/>
      <point x="694" y="836" type="line"/>
      <point x="794" y="836" type="line" smooth="yes"/>
      <point x="922" y="836"/>
      <point x="1000" y="900"/>
      <point x="1000" y="995" type="curve" smooth="yes"/>
      <point x="1000" y="1081"/>
      <point x="932" y="1134"/>
      <point x="824" y="1134" type="curve" smooth="yes"/>
      <point x="804" y="1134"/>
      <point x="751" y="1134"/>
      <point x="696" y="1134" type="curve" smooth="yes"/>
      <point x="623" y="1134"/>
      <point x="606" y="1134"/>
      <point x="591" y="1134" type="curve"/>
      <point x="591" y="1120" type="line"/>
      <point x="643" y="1118"/>
      <point x="655" y="1107"/>
      <point x="655" y="1053" type="curve" smooth="yes"/>
      <point x="655" y="637" type="line" smooth="yes"/>
      <point x="655" y="586"/>
      <point x="643" y="577"/>
      <point x="591" y="574" type="curve"/>
    </contour>
    <contour>
      <point x="986" y="543" type="curve" smooth="yes"/>
      <point x="1036" y="543"/>
      <point x="1066" y="563"/>
      <point x="1084" y="602" type="curve"/>
      <point x="1075" y="613" type="line"/>
      <point x="1062" y="591"/>
      <point x="1052" y="580"/>
      <point x="1038" y="580" type="curve" smooth="yes"/>
      <point x="1021" y="580"/>
      <point x="1007" y="598"/>
      <point x="1003" y="617" type="curve" smooth="yes"/>
      <point x="987" y="694" type="line" smooth="yes"/>
      <point x="961" y="817"/>
      <point x="928" y="845"/>
      <point x="795" y="843" type="curve"/>
      <point x="779" y="848" type="line"/>
      <point x="782" y="836" type="line"/>
      <point x="863" y="836"/>
      <point x="861" y="810"/>
      <point x="874" y="748" type="curve" smooth="yes"/>
      <point x="905" y="603" type="line" smooth="yes"/>
      <point x="913" y="565"/>
      <point x="939" y="543"/>
    </contour>
  </outline>
</glyph>
<glyph name="degree" format="2">
  <advance width="560"/>
  <unicode hex="00B0"/>
  <outline>
    <contour>
      <point x="279" y="875" type="curve" smooth="yes"/>
      <point x="381" y="875"/>
      <point x="470" y="960"/>
      <point x="470" y="1090" type="curve" smooth="yes"/>
      <point x="470" y="1220"/>
      <point x="381" y="1305"/>
      <point x="280" y="1305" type="curve" smooth="yes"/>
      <point x="179" y="1305"/>
      <point x="91" y="1220"/>
      <point x="91" y="1090" type="curve" smooth="yes"/>
      <point x="91" y="960"/>
      <point x="179" y="875"/>
    </contour>
    <contour>
      <point x="280" y="904" type="curve" smooth="yes"/>
      <point x="196" y="904"/>
      <point x="124" y="976"/>
      <point x="124" y="1089" type="curve" smooth="yes"/>
      <point x="124" y="1202"/>
      <point x="196" y="1275"/>
      <point x="280" y="1275" type="curve" smooth="yes"/>
      <point x="363" y="1275"/>
      <point x="437" y="1203"/>
      <point x="437" y="1089" type="curve" smooth="yes"/>
      <point x="437" y="976"/>
      <point x="364" y="904"/>
    </contour>
  </outline>
</glyph>
<glyph name="plusminus" format="2">
  <advance width="1007"/>
  <unicode hex="00B1"/>
  <outline>
    <contour>
      <point x="917" y="7" type="line"/>
      <point x="917" y="41" type="line"/>
      <point x="91" y="41" type="line"/>
      <point x="91" y="7" type="line"/>
    </contour>
    <contour>
      <point x="522" y="173" type="line"/>
      <point x="522" y="569" type="line"/>
      <point x="917" y="569" type="line"/>
      <point x="917" y="603" type="line"/>
      <point x="522" y="603" type="line"/>
      <point x="522" y="1001" type="line"/>
      <point x="485" y="1001" type="line"/>
      <point x="485" y="603" type="line"/>
      <point x="91" y="603" type="line"/>
      <point x="91" y="569" type="line"/>
      <point x="485" y="569" type="line"/>
      <point x="485" y="173" type="line"/>
    </contour>
  </outline>
</glyph>
<glyph name="twosuperior" format="2">
  <advance width="653"/>
  <unicode hex="00B2"/>
  <outline>
    <contour>
      <point x="569" y="714" type="curve"/>
      <point x="565" y="777"/>
      <point x="563" y="832"/>
      <point x="563" y="911" type="curve"/>
      <point x="536" y="911" type="line"/>
      <point x="530" y="852"/>
      <point x="503" y="831"/>
      <point x="443" y="831" type="curve" smooth="yes"/>
      <point x="204" y="831" type="line"/>
      <point x="204" y="837" type="line"/>
      <point x="405" y="1000"/>
      <point x="516" y="1150"/>
      <point x="516" y="1263" type="curve" smooth="yes"/>
      <point x="516" y="1358"/>
      <point x="440" y="1421"/>
      <point x="327" y="1421" type="curve" smooth="yes"/>
      <point x="194" y="1421"/>
      <point x="84" y="1339"/>
      <point x="84" y="1237" type="curve" smooth="yes"/>
      <point x="84" y="1186"/>
      <point x="111" y="1156"/>
      <point x="157" y="1156" type="curve" smooth="yes"/>
      <point x="199" y="1156"/>
      <point x="228" y="1180"/>
      <point x="228" y="1215" type="curve" smooth="yes"/>
      <point x="228" y="1263"/>
      <point x="176" y="1289"/>
      <point x="176" y="1323" type="curve" smooth="yes"/>
      <point x="176" y="1352"/>
      <point x="224" y="1382"/>
      <point x="273" y="1382" type="curve" smooth="yes"/>
      <point x="341" y="1382"/>
      <point x="373" y="1331"/>
      <point x="373" y="1240" type="curve" smooth="yes"/>
      <point x="373" y="1085"/>
      <point x="265" y="910"/>
      <point x="83" y="746" type="curve"/>
      <point x="83" y="720" type="line"/>
      <point x="509" y="720" type="line" smooth="yes"/>
      <point x="558" y="720"/>
      <point x="564" y="719"/>
    </contour>
  </outline>
</glyph>
<glyph name="threesuperior" format="2">
  <advance width="653"/>
  <unicode hex="00B3"/>
  <outline>
    <contour>
      <point x="301" y="522" type="curve" smooth="yes"/>
      <point x="466" y="522"/>
      <point x="578" y="619"/>
      <point x="578" y="754" type="curve" smooth="yes"/>
      <point x="578" y="861"/>
      <point x="497" y="955"/>
      <point x="364" y="974" type="curve"/>
      <point x="492" y="1031"/>
      <point x="565" y="1120"/>
      <point x="565" y="1223" type="curve" smooth="yes"/>
      <point x="565" y="1339"/>
      <point x="479" y="1421"/>
      <point x="345" y="1421" type="curve" smooth="yes"/>
      <point x="207" y="1421"/>
      <point x="90" y="1335"/>
      <point x="90" y="1236" type="curve" smooth="yes"/>
      <point x="90" y="1188"/>
      <point x="119" y="1159"/>
      <point x="166" y="1159" type="curve" smooth="yes"/>
      <point x="206" y="1159"/>
      <point x="237" y="1184"/>
      <point x="237" y="1221" type="curve" smooth="yes"/>
      <point x="237" y="1266"/>
      <point x="184" y="1293"/>
      <point x="184" y="1325" type="curve" smooth="yes"/>
      <point x="184" y="1355"/>
      <point x="231" y="1380"/>
      <point x="284" y="1380" type="curve" smooth="yes"/>
      <point x="371" y="1380"/>
      <point x="427" y="1307"/>
      <point x="427" y="1190" type="curve" smooth="yes"/>
      <point x="427" y="1108"/>
      <point x="398" y="1039"/>
      <point x="334" y="988" type="curve"/>
      <point x="303" y="993"/>
      <point x="287" y="996"/>
      <point x="277" y="996" type="curve" smooth="yes"/>
      <point x="257" y="996"/>
      <point x="240" y="987"/>
      <point x="240" y="972" type="curve" smooth="yes"/>
      <point x="240" y="959"/>
      <point x="254" y="951"/>
      <point x="269" y="951" type="curve" smooth="yes"/>
      <point x="282" y="951"/>
      <point x="296" y="955"/>
      <point x="335" y="964" type="curve"/>
      <point x="413" y="914"/>
      <point x="440" y="841"/>
      <point x="440" y="757" type="curve" smooth="yes"/>
      <point x="440" y="629"/>
      <point x="374" y="556"/>
      <point x="258" y="556" type="curve" smooth="yes"/>
      <point x="213" y="556"/>
      <point x="185" y="568"/>
      <point x="185" y="591" type="curve" smooth="yes"/>
      <point x="185" y="617"/>
      <point x="214" y="644"/>
      <point x="214" y="684" type="curve" smooth="yes"/>
      <point x="214" y="719"/>
      <point x="189" y="741"/>
      <point x="148" y="741" type="curve" smooth="yes"/>
      <point x="104" y="741"/>
      <point x="74" y="709"/>
      <point x="74" y="664" type="curve" smooth="yes"/>
      <point x="74" y="581"/>
      <point x="171" y="522"/>
    </contour>
  </outline>
</glyph>
<glyph name="acute" format="2">
  <advance width="342"/>
  <unicode hex="00B4"/>
  <anchor x="153" y="849" name="_top"/>
  <anchor x="153" y="1252" name="top"/>
  <outline>
    <contour>
      <point x="91" y="1004" type="line"/>
      <point x="229" y="1066"/>
      <point x="264" y="1174"/>
      <point x="310" y="1213" type="curve"/>
      <point x="344" y="1252"/>
      <point x="330" y="1299"/>
      <point x="298" y="1331" type="curve" smooth="yes"/>
      <point x="264" y="1365"/>
      <point x="219" y="1372"/>
      <point x="188" y="1337" type="curve" smooth="yes"/>
      <point x="146" y="1291"/>
      <point x="192" y="1138"/>
      <point x="74" y="1023" type="curve"/>
    </contour>
  </outline>
</glyph>
<glyph name="paragraph" format="2">
  <advance width="1007"/>
  <unicode hex="00B6"/>
  <outline>
    <contour>
      <point x="475" y="-382" type="line"/>
      <point x="530" y="-378"/>
      <point x="623" y="-377"/>
      <point x="709" y="-377" type="curve" smooth="yes"/>
      <point x="795" y="-377"/>
      <point x="877" y="-378"/>
      <point x="930" y="-382" type="curve"/>
      <point x="930" y="-351" type="line"/>
      <point x="815" y="-346"/>
      <point x="794" y="-331"/>
      <point x="794" y="-209" type="curve" smooth="yes"/>
      <point x="794" y="1019" type="line" smooth="yes"/>
      <point x="794" y="1099"/>
      <point x="807" y="1131"/>
      <point x="925" y="1139" type="curve"/>
      <point x="925" y="1169" type="line"/>
      <point x="860" y="1165"/>
      <point x="711" y="1171"/>
      <point x="593" y="1171" type="curve" smooth="yes"/>
      <point x="281" y="1171"/>
      <point x="77" y="985"/>
      <point x="77" y="708" type="curve" smooth="yes"/>
      <point x="77" y="510"/>
      <point x="178" y="258"/>
      <point x="642" y="242" type="curve"/>
      <point x="642" y="-197" type="line" smooth="yes"/>
      <point x="642" y="-313"/>
      <point x="620" y="-345"/>
      <point x="475" y="-351" type="curve"/>
    </contour>
    <contour>
      <point x="641" y="305" type="line"/>
      <point x="631" y="305"/>
      <point x="617" y="408"/>
      <point x="614" y="663" type="curve"/>
      <point x="429" y="446"/>
      <point x="384" y="403"/>
      <point x="372" y="395" type="curve"/>
      <point x="373" y="413"/>
      <point x="411" y="472"/>
      <point x="588" y="693" type="curve"/>
      <point x="289" y="694"/>
      <point x="210" y="703"/>
      <point x="201" y="712" type="curve"/>
      <point x="209" y="721"/>
      <point x="289" y="731"/>
      <point x="588" y="731" type="curve"/>
      <point x="412" y="949"/>
      <point x="375" y="1010"/>
      <point x="372" y="1021" type="curve"/>
      <point x="385" y="1019"/>
      <point x="430" y="972"/>
      <point x="614" y="762" type="curve"/>
      <point x="615" y="1018"/>
      <point x="631" y="1112"/>
      <point x="641" y="1112" type="curve"/>
    </contour>
  </outline>
</glyph>
<glyph name="periodcentered" format="2">
  <advance width="339"/>
  <unicode hex="00B7"/>
  <anchor x="170" y="360" name="_Ldot"/>
  <outline>
    <contour>
      <point x="170" y="337" type="curve" smooth="yes"/>
      <point x="223" y="337"/>
      <point x="271" y="388"/>
      <point x="271" y="446" type="curve" smooth="yes"/>
      <point x="271" y="504"/>
      <point x="223" y="556"/>
      <point x="170" y="556" type="curve" smooth="yes"/>
      <point x="117" y="556"/>
      <point x="69" y="504"/>
      <point x="69" y="446" type="curve" smooth="yes"/>
      <point x="69" y="388"/>
      <point x="117" y="337"/>
    </contour>
  </outline>
</glyph>
<glyph name="cedilla" format="2">
  <advance width="314"/>
  <unicode hex="00B8"/>
  <anchor x="170" y="0" name="_bottom"/>
  <outline>
    <contour>
      <point x="120" y="-405" type="curve" smooth="yes"/>
      <point x="235" y="-405"/>
      <point x="319" y="-342"/>
      <point x="319" y="-243" type="curve" smooth="yes"/>
      <point x="319" y="-173"/>
      <point x="274" y="-123"/>
      <point x="210" y="-123" type="curve" smooth="yes"/>
      <point x="168" y="-123"/>
      <point x="137" y="-137"/>
      <point x="106" y="-160" type="curve"/>
      <point x="161" y="-9" type="line"/>
      <point x="136" y="-9" type="line"/>
      <point x="74" y="-179" type="line"/>
      <point x="82" y="-177"/>
      <point x="113" y="-172"/>
      <point x="132" y="-172" type="curve" smooth="yes"/>
      <point x="173" y="-172"/>
      <point x="202" y="-201"/>
      <point x="202" y="-249" type="curve" smooth="yes"/>
      <point x="202" y="-329"/>
      <point x="150" y="-374"/>
      <point x="73" y="-374" type="curve" smooth="yes"/>
      <point x="53" y="-374"/>
      <point x="30" y="-368"/>
      <point x="20" y="-362" type="curve"/>
      <point x="15" y="-382" type="line"/>
      <point x="30" y="-397"/>
      <point x="81" y="-405"/>
    </contour>
  </outline>
</glyph>
